<svg width="1068" height="847" viewBox="0 0 1068 847" fill="none" xmlns="http://www.w3.org/2000/svg">
<path fill-rule="evenodd" clip-rule="evenodd" d="M326.841 199.131L328.973 199.72L330.333 196.365L331.013 194.324C331.013 194.324 332.372 195.004 333.733 194.324C335.048 193.644 336.408 190.56 336.408 190.56C336.408 190.56 344.252 186.842 346.61 185.481C349.012 184.12 356.131 182.079 356.131 182.079L358.172 181.399L365.607 177L371.411 167.158C371.411 167.158 372.091 164.755 373.768 164.075C375.492 163.394 384.968 159.314 387.37 158.996C389.728 158.633 392.132 157.635 393.809 157.318C395.486 156.956 396.846 156.638 396.846 156.638C396.846 156.638 398.207 155.231 398.207 153.916C398.207 152.556 396.846 151.513 399.249 150.152C401.608 148.792 404.328 147.432 405.371 146.434C406.368 145.391 406.368 144.711 408.046 142.67C409.769 140.674 409.406 140.674 412.489 137.59C415.527 134.552 417.567 132.511 418.61 131.151C419.608 129.79 418.928 131.151 420.287 127.432C421.647 123.668 421.965 120.947 421.965 120.947L418.61 123.35C418.61 123.35 416.887 123.668 415.527 122.988C414.166 122.307 413.85 116.865 413.85 116.865L416.569 111.786C419.29 111.786 419.29 111.786 419.29 111.786L422.645 111.106L423.688 107.705L424.368 106.027C424.368 106.027 430.126 106.707 431.169 106.027C432.167 105.346 432.529 103.986 432.529 103.986C432.529 103.986 433.527 101.945 434.57 102.625C435.567 103.306 433.527 104.666 435.567 103.306C437.607 101.945 440.328 98.5437 440.328 98.5437C440.328 98.5437 443.365 98.5437 441.008 96.8658C438.605 95.1425 439.285 97.8635 438.605 95.1425C437.925 92.4214 438.605 91.4238 439.648 91.4238C440.646 91.4238 443.365 91.4238 443.365 91.4238C443.365 91.4238 443.729 89.383 444.409 88.0225C445.088 86.6619 445.088 86.6619 445.088 86.6619L446.086 84.6212C446.086 84.6212 449.124 84.3037 450.167 83.6235C451.164 82.9432 449.804 85.6643 451.164 82.9432C452.525 80.2222 453.885 77.1383 454.565 75.7779C455.245 74.4173 455.608 74.0999 456.604 72.7394C457.648 71.3788 457.965 71.0614 460.005 70.6986C462.046 70.3811 463.723 70.0184 463.723 70.0184L466.444 58.8168C466.444 58.8168 467.486 53.3747 467.486 52.0142C467.486 50.6537 465.447 48.6129 465.447 46.935C465.447 45.2117 466.444 42.5359 466.444 42.5359L469.527 41.4929C469.527 41.4929 471.567 41.1755 473.608 38.4544C475.647 35.7334 476.327 33.3298 476.327 33.3298C476.327 33.3298 476.645 29.2936 480.727 27.2529C484.806 25.2121 486.167 24.5318 487.164 24.5318C488.207 24.5318 495.326 21.8108 495.326 21.8108L498.046 20.4503C498.046 20.4503 500.404 19.77 503.124 20.4503C505.844 21.1305 504.167 22.1282 508.202 22.4911C512.283 22.8085 516.046 23.1713 516.046 23.1713L521.124 24.5318L526.882 26.8901L528.605 100.222C528.605 100.222 527.244 102.625 526.565 103.986C525.885 105.346 525.522 107.387 525.522 107.387C525.522 107.387 529.603 107.705 526.565 109.065C523.481 110.426 521.442 110.108 520.762 111.106C520.081 112.149 519.083 114.144 519.083 116.185C519.083 117.137 519.447 117.818 520.081 118.226H514.55C514.005 117.999 512.237 117.092 511.513 115.46C511.103 114.507 510.65 113.555 510.242 112.693C509.608 111.423 509.064 110.244 508.882 109.519C508.519 108.067 507.523 105.709 507.477 105.618L507.25 105.12L506.66 105.029C504.937 104.711 502.218 104.349 500.404 104.258C500.223 104.213 499.951 104.167 499.633 104.258C499.587 104.258 499.587 104.258 499.587 104.258C499.225 104.258 498.907 104.303 498.726 104.394C498.545 104.439 498.453 104.485 498.318 104.575C498.182 104.621 498.001 104.621 497.819 104.666C493.558 105.664 488.932 105.664 488.888 105.664H488.48L485.487 108.158L485.94 108.929C485.986 108.974 487.028 110.698 488.071 112.058C488.978 113.283 490.338 114.462 490.791 114.825L493.285 119.178V123.35C493.285 123.759 492.651 125.21 492.106 126.162C492.106 126.162 491.517 127.024 490.701 127.568C489.93 128.112 487.39 129.155 486.439 129.518L486.212 129.654C486.121 129.745 484.307 131.196 482.903 133.69C482.268 134.779 481.043 135.595 480.046 136.275C478.913 137.001 478.006 137.59 478.006 138.634C478.006 139.178 477.144 142.035 476.373 144.393L476.327 148.61L473.427 148.157L465.083 148.111L459.009 149.518L452.57 151.559L439.783 158.134L441.054 159.132C441.098 159.177 445.452 162.488 447.083 164.12C447.946 165.027 449.26 166.07 450.53 167.068C451.753 168.066 453.068 169.109 453.839 169.88C455.381 171.422 458.192 173.19 458.963 173.689L460.686 176.274V180.402C460.686 180.9 460.594 181.082 460.051 182.125C459.87 182.442 459.689 182.851 459.416 183.349C458.917 184.393 458.283 185.208 457.694 186.024C457.195 186.75 456.741 187.385 456.378 188.065C456.333 188.157 456.107 188.201 455.789 188.292C455.29 188.383 454.565 188.473 454.202 189.199C453.794 189.88 454.066 190.696 454.338 191.33C454.882 192.645 455.743 193.236 456.333 193.644C456.968 194.097 457.058 194.143 456.968 194.823C456.831 195.866 456.469 196.682 456.152 197.408C455.743 198.315 455.335 199.176 455.653 200.084C456.015 201.218 459.008 203.621 460.731 204.936C461.366 205.435 462.273 206.387 462.454 206.84C462.726 207.657 463.225 209.697 463.406 210.333C463.315 210.968 463.18 212.872 463.769 215.276C464.449 217.951 465.129 221.307 465.129 221.353L465.22 221.897L465.809 222.123C467.577 222.714 469.346 223.665 469.527 224.119C469.799 225.026 471.023 226.478 473.109 228.7C473.97 229.651 475.195 230.967 475.331 231.285C475.557 231.965 475.603 232.826 475.647 233.234L475.058 235.775C474.333 236.228 473.2 236.772 472.564 236.772C471.114 236.772 469.481 236.772 467.532 238.359C465.855 239.674 463.496 241.353 463.496 241.353L462.862 241.805L463.134 242.577C463.134 242.577 463.723 244.119 463.723 245.933C463.723 247.157 463.633 248.563 463.496 249.425L450.62 250.65L447.401 246.568C447.31 245.752 446.856 243.983 444.861 242.985L441.235 241.171H441.008C440.963 241.171 439.194 241.171 437.788 240.309C435.93 239.175 429.446 240.627 427.316 241.171H424.006C423.008 241.171 407.093 242.396 405.371 242.531H390.59C389.954 242.304 387.869 241.534 387.008 241.216C386.237 240.944 383.38 239.81 381.974 239.221L381.023 238.813L378.394 245.569L375.9 247.067L357.809 233.099L354.454 235.775L349.239 231.466C349.104 230.877 348.65 230.015 347.425 229.38C347.109 229.244 346.791 228.927 346.428 228.563C345.521 227.656 344.116 226.341 341.939 226.931C340.081 227.475 338.63 228.518 337.904 229.108L330.604 226.205C330.514 224.664 330.423 222.487 330.65 221.715C330.876 220.808 332.555 216.863 333.643 214.414L333.687 214.142C333.869 212.963 334.367 208.972 333.597 207.431C333.008 206.205 332.645 204.936 332.645 204.936L332.464 204.074L323.939 204.845L321.536 204.256L324.076 201.942L324.121 201.988L324.937 201.126L325.255 200.81H325.209L326.841 199.131Z" fill="#3A8A5F"/>
<path fill-rule="evenodd" clip-rule="evenodd" d="M213.264 455.09C214.851 455.09 217.254 454.999 217.934 454.772C218.977 454.455 221.652 452.05 221.652 452.05C221.652 452.05 225.415 451.053 223.692 449.33C222.015 447.652 221.652 446.609 220.654 446.291C219.657 445.929 217.617 445.248 215.894 445.248C214.216 445.248 212.176 446.291 212.493 444.251C212.856 442.21 214.533 439.489 214.896 438.492C215.214 437.448 216.574 436.087 216.256 434.728C215.894 433.367 216.574 432.687 215.214 432.006C213.853 431.326 211.496 430.327 211.496 430.327C211.496 430.327 207.415 429.285 206.055 430.645C204.695 432.006 200.297 433.367 200.297 433.367H196.533C196.533 433.367 181.254 428.288 180.574 424.886C179.894 421.484 183.294 419.444 183.294 419.444C183.294 419.444 186.377 417.766 189.415 417.766C192.498 417.766 199.254 419.444 199.254 417.085C199.254 414.682 199.254 411.644 199.254 411.644L174.498 398.719L167.334 356.951C167.334 356.951 167.017 355.273 169.057 352.915C171.098 350.512 172.775 348.47 175.496 346.113C178.216 343.709 187.057 334.91 187.737 333.55C188.417 332.19 192.498 324.026 192.498 324.026C192.498 324.026 200.977 321.986 201.294 320.988C201.657 319.945 204.015 316.906 206.055 315.547C208.095 314.186 211.496 310.104 211.496 310.104C211.496 310.104 213.173 309.787 213.536 307.746C213.853 305.705 213.853 303.302 213.853 303.302L214.533 299.22L216.936 299.9L218.614 297.224L217.254 293.824C217.254 293.824 215.214 291.102 217.254 290.422C219.294 289.742 218.614 287.338 220.654 288.699C222.695 290.059 220.654 288.699 222.695 290.059C224.735 291.42 226.095 290.059 226.095 290.059L229.813 290.74C229.813 290.74 230.493 293.143 232.216 292.78C233.894 292.463 234.936 292.099 235.571 291.102C236.251 290.06 236.251 287.7 236.251 285.661C236.251 283.62 236.251 281.579 235.571 280.218C234.936 278.857 233.576 277.497 233.576 276.137C233.576 274.776 234.936 273.778 235.254 272.417C235.571 271.057 235.254 270.694 236.931 268.699C238.654 266.658 240.015 266.296 240.015 266.296L241.375 263.257L246.816 263.938C246.816 263.938 250.851 266.296 251.531 267.338C252.211 268.337 255.294 267.656 255.612 268.699C255.974 269.697 256.655 273.098 256.655 273.098C256.655 273.098 258.015 274.096 258.015 275.457C258.015 276.816 258.015 278.177 258.015 278.177L257.652 280.58L258.695 284.662L273.294 274.096L289.572 281.941C289.572 281.941 292.609 278.54 292.609 277.497C292.609 276.499 292.291 275.819 289.934 273.098C287.531 270.378 285.854 268.337 285.491 266.976C285.173 265.615 285.491 264.935 284.811 263.938C284.131 262.894 281.773 260.536 282.09 257.134C282.453 253.734 283.451 250.332 283.451 248.655C283.451 246.93 283.133 244.573 284.493 241.851C285.854 239.131 287.531 237.77 287.531 235.049C287.531 232.328 287.531 231.331 287.531 229.607C287.531 227.929 288.892 224.891 289.934 223.53C290.932 222.169 292.291 220.128 292.291 218.088C292.291 216.047 291.975 212.329 291.975 210.968C291.975 209.608 293.97 204.483 295.012 203.486C296.01 202.442 300.77 200.401 302.131 200.084C303.491 199.722 309.249 198.043 310.61 198.043C311.698 198.043 320.675 198.497 324.166 198.632L322.488 200.401L322.58 200.492L317.365 205.39L323.803 206.886L330.922 206.251C331.103 206.796 331.421 207.567 331.783 208.338C332.101 208.973 332.01 211.603 331.692 213.734C331.24 214.778 328.972 219.901 328.655 221.217C328.292 222.714 328.609 226.568 328.609 226.976L328.655 227.612L338.357 231.512L338.856 231.013C338.856 231.013 340.398 229.516 342.484 228.927C343.481 228.609 344.071 229.108 345.022 230.015C345.476 230.469 345.929 230.923 346.519 231.194C347.244 231.557 347.29 232.011 347.29 232.011V232.464L350.735 235.367L352.051 239.947V242.442L351.007 248.609L351.733 253.507L352.368 260.218L351.642 270.286L355.451 270.649V274.458L355.405 275.955L356.765 275.411C356.765 275.411 357.129 275.684 357.129 277.18C357.129 279.764 355.178 280.58 355.088 280.626L353.048 281.397L360.393 285.524L360.574 285.615C361.39 285.887 362.388 286.431 362.434 286.703C362.434 286.703 362.388 286.885 361.98 287.203C359.395 289.152 356.403 294.232 354.997 296.635L354.589 297.361C353.501 299.13 351.824 304.163 351.779 304.344L351.642 304.752L351.824 305.116C351.824 305.161 353.139 307.792 353.819 309.741C354.498 311.827 356.176 315.183 356.266 315.41C356.357 315.501 357.99 318.177 359.033 319.537C359.713 320.445 360.393 322.394 360.892 324.933C361.028 325.705 361.481 326.839 361.935 328.017C362.524 329.515 363.249 331.373 363.249 332.19C363.249 332.643 363.295 333.187 363.341 333.822C363.476 335.455 363.657 337.723 362.977 339.265C362.615 340.126 362.297 341.124 361.935 342.122C361.3 343.935 360.665 345.749 359.622 347.655C357.899 350.784 355.269 359.355 355.134 359.717L355.088 359.898C354.862 361.985 354 365.658 352.775 366.702C352.095 367.291 350.645 368.289 349.103 369.332C343.3 373.368 342.211 374.32 342.211 375.318C342.211 375.907 341.486 378.901 341.078 380.714C340.851 381.804 340.624 382.71 340.534 383.254C340.262 384.569 333.551 409.557 330.015 422.528L326.977 432.369L325.209 437.358L325.798 441.303C324.891 441.802 323.894 442.21 323.531 442.21C322.307 442.21 320.448 443.39 319.904 443.752L319.678 443.888L318.498 446.428L316.73 442.029C316.776 441.257 316.73 439.58 315.597 438.945C315.098 438.673 314.282 438.492 313.103 439.353C310.292 441.349 310.292 445.158 310.292 446.609C310.292 447.38 310.473 448.151 310.654 448.74L307.073 450.011H303.4C302.176 449.42 300.09 448.877 298.957 450.419C298.141 451.461 297.415 451.915 297.279 451.96C296.508 450.419 294.151 448.696 293.924 448.513L293.471 448.196L286.488 450.781L285.173 451.28L279.687 448.877L277.239 450.146L276.695 450.373V450.962C276.65 451.053 276.604 451.28 276.105 451.416C275.153 451.642 269.259 451.915 265.677 452.05C265.451 452.096 260.781 452.776 257.969 453.819C256.836 454.228 255.34 454.499 253.753 454.726C251.667 455.09 249.536 455.407 247.722 456.224C246.906 456.586 246.045 457.04 245.183 457.448C243.098 458.446 240.921 459.534 239.652 459.534C237.974 459.534 233.486 459.262 232.261 459.216L228.77 456.45L220.654 457.13H215.304L213.264 455.09Z" fill="#3A8A5F"/>
<path fill-rule="evenodd" clip-rule="evenodd" d="M565.693 245.887C565.648 246.25 565.602 246.477 565.602 246.568L564.922 259.04L564.378 261.489C563.154 262.032 560.887 263.212 560.524 264.708C560.297 265.706 560.026 267.656 559.935 268.79C557.759 269.017 555.718 269.061 555.31 268.834C555.129 268.744 555.038 268.472 554.903 268.154C554.585 267.475 554.041 266.295 552.363 266.295C550.686 266.295 548.192 267.565 547.376 267.973L538.398 267.61L540.847 275.365C540.892 275.819 541.164 278.177 541.164 280.218C541.164 281.624 540.53 288.607 540.031 293.687C539.667 297.95 539.441 300.172 539.441 300.58C539.396 301.125 538.217 303.755 537.356 305.659C536.675 307.201 535.95 308.788 535.451 310.058C534.998 311.237 534.545 312.099 534.136 312.961C533.411 314.502 532.685 315.954 532.005 318.674C531.235 321.849 530.01 323.709 529.058 325.206C528.831 325.568 528.604 325.886 528.378 326.203C528.015 326.839 527.607 327.337 527.108 327.881C526.338 328.743 525.386 329.785 524.298 331.691C523.709 332.734 523.526 333.006 523.345 333.278C522.983 333.776 522.756 334.14 520.534 338.539C519.628 340.353 517.225 345.205 514.186 351.282C513.869 350.693 513.551 349.967 513.28 349.241L512.736 345.93L511.602 346.475C511.421 346.52 510.605 346.52 508.519 345.84C507.839 345.568 507.25 345.387 506.705 345.25C504.982 344.706 504.483 344.525 503.94 343.799C502.942 342.484 501.627 340.443 501.582 340.443L501.4 340.171L499.36 339.355L496.322 338.358L489.385 338.312L489.068 338.72C489.068 338.72 488.933 338.856 488.706 338.901C488.388 338.947 488.026 338.72 487.799 338.539C487.209 338.04 486.755 337.632 486.439 337.314C485.804 336.725 485.305 336.271 484.444 335.953C483.99 335.817 483.582 335.817 483.219 335.817C482.584 335.772 482.176 335.772 481.496 334.956C481.18 334.502 480.77 334.23 480.363 334.094C480.363 334.049 480.363 334.003 480.363 334.003C480.68 330.738 481.995 329.061 482.63 328.607C482.902 328.425 483.219 328.289 483.537 328.108C484.398 327.654 485.395 327.155 485.758 326.067C486.075 325.07 485.259 322.983 483.264 319.764L483.174 319.582L478.912 316.725L473.471 315.002C472.474 313.778 471.34 312.28 471.159 311.827C470.978 311.283 470.706 307.973 470.524 305.07L470.978 302.848L473.426 303.391L477.098 301.352L480.862 302.394L481.269 302.122C481.814 301.805 483.582 300.626 483.853 299.311C483.945 298.857 483.853 298.403 483.627 297.995C482.857 296.907 480.136 296.09 478.322 295.636C477.96 294.956 477.687 294.231 477.687 293.913C478.685 293.187 479.955 292.236 479.955 292.236L480.544 291.828L480.363 291.148C479.909 289.606 479.774 287.746 480.09 287.384C480.997 286.476 480.997 286.476 482.176 285.886C483.446 285.251 484.036 284.073 484.489 283.075C484.625 282.758 484.76 282.44 484.943 282.168C485.214 281.76 485.395 281.26 485.622 280.762C486.031 279.673 486.484 278.449 487.481 278.131C488.161 277.904 488.615 277.814 488.977 277.723C489.794 277.542 490.247 277.406 491.426 276.68C492.786 275.865 494.645 274.549 494.645 272.735V268.2L494.101 264.753C496.867 264.254 499.904 263.484 500.585 262.44C500.993 261.851 503.079 260.037 504.348 259.04L507.703 256.999L511.149 252.962C512.373 252.69 515.365 251.828 515.365 249.652C515.365 248.79 515.275 247.611 515.184 246.522C515.093 245.48 515.003 244.346 515.003 243.53C515.003 243.257 515.003 242.985 515.003 242.623C514.957 241.851 514.912 240.037 515.184 239.493C516.68 239.448 520.035 239.131 520.081 239.131H527.29C529.103 240.174 531.96 241.942 532.64 242.577C533.274 243.212 534.363 243.665 535.496 244.164C536.358 244.527 537.356 244.935 537.718 245.298C538.943 246.477 541.845 246.886 542.252 246.93L550.414 248.971H554.72H554.903C555.492 248.88 560.434 247.928 561.522 247.565C562.157 247.338 564.197 246.522 565.693 245.887Z" fill="#3A8A5F"/>
<path fill-rule="evenodd" clip-rule="evenodd" d="M363.431 344.072C363.566 343.618 363.703 343.21 363.884 342.802C364.202 341.804 364.519 340.851 364.882 340.035C365.744 338.04 365.517 335.499 365.38 333.641C365.335 333.096 365.29 332.598 365.29 332.189C365.29 330.965 364.565 329.105 363.839 327.292C363.431 326.248 363.023 325.114 362.888 324.525C362.478 322.484 361.798 319.808 360.666 318.312C359.713 317.043 358.035 314.412 358.035 314.412C358.035 314.321 356.358 311.056 355.723 309.107C355.179 307.473 354.227 305.432 353.818 304.617C354.363 302.983 355.587 299.627 356.312 298.403L356.72 297.677C357.991 295.546 360.937 290.557 363.204 288.834C364.429 287.927 364.565 286.976 364.429 286.385C364.157 284.753 361.935 283.936 361.3 283.709L357.4 281.487C358.262 280.671 359.169 279.311 359.169 277.18C359.169 275.411 358.761 274.277 357.945 273.732C357.764 273.642 357.627 273.551 357.492 273.506V268.79L353.818 268.426L354.409 260.174L353.728 253.234L353.094 248.654L354.091 242.713V239.81L353.456 237.633L354.409 238.405L357.808 235.684L375.719 249.516L380.025 246.976L382.157 241.489C383.426 242.032 385.602 242.895 386.373 243.166C387.371 243.484 390.046 244.481 390.046 244.481L390.227 244.572H405.415C412.49 244.028 423.326 243.212 424.006 243.212H427.406L427.678 243.166C431.849 242.123 436.02 241.624 436.746 242.032C438.288 242.985 440.101 243.166 440.736 243.212L443.955 244.799C445.361 245.525 445.406 246.886 445.406 246.93V247.294L449.713 252.781L462.046 251.601V254.187C460.006 255.502 457.557 256.772 456.968 256.772C455.063 256.772 454.565 259.221 454.156 261.035C454.066 261.397 454.021 261.715 453.975 261.897C453.794 262.35 452.388 263.755 451.481 264.708C450.62 265.569 449.758 266.522 449.034 267.338C447.673 268.971 444 269.697 443.049 269.697C441.734 269.697 436.746 271.51 435.431 272.19C434.433 272.69 431.35 273.506 430.218 273.824L429.22 274.05L430.127 277.542C429.311 281.443 428.086 285.932 427.36 286.658C425.819 288.199 425.411 290.149 425.411 290.195L425.365 290.422L426.001 293.324L421.829 301.668L432.167 303.755L427.859 316.362L433.482 319.537L433.345 319.718C433.255 319.9 430.58 323.89 429.9 325.297C429.128 326.793 428.766 327.655 428.766 330.466C428.766 332.552 429.355 333.187 430.127 333.822C430.443 334.049 430.67 334.276 430.942 334.729C431.895 336.271 432.937 338.04 433.21 338.811C433.118 339.355 431.079 341.668 427.406 341.668C426.907 341.668 426.544 341.668 426.272 341.623L426.817 341.259L424.368 337.858L415.119 332.825L411.764 338.947L390.68 327.382L378.348 350.33L369.416 347.563L363.431 344.072Z" fill="#3A8A5F"/>
<path fill-rule="evenodd" clip-rule="evenodd" d="M692.057 543.749C692.375 542.843 692.783 541.89 693.145 541.164C694.415 538.625 695.503 535.45 695.911 534.225C696.681 531.959 696.999 527.741 696.999 526.426V517.219L690.879 521.982V513.909L690.334 513.636C688.475 512.73 679.317 508.149 678.319 507.787C677.821 507.65 676.415 506.562 675.236 505.564L674.828 501.301H670.203C669.704 500.802 668.525 499.578 668.073 498.263L667.437 496.313L666.486 490.236C666.848 489.239 667.256 487.787 666.576 486.88C666.349 486.607 665.805 486.199 664.853 486.381C663.039 486.744 658.868 489.601 658.369 489.918L657.78 490.371L658.007 491.052C658.098 491.415 658.142 491.823 658.188 492.14C657.553 491.823 657.009 491.642 656.556 491.505C655.558 491.189 655.558 491.189 655.558 490.781V486.018C655.558 485.383 656.374 484.114 656.964 483.388C657.327 483.116 658.188 482.345 658.868 481.03C659.729 479.306 658.959 475.679 658.596 474.227C658.233 472.731 657.145 470.962 657.1 470.871L656.827 470.373H654.062L652.974 475.769L651.296 476.495C649.255 476.495 646.264 476.313 645.492 475.951C644.813 475.587 643.906 475.724 642.908 475.995C645.946 472.957 647.624 471.507 648.167 471.053C648.984 470.871 650.072 470.373 650.435 468.921C650.798 467.47 650.254 463.253 650.118 462.437L650.072 462.164L647.759 459.17L647.397 454.046H647.079C647.216 452.731 647.17 451.28 647.125 450.373L650.661 449.012H651.704L654.289 449.647L656.147 450.192L655.558 448.423C655.513 448.332 655.694 447.924 656.42 447.516C657.826 446.654 659.004 445.612 659.457 445.158L663.039 444.387V444.114C663.22 444.069 663.493 443.979 663.9 443.887C665.171 443.616 666.939 442.119 668.163 440.94L670.566 453.367C670.792 454.137 671.972 457.992 672.697 459.08C672.924 459.443 673.241 461.347 673.422 462.572C673.74 464.794 673.967 466.201 674.42 466.88C675.009 467.787 676.461 469.284 677.05 469.874C677.185 470.689 677.775 472.639 679.271 474.182C681.04 475.951 684.44 477.991 684.576 478.036L684.894 478.173C684.938 478.173 687.75 478.808 688.566 480.939C688.793 481.528 688.974 482.164 689.155 482.799C689.881 485.292 690.788 488.422 693.916 489.692L695.231 490.236C699.629 491.959 701.805 492.82 702.758 492.82C703.12 492.82 703.483 492.685 703.937 492.549C705.206 492.14 706.43 491.778 707.654 493.954C708.788 496.131 709.876 497.583 710.602 498.671C711.1 499.351 711.553 499.941 711.644 500.259C711.917 501.029 713.049 501.755 719.216 505.065C721.483 506.29 724.611 507.922 725.019 508.33C725.836 509.601 730.777 513.409 732.183 514.09C733.544 514.77 738.077 518.081 739.982 520.575C740.209 520.938 740.481 521.256 740.708 521.528C742.294 523.569 743.156 524.702 743.156 528.784C743.156 531.777 742.929 533.954 742.747 535.677C742.612 536.901 742.476 537.989 742.476 538.988C742.476 541.437 749.911 560.121 751.407 563.84L755.669 573.68C755.578 574.044 755.624 574.497 755.851 574.905C756.395 575.902 757.756 576.356 760.158 576.356C763.649 576.356 770.631 575.268 771.267 573.272C771.403 572.956 771.494 572.502 771.629 572.048C771.856 571.141 772.173 570.007 772.536 569.418C772.899 568.919 773.125 568.193 773.398 567.423C773.67 566.561 773.987 565.609 774.44 565.201C774.985 564.656 775.211 564.157 775.393 563.84C775.619 563.432 775.71 563.25 776.208 562.978C777.705 562.252 778.476 560.484 778.702 559.849L782.511 555.087L784.369 554.18L790.038 548.874C790.445 548.829 790.899 548.647 791.398 548.42C792.894 547.831 794.843 546.788 795.432 546.425L803.458 545.519L809.896 553.863L810.894 553.091C806.179 572.502 801.916 590.596 801.916 590.596L798.517 601.481L795.796 608.283L805.952 619.802L801.554 659.529L851.473 700.616C851.473 700.616 882.35 766.511 886.793 777.395C891.191 788.234 901.031 815.082 901.031 816.759C901.031 818.482 888.471 827.643 888.471 827.643L885.071 823.561H878.949L874.915 815.398L868.431 816.441L866.39 812.677V808.278L864.35 804.878L859.272 805.24L854.874 795.716L849.433 795.036C849.433 795.036 847.029 791.318 846.35 790.275C845.715 789.277 843.675 785.875 843.675 785.875C843.675 785.875 841.951 784.832 840.592 783.835C839.232 782.791 838.914 781.432 837.191 779.436C835.513 777.395 832.793 774.992 832.793 774.992L829.076 773.631H827.352H819.191L818.194 771.59L817.196 768.552L810.712 767.554L809.353 770.592L802.914 769.549C802.914 769.549 801.554 770.91 798.153 765.831C794.753 760.751 793.755 758.71 793.755 758.71L789.674 748.19C789.674 748.19 788.995 742.067 788.995 741.024C788.995 740.026 788.995 736.988 788.995 736.988L788.677 733.223V731.863L787.997 729.505L788.995 727.102L791.715 723.745C791.715 723.745 791.034 719.981 791.715 718.621C792.395 717.26 793.075 716.263 793.075 713.179C793.075 710.14 793.075 705.741 793.075 705.741L794.073 700.616L792.713 697.216L785.956 691.456L784.914 686.377L782.557 683.656C782.557 683.656 779.156 683.656 778.113 682.975C777.115 682.295 776.435 682.295 776.435 680.254C776.435 678.213 776.435 674.494 776.435 674.494C776.435 674.494 775.075 672.091 774.078 671.411C773.035 670.73 772.037 669.733 771.357 668.373C770.677 667.012 766.597 662.613 766.597 662.613C766.597 662.613 766.914 661.933 765.236 661.57C763.514 661.252 758.798 660.572 758.798 660.572L757.438 663.974L752.678 662.93L755.715 657.851L754.355 652.771L757.438 648.691L760.839 648.01L762.516 637.488L758.118 634.088L761.836 632.727L766.914 632.364C766.914 632.364 769.997 632.364 770.315 630.324C770.677 628.283 772.717 624.246 772.717 624.246L773.715 621.525L757.075 612.001L748.914 599.44L743.835 596.038C743.835 596.038 742.158 591.277 741.796 589.916C741.478 588.555 741.478 585.517 741.478 585.517C741.478 585.517 740.435 582.479 740.118 580.438C739.755 578.397 739.437 576.674 738.077 575.676C736.718 574.633 728.919 571.231 727.559 568.873C726.198 566.516 724.158 564.112 722.435 562.752C720.758 561.391 714.636 557.672 713.639 556.629C712.596 555.631 712.596 554.271 712.596 554.271C712.596 554.271 711.599 552.593 710.556 552.23C709.558 551.913 705.478 550.552 705.478 550.552L697.68 549.508L693.916 551.233L691.014 547.242L692.148 543.794L692.057 543.749Z" fill="#3A8A5F"/>
<path fill-rule="evenodd" clip-rule="evenodd" d="M541.301 545.7L538.172 540.394L558.575 529.373L556.535 515.904L558.575 515.224C559.436 515.315 562.565 515.541 563.699 515.541C563.971 515.904 564.379 517.083 564.606 518.126L564.741 518.761L570.953 520.529L571.633 521.482L575.623 518.58L581.472 503.024L581.562 502.707C581.654 501.437 582.334 497.945 584.419 496.767C587.684 494.952 590.449 490.462 590.585 490.281L590.721 490.054L591.447 479.805L588.545 477.266L587.366 473.502L587.547 473.048C589.723 473.819 594.801 475.497 596.842 475.497H602.328L604.776 473.048C605.094 472.639 606.047 471.733 606.681 471.733C608.313 471.733 609.538 469.555 610.127 468.24L615.976 466.971C617.245 466.835 618.924 466.88 619.376 467.152C620.509 467.924 622.233 468.286 622.504 468.332C623.185 468.422 628.853 469.057 630.621 468.694C630.892 468.648 630.892 468.648 630.983 468.785C631.437 469.284 631.89 469.329 632.208 469.239C632.887 469.057 632.978 468.558 633.159 467.516C633.296 466.563 633.386 465.52 633.477 464.657C633.567 463.66 633.613 462.662 633.794 462.21C633.84 462.073 633.885 461.892 633.931 461.665C634.293 460.35 635.019 457.72 637.014 457.493L639.099 457.22C641.185 456.994 642.772 456.812 644.041 456.812C644.314 456.812 644.404 456.858 644.449 456.903L644.903 457.447L645.447 457.402C645.493 457.402 645.537 457.402 645.583 457.402L645.764 459.896L648.167 462.98C648.394 464.884 648.666 467.697 648.485 468.467C648.349 468.966 647.896 469.012 647.759 469.012H647.397L647.124 469.239C647.034 469.329 645.31 470.689 641.276 474.771C640.006 476.041 639.144 476.994 639.689 477.945C640.232 478.852 641.321 478.581 642.681 478.172C643.271 477.991 644.314 477.718 644.586 477.764C646.082 478.49 650.615 478.535 651.478 478.535H651.705L654.742 477.22L655.694 472.549C656.011 473.093 656.419 474 656.6 474.726C657.19 477.084 657.372 479.397 657.054 480.123C656.51 481.211 655.694 481.755 655.694 481.755L655.468 481.982C655.15 482.345 653.517 484.385 653.517 486.018V490.78C653.517 492.685 654.878 493.093 655.92 493.455C656.373 493.592 656.918 493.773 657.507 494.045C658.551 494.589 659.231 494.318 659.593 494C660.363 493.365 660.319 492.185 660.137 491.233C661.588 490.236 663.673 488.966 664.852 488.513C664.807 488.829 664.626 489.283 664.49 489.691L664.353 489.963L665.441 496.721L666.167 498.898C666.893 501.166 669.069 503.024 669.16 503.115L669.477 503.342H672.969L673.286 506.561L673.558 506.834C674.238 507.423 676.55 509.374 677.638 509.736C678.318 509.963 684.621 513.092 688.838 515.178V526.153L694.958 521.391V526.426C694.958 527.695 694.642 531.641 693.961 533.59C693.598 534.77 692.51 537.854 691.332 540.211C690.878 541.073 690.469 542.162 690.107 543.114L690.017 543.068L689.019 546.108H687.477C686.117 546.108 684.757 545.427 684.757 545.427L678.636 543.386L672.56 539.985L662.358 535.949L646.762 526.426L646.082 523.024L642.001 521.347L632.163 523.704L631.119 527.785L630.122 529.146L625.361 527.106L618.56 525.427C618.56 525.427 614.842 529.464 613.12 530.507C611.441 531.505 609.039 532.185 609.039 532.185L602.964 530.825L587.321 529.464L581.2 530.144L570.681 532.866L557.125 536.946L556.445 541.345L553.362 547.831C553.362 547.831 553.362 549.191 552.001 550.189C550.641 551.232 549.643 551.549 548.6 551.549C547.603 551.549 545.563 549.872 545.563 549.872L543.884 549.599L541.482 545.609L541.301 545.7Z" fill="#3A8A5F"/>
<path fill-rule="evenodd" clip-rule="evenodd" d="M530.6 563.432C530.238 562.434 529.83 561.3 529.512 560.62C529.104 559.804 528.923 556.629 528.923 554.588L528.878 554.271C528.651 553.682 527.517 550.869 525.522 550.869H519.583L519.447 551.731C519.402 551.822 519.402 551.958 519.311 552.094C518.63 551.55 517.815 551.323 517.134 551.142C516.5 550.961 516.046 550.824 516.001 550.643L515.185 547.332L510.197 553.273L510.243 553.682C510.288 554.044 510.243 554.633 510.197 554.725C510.197 554.77 509.97 554.77 509.427 554.407C508.52 553.863 507.659 553.41 506.887 553.046C505.256 552.276 504.394 551.822 504.077 550.915C503.85 550.099 503.442 549.237 503.034 548.376C502.444 547.06 501.764 545.609 501.764 544.747C501.764 543.296 502.308 538.172 502.444 537.219L503.895 533.772L502.626 533.591C502.082 533.501 500.494 533.137 499.498 532.639C498.364 532.095 495.281 530.28 494.374 529.781L492.878 527.061C492.741 526.653 492.379 525.473 491.744 524.521C491.563 524.204 491.336 523.932 491.11 523.659C490.384 522.843 489.613 521.891 489.159 520.076C488.479 517.311 487.8 514.997 485.986 512.685C486.303 512.14 485.941 511.823 483.401 509.691C481.588 508.149 480.59 507.65 479.774 507.696C479.593 507.333 479.275 506.743 478.913 505.973C476.827 501.483 474.696 497.945 473.563 496.087L473.109 495.361C472.067 493.547 467.713 488.921 467.532 488.74L467.351 488.513L461.593 486.744L461.366 487.878C461.366 487.923 461.048 489.691 460.233 490.825C459.915 491.233 459.688 491.642 459.417 492.096C458.827 493.139 458.192 494.227 456.424 495.315C456.151 495.496 455.789 495.678 455.562 495.542C455.063 495.361 454.701 494.318 454.566 493.682C454.566 493.638 454.429 492.14 456.561 490.554C457.649 489.737 458.238 489.737 458.555 489.737C458.827 489.737 459.371 489.737 459.688 489.283C460.051 488.74 459.915 488.286 459.598 487.379L458.782 484.93L458.373 484.749C458.283 484.703 455.789 483.661 452.525 483.661H447.945L446.993 479.262L444.454 477.81C444.182 477.356 443.593 476.449 442.142 474.545C440.328 472.096 440.328 471.28 440.328 469.693C440.328 467.878 439.603 465.747 439.603 465.656L439.467 465.294L433.844 461.801L428.948 456.224C428.585 455.498 427.497 453.775 426.046 453.775C425.548 453.775 422.736 453.548 419.971 453.321C421.331 453.184 423.326 453.094 425.049 453.094H425.548L430.172 447.335C430.942 446.7 432.53 445.203 432.53 443.888V439.398C433.21 438.99 434.252 438.492 434.887 438.492H437.926C439.059 438.492 440.374 437.267 441.099 436.496C442.232 436.586 444.907 436.767 445.769 436.767H449.985L452.117 437.493L459.326 436.451H460.867L459.19 440.532C458.056 441.303 455.925 442.981 455.925 444.568C455.925 444.886 455.835 445.113 455.698 445.521C455.427 446.247 455.019 447.289 455.246 449.466C455.654 452.958 457.195 456.449 459.28 458.536C460.006 459.262 460.595 459.942 461.139 460.577C462.136 461.711 462.999 462.708 464.223 463.434C465.311 464.069 466.444 465.429 467.351 466.472C467.759 466.971 468.121 467.425 468.439 467.697C468.847 468.105 469.301 468.74 469.754 469.375C470.525 470.417 471.25 471.416 472.021 471.915C472.883 472.504 473.155 472.731 474.832 474.772L478.414 479.079L478.686 479.171C478.731 479.171 479.91 479.579 481.724 479.579C483.357 479.579 490.611 476.857 493.467 475.769L500.631 489.737L500.812 489.874C500.948 489.964 503.577 491.959 504.576 492.639C505.075 493.047 506.389 495.86 507.251 498.263L507.522 498.988L508.293 498.898C509.517 498.807 512.828 498.58 513.644 498.58C514.051 498.58 515.004 499.442 515.004 500.621C515.004 501.891 514.278 505.02 514.006 506.154L513.825 507.015L518.948 509.011C519.492 509.283 520.989 510.28 520.807 511.324C520.671 512.005 520.49 512.503 520.309 512.956C519.945 513.819 519.583 514.77 520.217 515.995C520.399 516.358 520.49 516.72 520.581 517.174C520.806 518.126 521.124 519.306 522.53 520.44C524.299 521.845 527.608 523.387 528.923 523.387C529.785 523.387 530.555 522.798 531.417 522.163C531.779 521.845 532.46 521.347 532.686 521.347H537.084C537.538 521.347 539.805 521.301 541.029 520.484C541.89 519.895 543.885 518.58 543.885 516.222C543.885 515.769 543.976 515.361 544.066 514.907C544.293 513.954 544.611 512.775 543.704 511.279L543.341 510.644C542.57 509.374 542.162 508.694 541.21 507.696C540.939 507.469 540.666 507.288 540.44 507.242C540.258 505.474 540.485 503.886 540.666 503.07C542.57 502.435 544.746 501.846 545.245 501.936C545.925 502.163 549.009 503.659 550.868 504.566L551.095 504.703H551.321C551.367 504.703 552.817 504.703 553.951 505.247C554.45 505.519 554.948 507.015 555.085 508.195L555.22 509.51L561.296 507.107C562.565 507.333 563.971 507.877 564.696 508.149L565.649 513.863C565.784 514.317 566.51 516.267 567.598 517.446L566.464 517.129C566.056 515.361 565.286 513.501 563.88 513.501C563.109 513.501 559.755 513.274 558.53 513.183H558.349L554.268 514.544L556.354 528.239L535.316 539.623L539.578 546.788H539.533L540.983 549.192H540.802C540.802 549.192 538.445 550.189 538.081 551.233C537.764 552.23 535.724 552.91 536.722 555.268C537.764 557.673 537.764 557.673 537.764 557.673L542.162 557.309C542.162 557.309 541.844 554.951 542.842 555.268C543.885 555.632 545.563 557.673 547.603 557.673C549.643 557.673 550.323 557.673 551.321 557.309C552.364 556.992 554.404 556.312 554.404 556.312C554.404 556.312 556.082 553.953 555.401 557.673C554.721 561.391 552.364 564.792 552.364 564.792C552.364 564.792 551.003 565.836 550.641 567.513C550.323 569.192 550.323 569.554 549.961 571.595C549.643 573.635 548.283 577.037 548.601 578.397C548.963 579.758 549.281 583.159 549.281 583.159L547.286 584.837H543.205L533.412 568.828L533.502 568.783L530.646 563.432H530.6Z" fill="#3A8A5F"/>
<path fill-rule="evenodd" clip-rule="evenodd" d="M372.817 595.857L372.907 595.948L373.225 595.494L373.452 595.268L373.406 595.222L375.628 591.866L381.931 570.234L390.726 573.545L400.52 574.315C401.063 574.361 414.031 575.313 418.248 573.907C421.875 572.683 427.996 569.871 428.948 568.42L429.311 567.875C436.611 568.193 444.545 568.873 445.588 569.417C447.31 570.461 459.326 574.769 460.822 575.313C461.729 575.495 469.8 577.036 471.206 577.036C472.248 577.036 477.688 575.767 478.279 573.953C478.55 573.227 478.776 572.048 478.913 571.368C480.274 570.915 482.676 570.234 483.765 570.234C485.397 570.234 489.069 570.551 489.115 570.551L489.477 570.597L489.749 570.415C489.931 570.324 491.563 569.236 491.88 567.604C492.061 566.787 491.926 565.971 491.427 565.245C490.475 563.84 487.301 556.493 485.623 552.502L491.563 552.23L500.041 546.47C500.313 547.377 500.767 548.284 501.175 549.237C501.583 550.053 501.946 550.869 502.173 551.549C502.762 553.318 504.349 554.09 505.982 554.905C506.752 555.268 507.523 555.631 508.384 556.175C509.473 556.855 510.469 556.992 511.195 556.493C512.148 555.903 512.329 554.633 512.329 553.953L514.233 551.641C514.732 552.592 515.73 552.864 516.591 553.091C517.135 553.272 517.725 553.409 518.133 553.726C518.948 554.361 519.629 554.271 520.082 554.09C520.625 553.863 520.989 553.364 521.17 552.91H525.522C525.795 552.91 526.475 553.817 526.883 554.814C526.883 556.039 526.974 560.12 527.7 561.527C528.016 562.161 528.424 563.386 528.788 564.429L528.651 564.475L529.014 565.201C529.196 565.744 529.331 566.107 529.331 566.107L529.468 566.062L530.465 567.875L523.483 574.315C523.483 574.315 520.444 575.676 517.725 576.674C515.004 577.717 511.286 579.394 511.286 579.394L505.165 581.799L498.364 582.479L499.406 586.514L498.364 589.916L493.966 587.558L492.244 588.555C492.244 588.555 491.926 589.916 491.245 591.639C490.565 593.318 487.844 597.036 487.844 597.036C487.844 597.036 488.888 596.718 486.485 602.161C484.127 607.603 483.447 611.321 483.447 611.321L484.807 615.72L490.565 617.444L482.766 617.081L479.683 617.444L475.966 616.4C475.966 616.4 474.969 621.843 474.969 622.886C474.969 623.884 475.649 630.006 475.649 630.006L475.966 631.683L480.727 632.364L480.364 640.527L484.807 658.849L481.407 657.488L483.084 671.411L486.848 675.175L488.208 674.494L485.805 680.616C485.805 680.616 484.127 681.615 484.127 684.653C484.127 687.737 483.765 694.54 484.127 695.537C484.445 696.58 485.125 699.256 485.125 699.256L482.766 707.102L481.044 710.503L479.003 710.82C479.003 710.82 479.367 708.462 479.003 705.379C478.687 702.339 478.006 696.217 477.644 694.857C477.326 693.496 475.966 689.415 475.966 689.415H473.925C473.925 689.415 472.928 685.333 472.928 684.336C472.928 683.292 472.248 680.934 472.248 680.934C472.248 680.934 471.568 679.257 470.525 678.577C469.527 677.896 461.729 675.493 461.729 675.493L458.646 673.134L453.885 677.216C453.885 677.216 448.444 677.896 447.447 676.535C446.449 675.175 444.726 674.494 444.726 674.494C444.726 674.494 442.006 674.812 441.325 676.535C440.646 678.213 437.926 679.574 437.926 679.574L435.885 679.937C435.885 679.937 431.169 678.893 430.489 681.297C429.809 683.656 431.487 684.336 428.766 686.694C426.046 689.097 423.008 690.776 423.008 690.776C423.008 690.776 420.968 691.819 420.288 693.179C419.609 694.54 417.568 696.217 417.568 696.217L414.167 695.855H409.769L405.008 696.58L402.288 698.939L400.61 701.659L395.486 700.616C393.447 700.299 383.97 700.299 383.97 700.299L380.887 702.657L371.049 704.018L367.331 705.741L359.169 708.462L362.932 647.647L370.323 598.079L372.817 595.857Z" fill="#3A8A5F"/>
<path fill-rule="evenodd" clip-rule="evenodd" d="M321.31 447.289L323.623 448.831L327.522 450.6L327.794 450.69C327.84 450.69 330.151 451.008 331.422 451.326C332.373 451.597 334.187 452.142 335.139 452.458L335.502 456.813H336.408C336.454 456.813 337.588 456.813 338.676 457.402C339.945 457.991 342.575 458.581 343.436 458.763L344.615 459.715L344.933 462.254L346.746 465.157L346.972 465.384C347.064 465.475 349.739 467.833 350.781 468.513C353.683 470.463 355.361 471.415 356.131 471.688C356.404 471.823 357.084 472.549 357.583 473.049C358.58 474.091 359.578 475.18 360.621 475.452C361.028 475.542 361.573 475.769 362.162 476.041C363.568 476.586 364.927 477.129 365.925 476.813C367.104 476.403 367.421 475.088 367.693 473.773C367.829 473.23 368.01 472.595 368.193 472.323C368.827 471.324 369.961 469.647 372.863 469.374C373.951 469.239 374.993 469.284 375.9 469.239C378.031 469.284 379.709 469.284 380.479 467.787C380.887 466.971 381.748 465.792 382.293 465.111L386.464 466.426C386.645 467.152 387.099 468.105 388.097 468.831C389.547 469.919 391.315 471.234 393.901 469.964C394.217 469.782 394.49 469.647 394.762 469.51C396.393 468.785 397.891 468.059 397.891 465.973C397.891 465.067 397.527 464.341 397.3 463.706C397.21 463.525 397.119 463.298 397.028 463.116C398.162 462.572 398.661 462.572 400.248 462.572C400.837 462.572 401.155 462.618 401.427 462.662C402.016 462.753 402.515 462.799 403.83 462.572C405.915 462.209 407.593 460.486 408.681 459.307L409.135 458.898C409.361 458.627 409.497 458.4 409.542 458.173C409.588 458.173 409.634 458.128 409.678 458.128C411.038 457.81 411.9 457.629 412.58 457.493C413.94 457.175 414.439 457.085 415.709 456.314C416.389 455.951 416.797 455.498 417.115 455.134C418.702 455.271 425.049 455.77 426.001 455.77C426.272 455.86 426.863 456.586 427.179 457.266L432.44 463.253L437.744 466.653C437.926 467.243 438.288 468.604 438.288 469.692C438.288 471.688 438.379 472.912 440.51 475.769C442.415 478.263 442.777 478.989 442.822 478.989L442.958 479.26L445.18 480.577L446.268 485.656H452.525C454.61 485.656 456.378 486.199 457.15 486.472L457.603 487.787C457.014 487.922 456.288 488.24 455.336 488.921C452.162 491.324 452.525 493.864 452.571 494C452.615 494.272 453.024 496.676 454.701 497.402C455.29 497.673 456.243 497.855 457.512 497.084C459.689 495.677 460.505 494.272 461.185 493.138C461.412 492.73 461.593 492.412 461.865 492.05C462.5 491.189 462.908 490.145 463.135 489.329L466.218 490.327C467.578 491.732 470.615 495.134 471.341 496.403L471.84 497.129C473.018 499.125 475.013 502.435 477.099 506.834C478.414 509.645 478.687 510.236 479.865 509.737C479.865 509.737 480.409 509.782 482.086 511.233C482.585 511.641 482.948 511.959 483.266 512.231C483.311 512.685 483.719 513.138 484.037 513.501C485.895 515.677 486.53 517.808 487.21 520.575C487.755 522.843 488.797 524.067 489.523 524.929C489.704 525.201 489.931 525.428 490.066 525.654C490.611 526.47 490.928 527.695 490.928 527.695L492.878 531.233L493.105 531.368C493.286 531.46 497.23 533.772 498.591 534.452C499.361 534.86 500.268 535.132 501.039 535.314L500.495 536.539L500.405 536.855C500.405 537.082 499.86 542.026 499.77 544.202L490.928 550.189L482.631 550.597L483.174 551.957C483.401 552.457 488.344 564.294 489.704 566.379C489.976 566.743 489.931 567.014 489.931 567.196C489.795 567.694 489.296 568.239 488.933 568.511C487.936 568.42 485.215 568.193 483.765 568.193C481.951 568.193 478.096 569.463 477.688 569.599L477.099 569.781L477.008 570.415C476.918 570.96 476.6 572.546 476.419 573.181C475.966 573.772 472.429 574.995 471.206 574.995C470.299 574.995 464.585 573.953 461.366 573.364C456.107 571.458 447.809 568.374 446.63 567.648C444.817 566.606 432.53 565.971 428.812 565.835L428.267 565.79L427.271 567.286C426.682 568.012 421.785 570.597 417.568 572.003C414.394 573.046 404.283 572.546 400.656 572.275L391.315 571.595L380.57 567.513L373.86 590.869L372 593.635L371.956 593.589L370.595 594.814L356.131 537.309C356.131 537.309 356.812 533.228 356.812 531.505C356.812 529.826 356.131 525.746 356.131 525.746C356.131 525.746 356.449 524.385 354.091 522.706C351.688 520.983 348.333 518.625 348.333 518.625L346.972 521.664C346.972 521.664 342.53 520.666 336.092 519.306C329.653 517.945 326.252 518.262 326.252 518.262L324.53 520.666L316.051 522.706C316.051 522.706 313.694 521.664 311.97 523.705C310.293 525.746 306.529 528.784 303.854 529.826C301.133 530.825 297.054 531.505 297.054 530.507C297.054 529.464 296.373 527.105 296.373 527.105C296.373 527.105 290.615 532.865 289.573 532.865C288.575 532.865 283.451 532.186 282.454 532.865C281.411 533.545 277.376 535.586 275.335 536.266C273.295 536.947 261.416 541.391 260.373 541.709C259.376 542.026 254.615 547.151 254.615 547.151C254.615 547.151 251.214 554.271 248.494 552.91C245.774 551.549 244.096 551.549 241.376 548.828C238.655 546.108 235.572 542.706 232.534 541.709C229.496 540.711 225.733 539.668 225.733 539.668C225.733 539.668 223.375 537.627 221.335 537.627C219.295 537.627 215.577 539.668 214.534 539.668C213.537 539.668 210.454 540.348 210.454 540.348H206.736L193.814 546.108C193.814 546.108 190.776 547.831 189.778 545.428C188.736 543.069 188.418 540.348 188.418 538.988C188.418 537.627 188.418 536.266 188.418 536.266L182.297 533.545C182.297 533.545 179.894 532.185 179.214 530.825C178.534 529.464 177.899 527.105 177.899 525.746C177.899 524.385 176.176 522.344 179.214 522.344C182.297 522.344 188.055 521.346 188.055 521.346L192.499 519.306L193.814 516.902L193.134 514.181L189.416 511.822L188.055 507.741L187.058 501.982L185.698 500.939L180.574 498.898V495.86L181.617 493.819C181.617 493.819 182.297 492.14 185.018 491.097C187.738 490.1 209.456 481.936 209.456 481.936V478.218L183.658 477.855C183.658 477.855 178.217 474.817 177.219 474.454C176.176 474.137 176.176 472.413 174.816 470.735C173.456 469.012 169.738 468.332 173.139 466.653C176.539 464.976 177.899 465.294 179.894 464.976C181.934 464.613 186.015 463.933 186.015 463.933C186.015 463.933 190.459 464.613 190.459 465.656C190.459 466.653 191.456 467.017 192.499 467.697C193.496 468.377 193.496 468.377 193.496 468.377C193.496 468.377 195.854 470.055 195.854 468.694C195.854 467.333 196.534 461.892 196.534 461.892L198.937 459.171C198.937 459.171 206.418 458.49 207.416 457.81C208.413 457.129 210.816 456.449 210.816 456.449L211.224 455.951L214.444 459.171H220.746L228.136 458.536L231.491 461.212H231.809C232.035 461.257 237.612 461.574 239.653 461.574C241.376 461.574 243.643 460.44 246.046 459.262C246.907 458.854 247.769 458.445 248.585 458.082C250.126 457.402 252.121 457.085 254.071 456.767C255.794 456.495 257.381 456.222 258.695 455.724C261.28 454.772 265.905 454.091 265.859 454.091C266.811 454.046 275.154 453.729 276.605 453.365C277.784 453.094 278.328 452.368 278.6 451.734L279.779 451.143L285.129 453.502L293.154 450.463C293.97 451.143 295.104 452.142 295.466 452.867C295.784 453.502 296.328 453.91 297.008 453.956C298.641 454.137 300.137 452.232 300.59 451.642C300.952 451.189 302.223 451.688 302.631 451.915L302.902 452.05H307.21L313.421 449.919L312.877 448.877C312.877 448.877 312.333 447.697 312.333 446.609C312.333 445.339 312.333 442.391 314.283 440.985C314.418 440.895 314.509 440.849 314.6 440.804C314.69 441.076 314.736 441.665 314.69 442.119V442.346L318.364 451.597L320.54 446.881L321.31 447.289Z" fill="#3A8A5F"/>
<path fill-rule="evenodd" clip-rule="evenodd" d="M459.688 257.906C461.185 257.134 462.772 256.182 463.633 255.592L464.087 255.32V251.374L465.31 251.284L465.446 250.467C465.446 250.377 465.764 248.018 465.764 245.933C465.764 244.572 465.492 243.348 465.265 242.577C466.126 241.988 467.623 240.899 468.801 239.947C470.207 238.813 471.295 238.813 472.565 238.813C474.197 238.813 476.283 237.406 476.51 237.271L476.872 237.044L477.643 233.598V233.371C477.643 233.28 477.643 231.829 477.28 230.65C477.054 230.06 476.373 229.244 474.605 227.339C473.517 226.16 471.703 224.164 471.522 223.621C471.16 222.079 468.575 220.945 466.989 220.355C466.762 219.266 466.263 216.817 465.764 214.776C465.129 212.329 465.446 210.469 465.446 210.423V210.242L465.402 210.015C465.402 209.924 464.721 207.248 464.358 206.206C463.95 204.982 462.319 203.621 462.001 203.349C460.051 201.852 457.83 199.947 457.603 199.403C457.557 199.267 457.83 198.632 458.011 198.224C458.373 197.454 458.782 196.455 458.963 195.14C459.28 193.19 458.238 192.464 457.512 191.965C456.968 191.603 456.515 191.286 456.197 190.514C456.151 190.423 456.107 190.333 456.107 190.288C456.107 190.288 456.107 190.288 456.151 190.288C456.696 190.197 457.693 190.015 458.192 188.973C458.464 188.473 458.872 187.884 459.371 187.25C459.96 186.388 460.64 185.435 461.275 184.256C461.502 183.758 461.683 183.394 461.865 183.078C462.454 181.988 462.727 181.399 462.727 180.402V175.685L460.368 172.148L460.187 172.056C460.141 172.012 456.877 170.061 455.29 168.475C454.429 167.568 453.068 166.524 451.799 165.481C450.575 164.528 449.305 163.486 448.489 162.67C447.356 161.536 444.998 159.63 443.547 158.498L453.251 153.508L459.552 151.513L465.221 150.152H473.155L477.099 150.833L491.79 155.504L502.716 163.123C503.124 163.758 504.802 166.388 505.936 169.2C507.114 172.193 509.291 172.148 511.241 172.056C512.056 172.056 512.918 172.012 513.779 172.193C515.593 172.601 518.041 173.644 519.991 174.46C521.305 175.005 522.304 175.458 522.893 175.594L523.708 175.776C525.794 176.274 530.691 177.454 533.275 178.588C535.634 179.676 536.358 181.126 537.175 182.851L537.538 183.575C538.852 186.251 548.827 189.245 552.863 189.88C556.535 190.469 557.442 193.417 557.487 193.553L557.577 193.916L557.85 194.097C558.394 194.505 568.232 201.807 575.124 206.524L574.444 206.478L574.082 212.464L575.351 215.956L570.5 225.026L567.916 229.425L568.006 229.788C568.278 231.33 568.731 235.775 567.735 238.041C567.009 239.674 566.464 241.761 566.147 243.484C564.606 244.119 561.567 245.388 560.843 245.615C560.163 245.887 556.807 246.522 554.631 246.93H550.777L542.616 244.935C541.528 244.799 539.668 244.345 539.17 243.846C538.49 243.212 537.446 242.758 536.268 242.259C535.407 241.896 534.409 241.489 534.047 241.126C532.959 240.037 528.561 237.498 528.062 237.225L527.835 237.09H519.991C519.991 237.09 516.319 237.452 515.004 237.452C514.55 237.452 514.097 237.633 513.779 237.951C512.918 238.813 512.918 240.536 512.963 242.668C512.963 242.985 512.963 243.303 512.963 243.53C512.963 244.437 513.054 245.569 513.144 246.703C513.236 247.747 513.326 248.836 513.326 249.651C513.326 250.014 511.965 250.74 510.424 251.058L510.061 251.102L506.525 255.32L503.169 257.361C502.58 257.814 499.633 260.218 498.953 261.262C498.409 261.715 495.371 262.486 492.832 262.894L489.93 263.211L485.441 262.169L485.169 262.259C483.764 262.712 480.318 263.846 479.548 265.07C479.275 265.434 478.142 265.933 477.099 266.25L473.109 264.254L468.212 264.572L466.943 260.762L462.59 259.039L462.635 258.948L459.825 257.906H459.688Z" fill="#3A8A5F"/>
<path fill-rule="evenodd" clip-rule="evenodd" d="M430.488 439.035V443.887C430.398 444.205 429.627 445.158 428.811 445.837L424.549 451.053C422.918 451.053 418.791 451.144 417.476 451.823C416.524 452.277 416.161 452.867 415.843 453.365C415.572 453.819 415.346 454.182 414.665 454.59C413.713 455.18 413.441 455.225 412.171 455.498C411.491 455.633 410.584 455.814 409.179 456.178C406.775 456.767 406.459 456.858 406.549 457.765C406.594 457.901 406.64 458.128 406.821 458.354C405.914 459.262 404.736 460.35 403.466 460.577C402.378 460.758 402.106 460.712 401.697 460.668C401.381 460.622 400.973 460.531 400.247 460.531C398.524 460.531 397.663 460.531 396.076 461.347C394.398 462.164 395.078 463.752 395.396 464.522C395.622 465.021 395.849 465.52 395.849 465.974C395.849 466.699 395.486 466.925 393.9 467.697C393.628 467.832 393.31 467.969 392.993 468.105C391.587 468.831 390.771 468.286 389.32 467.198C388.413 466.517 388.368 465.656 388.368 465.656V464.884L381.566 462.753L381.159 463.298C381.069 463.388 379.345 465.429 378.62 466.88C378.483 467.243 377.033 467.198 375.899 467.243C374.947 467.198 373.859 467.243 372.635 467.333C368.781 467.742 367.148 470.146 366.468 471.189C366.106 471.733 365.925 472.504 365.743 473.32C365.607 473.864 365.38 474.726 365.336 474.861C364.926 474.907 363.612 474.409 362.931 474.137C362.297 473.864 361.662 473.592 361.119 473.502C360.665 473.365 359.667 472.277 359.033 471.642C358.08 470.644 357.446 470.009 356.765 469.782C356.449 469.647 355.361 469.102 351.914 466.835C351.188 466.336 349.239 464.659 348.423 463.933L346.927 461.574L346.564 458.672L344.342 456.858L344.115 456.813C343.208 456.631 340.624 456.087 339.582 455.543C338.766 455.135 337.995 454.953 337.36 454.863L337.042 450.962L336.408 450.735C336.272 450.691 333.279 449.738 331.919 449.376C330.695 449.058 328.791 448.785 328.247 448.695L324.71 447.108L323.758 446.428L323.939 446.064L321.763 444.976C322.488 444.568 323.214 444.251 323.531 444.251C324.71 444.251 326.796 443.117 327.431 442.753L328.02 442.391L327.294 437.539L328.927 433.003L331.964 423.117C332.372 421.575 342.166 385.385 342.529 383.662C342.619 383.119 342.846 382.211 343.073 381.213C343.707 378.492 344.161 376.452 344.207 375.545C344.841 374.773 348.196 372.415 350.237 371.009C351.914 369.875 353.32 368.878 354.046 368.289C356.268 366.475 356.992 361.213 357.129 360.262C357.4 359.309 359.894 351.418 361.436 348.651C361.935 347.744 362.342 346.837 362.705 345.976L368.509 349.377L379.345 352.779L391.496 330.195L412.534 341.714L415.935 335.591L423.008 339.4L424.05 340.897C423.779 341.35 423.642 341.849 423.779 342.348C424.187 343.572 425.864 343.709 427.405 343.709C430.761 343.709 433.436 342.076 434.615 340.443C435.204 339.673 435.385 338.947 435.159 338.312C434.796 337.178 433.798 335.501 432.71 333.686C432.257 332.915 431.759 332.552 431.441 332.234C430.987 331.872 430.806 331.737 430.806 330.466C430.806 328.017 431.079 327.473 431.713 326.204C432.257 325.114 434.116 322.257 434.796 321.215L439.24 320.489L430.353 315.41L434.887 302.213L424.867 300.218L428.131 293.597L427.451 290.422C427.587 290.014 427.95 288.971 428.811 288.064C430.262 286.612 431.759 279.764 432.167 277.723L432.212 277.496L431.713 275.547C433.028 275.184 435.34 274.504 436.338 274.005C437.879 273.234 442.277 271.737 443.049 271.737C444.318 271.737 448.67 270.967 450.619 268.653C451.255 267.883 452.116 266.976 452.932 266.114C454.655 264.391 455.607 263.347 455.88 262.531C455.97 262.304 456.061 261.896 456.151 261.443C456.242 260.944 456.514 259.855 456.741 259.221L461.909 261.081L461.955 260.989L465.31 262.304L466.762 266.703L472.701 266.295L476.872 268.382L477.234 268.291C477.96 268.11 480.408 267.429 481.224 266.204C481.542 265.796 483.491 264.935 485.532 264.3L489.839 265.297L492.06 265.026L492.605 268.336V272.735C492.605 272.962 492.424 273.688 490.383 274.957C489.431 275.501 489.114 275.592 488.524 275.728C488.116 275.819 487.617 275.954 486.847 276.181C484.942 276.816 484.217 278.767 483.718 279.991C483.537 280.444 483.4 280.807 483.265 281.034C483.038 281.352 482.857 281.805 482.63 282.213C482.268 283.029 481.904 283.755 481.27 284.073C479.819 284.798 479.728 284.889 478.64 285.977C477.552 287.066 477.914 289.606 478.232 291.011C477.733 291.374 477.008 291.874 476.419 292.281C474.696 293.415 476.283 296.227 476.781 297.043L477.008 297.406L477.415 297.496C479.32 297.95 481.224 298.63 481.769 299.038C481.588 299.31 481.089 299.764 480.544 300.172L476.872 299.175L473.109 301.215L469.391 300.399L468.484 304.934V305.07C468.574 306.521 468.892 311.419 469.21 312.463C469.618 313.595 471.567 315.863 472.156 316.543L472.337 316.77L477.914 318.493L481.678 321.033C482.811 322.938 483.809 324.979 483.809 325.387C483.718 325.75 483.129 326.021 482.585 326.294C482.222 326.521 481.859 326.702 481.497 326.929C480.273 327.746 478.731 330.012 478.368 333.776C478.187 335.591 478.141 336.044 478.821 336.362C479.048 336.498 479.456 336.589 479.955 336.225C481.179 337.767 482.358 337.813 483.174 337.813C483.4 337.858 483.627 337.858 483.809 337.904C484.217 338.04 484.444 338.221 485.033 338.811C485.395 339.128 485.894 339.581 486.529 340.126C487.346 340.761 488.162 341.033 488.977 340.897C489.341 340.851 489.612 340.761 489.884 340.624L489.385 343.572L489.295 344.026L489.568 344.388L490.837 346.339L491.38 352.416L491.154 362.529L483.4 371.009L467.532 374.23L467.442 374.275L444.68 380.851L444.091 381.032L443.91 381.577L442.005 387.154L434.343 389.105L419.97 392.823L419.109 393.05V393.957V399.036V399.807L419.789 400.079L427.678 403.39V406.7V407.154L427.95 407.472C427.996 407.472 430.761 410.374 430.488 413.321C430.262 416.043 425.864 417.63 425.864 417.63L424.776 418.038L425.184 419.081L426.227 421.938L426.635 423.072L427.769 422.574C427.769 422.574 429.174 421.848 429.446 422.347C430.081 423.662 430.534 428.514 430.534 428.514L430.58 429.012L430.942 429.33L432.847 430.826L430.534 434.772L430.444 434.908L430.398 435.09L429.808 437.72L429.582 438.945L430.488 439.035Z" fill="#3A8A5F"/>
<path fill-rule="evenodd" clip-rule="evenodd" d="M462.273 434.409H459.19L452.298 435.406L450.484 434.772L445.768 434.726C444.952 434.726 441.869 434.501 440.736 434.409L440.237 434.364L439.874 434.772C439.194 435.589 438.242 436.405 437.925 436.45H434.886C434.162 436.45 433.3 436.722 432.62 437.04L432.302 436.994L432.575 435.77L435.295 431.099L435.839 430.237L435.023 429.647L432.71 427.834C432.575 426.473 432.121 422.709 431.441 421.348C430.67 419.761 429.084 419.807 427.95 420.079L427.678 419.307C429.355 418.492 432.484 416.586 432.756 413.548C433.028 410.283 430.761 407.289 429.945 406.247V402.618V401.893L429.219 401.575L421.375 398.31V394.819L434.932 391.281L443.184 389.195L443.773 389.014L443.954 388.469L445.859 382.846L468.031 376.452L484.217 373.141L484.58 373.05L484.806 372.823L493.149 363.708L493.421 363.435V362.982L493.648 352.416V352.37V352.28L493.059 345.84L493.013 345.568L492.878 345.341L491.698 343.527L492.242 340.353H495.824L498.68 341.259L500.086 341.849C500.494 342.438 501.492 343.935 502.308 345.023C503.305 346.338 504.348 346.656 506.117 347.201C506.616 347.336 507.205 347.518 507.885 347.744C509.2 348.198 510.288 348.425 511.103 348.516L511.285 349.65L511.33 349.877C512.01 351.6 512.601 352.734 513.098 353.504C505.074 369.694 493.739 392.505 493.739 392.505L493.375 393.231L495.326 394.819C495.416 396.451 495.507 399.761 495.054 401.122C494.328 403.254 494.01 417.493 493.966 419.081V419.852L510.288 425.612L511.92 447.017C510.242 447.833 508.611 448.151 508.428 447.788C508.157 447.379 508.202 446.925 508.202 446.428C508.247 445.883 508.293 445.157 507.704 444.659C507.114 444.114 506.343 444.16 505.709 444.25C503.487 444.568 499.36 445.429 498.59 445.61H494.646L490.473 446.291H482.947L480.908 433.457L470.796 432.686L462.273 434.409Z" fill="#3A8A5F"/>
<path fill-rule="evenodd" clip-rule="evenodd" d="M585.643 474.817L586.777 478.445L589.316 480.667L588.727 489.42C588.138 490.282 585.87 493.638 583.422 494.953C580.202 496.767 579.613 501.483 579.522 502.435L573.9 517.31L571.361 519.169C571.315 518.399 570.863 517.038 569.457 516.358C568.777 516.041 567.961 514.362 567.598 513.274L566.509 506.699L566.01 506.472C565.875 506.426 563.472 505.384 561.341 505.066L561.069 505.02L556.852 506.699C556.58 505.519 555.991 504.023 554.857 503.432C553.633 502.798 552.182 502.708 551.593 502.662C550.595 502.163 546.878 500.304 545.88 499.986C544.746 499.624 541.754 500.531 539.441 501.347L538.943 501.528L538.806 502.027C538.806 502.117 538.082 504.658 538.444 507.515C538.625 509.056 538.717 509.556 539.532 509.646C539.623 509.691 539.895 509.691 540.121 509.556C540.666 510.145 540.983 510.689 541.573 511.687L541.981 512.367C542.434 513.093 542.297 513.546 542.116 514.408C541.981 514.951 541.845 515.542 541.845 516.222C541.845 517.31 541.074 518.036 539.895 518.807C539.397 519.125 537.945 519.306 537.084 519.306H532.686C531.825 519.306 531.008 519.895 530.192 520.53C529.784 520.802 529.15 521.301 528.923 521.347C528.288 521.347 525.432 520.167 523.799 518.852C522.938 518.126 522.757 517.537 522.576 516.676C522.439 516.177 522.303 515.677 522.031 515.088C521.85 514.68 521.895 514.544 522.212 513.728C522.393 513.183 522.666 512.548 522.802 511.641C523.165 509.464 521.124 507.787 519.809 507.152L516.227 505.746C516.499 504.431 517.044 501.936 517.044 500.621C517.044 498.309 515.23 496.54 513.643 496.54C512.872 496.54 510.242 496.721 508.882 496.811C508.066 494.68 506.751 491.597 505.709 490.962C504.892 490.372 502.853 488.875 502.217 488.376L494.464 473.184L493.602 473.502C488.524 475.498 482.676 477.537 481.723 477.537C480.727 477.537 479.955 477.402 479.593 477.311L476.419 473.457C474.742 471.461 474.288 471.008 473.155 470.236C472.701 469.919 471.975 468.967 471.431 468.196C470.887 467.425 470.388 466.744 469.889 466.291C469.618 465.974 469.255 465.611 468.892 465.157C467.894 463.979 466.625 462.527 465.265 461.711C464.358 461.12 463.588 460.305 462.681 459.216C462.092 458.582 461.501 457.856 460.731 457.13C458.963 455.361 457.603 452.277 457.285 449.239C457.104 447.562 457.376 446.881 457.603 446.247C457.784 445.793 457.965 445.294 457.965 444.568C458.01 444.16 459.28 442.89 460.594 442.029L460.821 441.847L463.134 436.314L470.933 434.728L479.184 435.362L481.224 448.332H490.565L494.736 447.652H498.726L498.907 447.606C498.953 447.606 503.668 446.609 505.98 446.291C506.071 446.247 506.117 446.247 506.162 446.247C506.162 446.291 506.162 446.291 506.162 446.337C506.162 446.971 506.117 447.878 506.66 448.831C507.159 449.647 507.975 449.919 508.927 449.919C510.696 449.919 512.872 448.831 513.462 448.559L514.051 448.242L513.552 441.575L518.676 439.126L524.706 438.808C525.885 439.216 527.744 439.942 528.378 440.35C528.469 440.441 528.515 440.577 528.605 441.167C528.696 441.847 528.832 442.754 529.422 443.752C530.51 445.611 533.593 445.475 536.585 445.339C537.219 445.294 537.855 445.248 538.444 445.248C540.529 445.248 546.061 445.475 548.282 445.566V446.971L548.509 447.244C549.915 449.149 551.548 451.507 551.729 452.05C551.864 452.504 551.819 453.729 551.774 454.999C551.729 455.951 551.683 456.994 551.683 458.174C551.683 462.254 554.494 462.254 555.401 462.254C555.946 462.254 557.034 462.527 557.804 462.754C558.348 463.706 559.89 466.11 560.797 467.017C561.885 468.105 565.421 470.6 567.235 471.324C568.912 472.005 577.165 474.772 579.931 475.452C580.474 475.588 581.019 475.633 581.562 475.633C583.149 475.633 584.691 475.18 585.643 474.817Z" fill="#3A8A5F"/>
<path fill-rule="evenodd" clip-rule="evenodd" d="M585.916 471.732L585.507 472.685C584.419 473.184 582.153 473.91 580.429 473.501C577.709 472.776 569.638 470.1 568.005 469.465C566.42 468.831 563.154 466.517 562.247 465.61C561.477 464.84 559.89 462.3 559.346 461.393L559.164 461.076L558.802 460.939C558.575 460.849 556.58 460.213 555.401 460.213C554.45 460.213 553.724 460.213 553.724 458.173C553.724 457.039 553.769 455.997 553.814 455.089C553.859 453.411 553.951 452.231 553.678 451.415C553.316 450.373 551.23 447.516 550.323 446.291V443.615L549.326 443.571C549.008 443.571 541.165 443.207 538.444 443.207C537.855 443.207 537.175 443.253 536.495 443.298C534.681 443.388 531.644 443.525 531.144 442.708C530.781 442.073 530.691 441.484 530.645 440.939C530.51 440.169 530.419 439.262 529.512 438.627C528.378 437.901 525.522 436.948 525.16 436.813L524.978 436.767L518.359 437.131L513.371 439.397L512.237 424.16L496.006 418.4C496.142 412.368 496.504 403.117 496.958 401.756C497.683 399.625 497.411 394.819 497.365 394.274L497.321 393.82L495.915 392.686C497.91 388.696 507.523 369.332 514.686 354.91C514.822 354.956 514.912 354.956 515.004 354.956C515.819 354.956 516.182 354.502 516.364 354.23C516.681 353.731 516.635 353.141 516.499 352.733C517.134 351.826 518.676 349.694 519.628 348.47C519.809 348.743 519.99 349.151 520.127 349.467C520.398 350.012 520.625 350.556 520.943 351.055C521.895 352.642 523.165 357.586 523.165 358.221C522.983 358.901 520.671 361.803 518.676 364.116L518.54 364.252L514.051 378.402L522.258 380.533L522.847 384.297L524.615 387.698L521.17 391.145L524.026 395.272L524.117 395.408C525.749 396.995 530.011 401.349 530.827 402.391C531.688 403.525 532.414 403.798 533.003 403.979C533.321 404.07 533.547 404.161 533.82 404.342C534.363 404.705 535.678 405.385 537.219 406.155C538.671 406.881 540.167 407.607 540.983 408.106C541.209 408.242 541.527 408.423 541.89 408.65C543.976 409.829 547.83 412.052 549.145 413.956C550.414 415.724 553.27 417.04 555.764 418.173C556.898 418.718 557.941 419.217 558.575 419.625C559.029 419.897 559.391 420.169 559.799 420.396C561.205 421.303 562.338 422.029 563.88 423.571C565.149 424.84 567.734 426.609 570.227 428.332C571.814 429.42 573.31 430.464 574.127 431.099C575.895 432.595 577.165 434.682 577.936 436.224L578.207 436.767C581.517 443.298 582.243 445.566 582.243 446.291V455.134C582.243 457.991 583.285 463.569 583.603 464.884C583.875 465.791 584.148 469.51 584.283 471.823L585.916 471.732Z" fill="#3A8A5F"/>
<path fill-rule="evenodd" clip-rule="evenodd" d="M570.907 426.337C568.685 424.84 566.374 423.207 565.286 422.119C563.607 420.441 562.338 419.626 560.888 418.673C560.524 418.446 560.116 418.219 559.709 417.947C558.937 417.403 557.895 416.904 556.626 416.359C554.449 415.362 551.774 414.093 550.822 412.732C549.235 410.51 545.29 408.242 542.887 406.881C542.569 406.655 542.253 406.519 542.026 406.338C541.119 405.839 539.623 405.067 538.126 404.342C536.766 403.662 535.361 402.936 534.907 402.664C534.454 402.347 534.046 402.165 533.683 402.075C533.185 401.893 532.913 401.802 532.459 401.167C531.461 399.852 526.293 394.682 525.658 394.002L523.799 391.371L527.154 388.061L524.797 383.798L524.071 378.901L516.635 376.95L520.354 365.295C525.205 359.717 525.205 358.674 525.205 358.311C525.205 357.041 523.753 351.781 522.665 350.012C522.439 349.559 522.212 349.06 521.985 348.606C521.351 347.291 520.807 346.203 519.763 346.067C519.537 346.067 519.266 346.067 518.993 346.203L519.537 345.114C524.388 345.749 532.187 346.929 533.32 347.382C535.089 348.108 540.393 349.105 540.666 349.151L548.962 350.42C549.189 351.055 549.734 352.28 550.368 354.23C551.003 356.089 551.593 357.132 552.091 357.903C552.409 358.448 552.636 358.81 552.726 359.263C552.998 360.262 553.724 361.078 554.313 361.622C553.361 362.938 551.456 365.658 550.414 367.744C549.416 369.74 549.099 371.598 548.781 373.549C548.646 374.365 548.509 375.181 548.328 376.088C547.603 379.218 547.285 383.39 547.285 384.842C547.285 385.976 547.784 386.973 548.646 387.562C549.915 388.333 551.774 388.198 554.132 387.108C555.627 386.429 556.399 386.02 556.942 385.749C558.03 385.204 558.303 385.068 561.885 383.753C563.517 383.117 564.242 383.027 564.514 382.982C564.514 383.073 564.56 383.209 564.56 383.3C564.605 383.798 564.651 384.478 565.104 385.068C565.694 385.839 565.92 388.152 565.92 389.557V391.009L567.326 390.51C567.326 390.51 570.998 389.195 572.313 388.877C572.902 388.696 574.399 389.014 575.532 389.33L575.941 392.414L576.938 392.279C576.983 392.279 580.792 391.735 583.738 391.371L585.824 396.315L587.638 397.676L590.902 397.993C591.22 398.945 591.901 400.578 593.486 401.893C594.62 402.845 595.028 403.208 595.708 402.664L596.207 401.893C596.752 401.712 597.432 401.394 598.293 401.032C598.928 400.714 599.97 400.215 600.424 400.125C600.559 400.533 600.559 401.621 600.559 402.483C600.559 404.387 600.559 409.512 600.243 411.463C600.106 412.324 599.88 412.414 598.791 412.778C598.293 412.913 597.703 413.14 597.069 413.458C596.525 413.729 596.072 414.002 595.573 414.32C594.122 415.227 592.625 416.178 589.27 416.405C587.638 416.542 585.916 416.813 585.598 418.128C585.552 418.31 585.507 418.492 585.552 418.673C583.058 418.991 578.479 419.58 576.983 419.807C574.444 420.215 573.22 422.618 573.22 422.664L570.907 426.337Z" fill="#3A8A5F"/>
<path fill-rule="evenodd" clip-rule="evenodd" d="M633.34 284.662L627.401 288.608L622.55 292.825L616.611 293.143C615.023 293.006 612.213 293.052 611.351 294.277C610.988 294.731 610.943 295.32 611.17 295.863C611.624 297.043 612.802 298.041 613.89 298.993C614.616 299.627 615.387 300.263 615.614 300.717C616.066 301.668 617.018 302.213 617.79 302.621C618.061 302.757 618.424 302.983 618.56 303.12V308.743C618.56 309.56 617.609 312.417 616.928 314.14L616.837 314.457L618.56 322.757L618.832 325.568L614.661 326.339C613.619 325.886 611.533 325.614 609.945 327.836C608.404 329.967 604.913 331.554 604.822 331.645L602.011 333.187H600.243C599.654 333.187 598.429 333.052 597.114 332.053C596.887 331.872 596.661 331.691 596.388 331.464C595.165 330.512 593.896 329.469 592.716 329.741C592.172 329.831 591.764 330.194 591.492 330.693C591.265 331.192 590.449 332.235 589.723 333.187C587.774 335.636 587.004 336.77 587.004 337.632C587.004 338.674 587.32 342.439 587.684 345.205C587.865 346.837 588.5 347.971 589.043 348.833C589.407 349.513 589.723 350.012 589.723 350.511V351.101C589.723 351.917 589.769 353.958 589.315 354.321C589.27 354.366 589.134 354.366 588.953 354.276C586.596 353.641 584.782 353.005 582.968 351.146C581.064 349.241 580.066 347.654 580.066 347.609L579.84 347.245L579.386 347.155C579.251 347.11 575.941 346.384 573.22 347.926C570.998 349.196 567.1 350.193 567.054 350.193L566.827 350.239L562.157 353.868L555.673 360.081C555.265 359.717 554.812 359.218 554.721 358.764C554.539 358.04 554.177 357.495 553.815 356.86C553.406 356.134 552.862 355.227 552.318 353.595C551.275 350.511 550.595 349.105 550.549 349.06L550.323 348.562L540.982 347.155C539.532 346.883 535.361 346.021 534.046 345.477C532.505 344.888 523.618 343.618 520.489 343.21L522.393 339.446C524.479 335.183 524.706 334.865 525.024 334.457C525.205 334.14 525.432 333.822 526.066 332.688C527.019 330.965 527.88 330.058 528.605 329.242C529.149 328.652 529.693 328.063 530.146 327.292C530.329 326.974 530.555 326.656 530.736 326.294C531.733 324.752 533.139 322.665 534.001 319.174C534.635 316.635 535.27 315.364 535.996 313.868C536.403 313.006 536.857 312.054 537.356 310.83C537.855 309.56 538.535 308.018 539.214 306.521C540.847 302.893 541.482 301.396 541.482 300.58C541.482 300.218 541.799 296.997 542.072 293.868C542.57 288.472 543.204 281.714 543.204 280.218C543.204 277.814 542.842 275.139 542.842 275.003L541.209 269.742L547.83 270.06L548.101 269.924C549.189 269.288 551.321 268.336 552.363 268.336C552.681 268.336 552.726 268.336 553.044 269.017C553.27 269.515 553.543 270.105 554.177 270.559C555.356 271.329 558.937 270.967 560.978 270.694L561.795 270.603L561.839 269.787C561.839 269.787 562.203 266.477 562.519 265.207C562.611 264.754 564.152 263.755 565.648 263.166L566.147 262.985L566.917 259.402L567.643 246.749C567.643 246.703 568.323 241.761 569.592 238.859C570.863 236.002 570.273 231.194 570.046 229.834L572.268 226.024L577.572 216.137L576.122 212.146L576.394 207.385C577.663 208.201 578.797 208.927 579.704 209.471C584.645 212.373 586.324 213.507 586.64 213.734L595.074 222.85L595.255 222.985C598.701 225.344 603.87 229.063 604.505 229.879C604.867 230.378 606.409 231.874 609.583 235.049C614.707 240.082 624.228 249.516 625.089 251.42C625.678 252.781 625.77 255.411 625.86 257.951C625.951 260.808 626.041 263.484 626.812 265.07C628.262 267.973 632.843 278.857 632.843 281.941C632.843 282.486 633.024 283.438 633.34 284.662Z" fill="#3A8A5F"/>
<path fill-rule="evenodd" clip-rule="evenodd" d="M668.842 437.266L668.072 438.128C666.531 439.806 664.353 441.711 663.537 441.892C662.994 441.983 662.042 442.164 661.453 442.663L658.459 443.298L658.233 443.525C658.233 443.525 656.964 444.794 655.376 445.747C654.47 446.291 653.97 446.881 653.744 447.425L652.067 446.971H650.48L644.994 449.012L645.039 449.738C645.175 451.597 645.175 453.819 644.948 454.908C644.676 454.817 644.405 454.772 644.041 454.772C642.681 454.772 641.004 454.953 638.872 455.225L636.787 455.452C633.432 455.814 632.435 459.534 631.981 461.12C631.936 461.303 631.89 461.484 631.845 461.574C631.618 462.254 631.528 463.298 631.437 464.476C631.391 465.202 631.301 465.928 631.21 466.654C630.893 466.609 630.575 466.609 630.257 466.699C629.125 466.88 625.044 466.563 622.822 466.336C622.414 466.245 621.189 465.928 620.465 465.475C619.24 464.659 616.519 464.884 615.614 464.975L608.631 466.472L608.449 466.971C607.905 468.286 607.043 469.601 606.681 469.692C604.867 469.692 603.326 471.597 603.235 471.733L601.512 473.456H596.842C595.028 473.456 589.361 471.551 587.32 470.781L586.414 470.463L586.232 470.826C586.142 469.148 585.87 465.52 585.598 464.386C585.235 463.026 584.283 457.72 584.283 455.135V446.291C584.283 444.84 583.014 441.711 580.021 435.816L579.748 435.316C578.887 433.639 577.482 431.234 575.396 429.557C574.762 429.012 573.719 428.287 572.585 427.47L574.988 423.662C574.988 423.616 575.804 422.074 577.301 421.802C579.296 421.484 587.366 420.487 587.457 420.487L590.222 420.125L587.955 418.627C588.227 418.583 588.726 418.491 589.452 418.446C593.305 418.173 595.165 416.995 596.661 416.042C597.069 415.77 597.522 415.498 597.976 415.271C598.52 415 598.974 414.863 599.427 414.682C600.651 414.274 601.92 413.866 602.238 411.825C602.6 409.694 602.6 404.615 602.6 402.482C602.6 400.306 602.6 398.084 600.56 398.084C599.881 398.084 598.928 398.492 597.432 399.172C596.706 399.49 595.481 400.079 595.119 400.079C594.938 400.079 594.757 400.125 594.62 400.17C593.033 398.81 592.762 396.904 592.762 396.904L592.625 396.088L588.364 395.726L587.502 395.045L586.187 391.962C586.958 391.327 587.23 390.737 587.004 390.102C586.64 389.014 585.19 389.149 584.51 389.24C582.334 389.467 579.251 389.875 577.663 390.102L577.391 387.79L576.802 387.607C576.212 387.381 573.356 386.519 571.814 386.883C570.907 387.109 569.139 387.699 567.915 388.152C567.824 386.791 567.507 384.887 566.736 383.889C566.646 383.708 566.6 383.435 566.6 383.118C566.555 382.574 566.464 381.758 565.694 381.259C564.878 380.76 563.653 380.896 561.159 381.803C557.487 383.208 557.169 383.345 556.037 383.934C555.492 384.207 554.721 384.569 553.27 385.25C550.957 386.338 550.052 386.021 549.734 385.839C549.326 385.567 549.28 385.023 549.28 384.842C549.28 383.481 549.643 379.49 550.278 376.542C550.505 375.59 550.641 374.728 550.776 373.866C551.094 372.007 551.366 370.374 552.228 368.651C553.451 366.202 556.127 362.619 556.534 362.076L563.517 355.409L567.734 352.143C568.641 351.916 572.086 350.965 574.262 349.694C575.804 348.833 577.753 348.969 578.57 349.059C579.024 349.74 579.975 351.055 581.517 352.597C583.694 354.774 585.824 355.499 588.408 356.271C589.452 356.543 590.132 356.225 590.54 355.953C591.809 354.956 591.764 352.733 591.764 351.1L591.718 350.511C591.718 349.423 591.265 348.606 590.813 347.79C590.313 347.02 589.86 346.202 589.679 344.979C589.315 342.076 589.043 338.493 588.999 337.723C589.134 337.224 590.495 335.455 591.31 334.411C592.172 333.368 592.897 332.416 593.26 331.781C593.713 331.963 594.62 332.688 595.119 333.052C595.392 333.278 595.664 333.505 595.891 333.686C597.703 335.047 599.381 335.228 600.243 335.228H602.51L605.729 333.46C605.91 333.368 609.764 331.6 611.578 329.061C612.621 327.609 613.619 328.108 613.935 328.289L614.253 328.516L621.008 327.246L620.555 322.484L618.923 314.594C619.377 313.414 620.6 310.104 620.6 308.743V302.983C620.6 301.849 619.604 301.306 618.787 300.852C618.243 300.534 617.653 300.218 617.426 299.81C617.018 298.992 616.157 298.268 615.25 297.451C614.434 296.77 613.573 296.046 613.165 295.365C613.8 295.184 615.205 295.093 616.565 295.184L623.367 294.82L628.626 290.24L633.931 286.703C635.109 290.422 637.014 295.682 639.19 301.533C640.369 304.708 641.547 308.018 641.638 308.426C641.638 309.469 644.405 336.951 644.721 340.081V340.307L644.813 340.489C645.583 341.895 652.475 354.321 655.603 356.77C657.28 358.039 658.368 361.894 659.185 364.66C659.774 366.747 660.228 368.333 660.862 369.15C661.95 370.511 666.304 385.295 667.482 391.145C668.299 395.181 668.208 399.761 668.162 403.117C668.162 403.843 668.116 404.569 668.116 405.204C668.116 406.7 667.754 409.603 667.392 412.414C666.893 416.45 666.575 418.991 666.802 419.988C667.028 421.122 668.072 430.554 668.842 437.266Z" fill="#3A8A5F"/>
<path fill-rule="evenodd" clip-rule="evenodd" d="M646.535 196.547L646.398 196.637L646.444 196.682L644.222 200.81C643.995 200.991 643.452 201.399 642.817 201.445C641.457 200.719 635.064 194.37 629.487 188.519L628.081 187.023L627.764 189.064C627.719 189.064 627.447 190.877 626.585 192.011C625.814 193.009 623.502 194.914 622.641 195.594L619.648 198.179L619.602 198.588C619.421 199.72 618.878 202.85 618.379 204.256C616.475 205.48 601.285 209.063 587.547 211.92C586.821 211.422 584.963 210.197 580.701 207.702C575.442 204.574 561.386 194.188 559.346 192.646C558.937 191.603 557.396 188.519 553.179 187.885C548.192 187.113 540.031 184.029 539.351 182.669L539.033 181.988C538.126 180.175 537.175 178.089 534.092 176.728C531.371 175.504 526.339 174.325 524.207 173.825L523.391 173.644C522.983 173.509 521.895 173.055 520.807 172.602C518.766 171.74 516.181 170.652 514.232 170.244C513.098 169.971 512.056 170.017 511.149 170.017C509.245 170.061 508.428 170.061 507.793 168.475C506.433 165.028 504.394 161.944 504.303 161.808L492.832 153.736L478.322 149.064V144.892C478.776 143.577 479.909 140.04 480.046 138.77C480.227 138.588 480.771 138.226 481.179 137.954C482.268 137.228 483.809 136.23 484.671 134.688C485.713 132.874 486.982 131.695 487.346 131.332C488.116 131.06 490.837 129.927 491.789 129.292C492.967 128.475 493.739 127.342 493.829 127.251C494.192 126.616 495.326 124.53 495.326 123.351V118.634L492.469 113.646L492.243 113.374C492.197 113.374 490.61 112.059 489.703 110.834C489.114 110.063 488.524 109.201 488.162 108.612L489.25 107.705C490.474 107.705 494.463 107.569 498.272 106.662C498.952 106.526 499.451 106.39 499.859 106.299C501.038 106.299 503.532 106.571 505.798 106.934C506.116 107.705 506.66 109.111 506.887 110.018C507.113 110.925 507.704 112.149 508.384 113.555C508.837 114.417 509.245 115.369 509.653 116.276C510.832 118.997 513.824 120.176 513.96 120.222L521.124 120.267V118.68C521.713 118.861 522.393 118.906 523.164 118.906C525.522 118.906 527.924 117.909 529.285 118.906C530.645 119.95 530.283 121.99 530.963 122.988C531.643 124.031 534.363 123.351 536.721 125.029C539.124 126.752 553.043 132.829 553.043 132.829C553.043 132.829 559.164 132.511 560.162 132.149C561.204 131.831 562.519 131.469 562.519 131.469V126.072L566.6 119.95C566.6 119.95 569.683 116.548 570.68 114.145C571.724 111.786 572.404 106.707 573.401 104.984C574.444 103.306 574.761 102.943 576.439 101.583C578.162 100.222 578.162 98.2266 577.482 95.8231C576.802 93.4648 576.122 91.424 576.122 89.3832C576.122 87.3425 573.763 86.9797 576.802 85.982C579.839 84.9843 579.839 83.6237 582.56 83.6237C585.28 83.6237 591.718 84.304 593.442 83.6237C595.119 82.9435 600.559 81.9004 601.603 81.583C602.6 81.2202 602.283 83.261 602.963 84.6214C603.644 85.982 604.323 88.703 604.323 88.703L608.358 90.7438C608.358 90.7438 608.041 88.3403 610.399 89.3832C612.802 90.3809 619.558 93.1021 619.558 93.1021L621.597 99.2243C621.597 99.2243 624.681 106.344 625.36 107.705C626.041 109.065 627.039 111.786 627.039 111.786L644.041 112.829C644.041 112.829 646.716 111.469 648.077 111.106C649.437 110.789 650.117 108.068 653.88 108.068C657.598 108.068 661.678 108.068 661.678 108.068L650.479 125.029H654.197V129.11L655.557 131.151C655.557 131.151 657.28 131.469 658.64 132.149C660.001 132.829 663.718 134.19 663.718 134.19C663.718 134.19 664.399 134.19 665.079 135.233C665.759 136.23 669.477 137.273 669.477 137.273C669.477 140.993 668.797 144.393 668.797 144.393C668.797 144.393 666.439 142.352 665.079 142.035C663.718 141.672 638.237 148.475 638.237 148.475L639.281 152.556C639.281 152.556 642.681 153.554 643.679 153.554C644.721 153.554 646.082 153.236 646.082 153.236C646.082 153.236 649.437 150.516 647.759 154.597C646.082 158.633 647.759 157.635 646.082 158.634C644.359 159.676 642.999 159.994 642.999 159.994L644.041 162.398C644.041 162.398 645.719 163.758 646.082 164.755C646.398 165.799 647.442 168.157 647.442 168.157C647.442 168.157 647.759 168.837 649.437 168.837C651.16 168.837 652.837 168.157 653.517 169.518C654.197 170.878 654.197 175.277 654.197 175.277L649.119 177.318V194.052L646.535 196.547Z" fill="#3A8A5F"/>
<path fill-rule="evenodd" clip-rule="evenodd" d="M790.718 316.589L797.156 319.945L791.715 355.272L853.514 392.278L859.952 392.959C859.952 392.959 858.955 396.723 859.272 397.721C859.635 398.718 860.95 403.481 860.95 403.481L863.353 406.564C863.353 406.564 864.033 408.242 864.033 409.965C864.033 411.643 863.353 415.362 863.353 415.362L862.673 419.126L842.995 428.287L846.033 455.135L869.111 467.016C869.111 467.016 826.355 494.861 821.912 509.782C819.871 516.765 815.382 534.861 811.166 552.139L804.41 543.341L794.798 544.475L794.617 544.566C794.571 544.566 792.259 545.881 790.672 546.516C789.857 546.834 789.674 546.878 789.63 546.878V547.785L788.995 547.06L783.327 552.411L781.196 553.455L776.98 558.715L776.843 559.032C776.662 559.485 776.118 560.756 775.302 561.164C774.213 561.707 773.851 562.343 773.579 562.887C773.443 563.159 773.307 563.432 772.99 563.748C772.218 564.52 771.811 565.698 771.448 566.787C771.267 567.377 771.04 568.012 770.814 568.33C770.269 569.146 769.951 570.415 769.635 571.549C769.543 571.911 769.499 572.229 769.408 572.502C768.636 573.136 764.284 574.315 760.159 574.315C758.572 574.315 757.937 574.089 757.71 573.952L757.891 573.68L753.267 563.068C749.05 552.456 744.516 540.438 744.516 538.987C744.516 538.08 744.652 537.083 744.742 535.904C744.969 534.089 745.196 531.867 745.196 528.783C745.196 523.977 743.972 522.435 742.294 520.303C742.067 519.986 741.84 519.713 741.614 519.351C739.483 516.538 734.632 513.047 733.09 512.276C731.821 511.641 727.241 507.968 726.697 507.196C726.29 506.561 724.929 505.791 720.168 503.251C717.765 501.981 714.183 500.077 713.503 499.441C713.276 498.898 712.868 498.308 712.279 497.491C711.553 496.449 710.556 495.042 709.423 493.003C707.428 489.328 704.662 490.19 703.301 490.598C703.12 490.689 702.848 490.78 702.758 490.78C702.032 490.735 698.405 489.283 696.001 488.331L694.642 487.787C692.465 486.925 691.785 484.522 691.106 482.208C690.923 481.528 690.697 480.848 690.47 480.213C689.427 477.401 686.299 476.449 685.483 476.222C684.848 475.86 682.128 474.137 680.722 472.73C679.317 471.324 678.999 469.239 678.999 469.239L678.954 468.875L678.682 468.649C678.138 468.105 676.596 466.517 676.097 465.747C675.87 465.383 675.599 463.479 675.417 462.254C675.1 460.032 674.874 458.627 674.42 457.946C674.012 457.312 673.06 454.545 672.515 452.867L670.112 440.169L671.2 440.077C671.11 439.307 669.115 421.303 668.798 419.58C668.662 418.854 669.07 415.453 669.432 412.686C669.796 409.829 670.158 406.837 670.158 405.204C670.158 404.569 670.158 403.889 670.203 403.117C670.249 399.716 670.339 395 669.478 390.736C668.481 385.884 664.083 369.875 662.496 367.88C662.088 367.382 661.589 365.657 661.135 364.116C660.183 360.851 659.049 356.814 656.873 355.137C654.562 353.322 648.848 343.526 646.717 339.672C645.492 327.519 643.724 309.287 643.68 308.426C643.68 307.972 643.362 307.065 641.458 301.849C642.908 302.167 645.266 302.621 646.083 302.621C647.171 302.621 649.936 301.759 650.48 301.578L650.798 301.351C650.798 301.351 653.518 298.992 655.558 297.315C656.738 296.317 657.645 296.997 657.826 297.134C657.826 297.179 659.775 299.764 660.364 301.624C660.682 302.575 661.317 302.939 661.725 303.074C663.085 303.528 664.535 302.485 665.579 301.714L665.987 301.441C666.486 301.079 668.798 300.534 670.657 300.263L675.962 299.583H680.904L688.521 300.58C688.521 300.58 691.83 300.625 693.372 300.898C694.687 301.17 696.001 301.26 696.592 301.26L701.352 305.342L752.179 304.662L782.919 314.14L782.965 313.959C785.232 314.685 788.677 315.863 790.718 316.589Z" fill="#3A8A5F"/>
<path fill-rule="evenodd" clip-rule="evenodd" d="M650.615 195.729L655.241 196.002L713.275 150.152L709.558 161.355L721.754 163.078L722.797 220.446L728.555 217.044L730.959 219.085L749.956 230.286L750.953 237.09C750.953 237.09 752.677 253.053 752.677 254.776C752.677 256.454 753.357 277.179 753.357 277.179L785.276 282.939L784.913 312.462C784.414 312.417 783.916 312.371 783.463 312.326L783.507 312.19L752.495 302.621L702.122 303.301L697.361 299.219H696.999C696.953 299.219 695.366 299.219 693.78 298.902C692.012 298.584 688.656 298.584 688.656 298.584L681.039 297.542H675.825L670.338 298.222C669.614 298.358 665.986 298.992 664.852 299.764C664.717 299.854 664.58 299.945 664.399 300.081C663.991 300.353 662.767 301.215 662.404 301.169C662.404 301.169 662.358 301.125 662.314 300.943C661.588 298.766 659.548 296.045 659.366 295.819C658.551 295.002 656.419 293.913 654.243 295.727C652.475 297.224 650.207 299.174 649.618 299.673C648.393 300.081 646.625 300.58 646.082 300.58C645.493 300.58 643.225 300.126 641.457 299.764L636.833 282.304L635.109 283.483C634.973 282.758 634.838 282.259 634.838 281.941C634.838 278.222 629.895 266.703 628.626 264.164C628.081 262.985 627.991 260.4 627.9 257.906C627.809 255.003 627.719 252.327 626.948 250.604C626.041 248.518 618.878 241.353 611.033 233.598C608.631 231.239 606.409 229.062 606.137 228.654C605.094 227.294 598.111 222.487 596.48 221.399L589.315 213.598C619.331 207.385 619.966 205.798 620.193 205.208C620.782 203.711 621.371 200.356 621.553 199.267L623.956 197.136C624.273 196.909 627.129 194.641 628.218 193.236C628.672 192.601 628.988 191.875 629.261 191.24C640.958 203.484 642.182 203.484 642.681 203.484C644.403 203.484 645.628 202.306 645.764 202.169L647.94 198.224L647.986 198.269L650.615 195.729Z" fill="#3A8A5F"/>
</svg>
