<svg width="612" height="674" viewBox="0 0 612 674" fill="none" xmlns="http://www.w3.org/2000/svg">
<path id="a187110" class="rajabasa" fill-rule="evenodd" clip-rule="evenodd" d="M133.137 149.94L134.914 150.431L136.048 147.635L136.615 145.934C136.615 145.934 137.748 146.501 138.882 145.934C139.978 145.367 141.112 142.797 141.112 142.797C141.112 142.797 147.651 139.698 149.616 138.564C151.619 137.43 157.553 135.729 157.553 135.729L159.254 135.162L165.452 131.496L170.29 123.294C170.29 123.294 170.857 121.291 172.255 120.724C173.692 120.157 181.591 116.756 183.594 116.491C185.559 116.189 187.563 115.357 188.961 115.093C190.359 114.791 191.493 114.526 191.493 114.526C191.493 114.526 192.627 113.354 192.627 112.258C192.627 111.124 191.493 110.255 193.496 109.121C195.462 107.987 197.73 106.854 198.599 106.022C199.43 105.153 199.43 104.586 200.829 102.885C202.265 101.222 201.963 101.222 204.533 98.6519C207.065 96.1197 208.766 94.4189 209.635 93.285C210.467 92.1512 209.9 93.285 211.033 90.1858C212.167 87.0488 212.432 84.7811 212.432 84.7811L209.635 86.7842C209.635 86.7842 208.199 87.0488 207.065 86.4819C205.931 85.9149 205.667 81.3795 205.667 81.3795L207.934 77.1464C210.202 77.1464 210.202 77.1464 210.202 77.1464L212.999 76.5795L213.868 73.7449L214.435 72.3464C214.435 72.3464 219.235 72.9134 220.104 72.3464C220.936 71.7795 221.238 70.6456 221.238 70.6456C221.238 70.6456 222.07 68.9449 222.939 69.5118C223.77 70.0787 222.07 71.2126 223.77 70.0787C225.471 68.9449 227.739 66.1102 227.739 66.1102C227.739 66.1102 230.271 66.1102 228.306 64.7118C226.303 63.2756 226.87 65.5433 226.303 63.2756C225.736 61.0078 226.303 60.1764 227.172 60.1764C228.004 60.1764 230.271 60.1764 230.271 60.1764C230.271 60.1764 230.574 58.4756 231.141 57.3417C231.707 56.2078 231.707 56.2078 231.707 56.2078L232.539 54.5071C232.539 54.5071 235.071 54.2425 235.941 53.6756C236.772 53.1086 235.638 55.3764 236.772 53.1086C237.906 50.8409 239.04 48.2708 239.607 47.137C240.174 46.0031 240.476 45.7386 241.307 44.6047C242.177 43.4708 242.441 43.2063 244.142 42.9039C245.843 42.6393 247.241 42.337 247.241 42.337L249.509 33.0016C249.509 33.0016 250.378 28.4661 250.378 27.3323C250.378 26.1984 248.678 24.4976 248.678 23.0992C248.678 21.663 249.509 19.433 249.509 19.433L252.079 18.5638C252.079 18.5638 253.78 18.2992 255.481 16.0315C257.181 13.7638 257.748 11.7606 257.748 11.7606C257.748 11.7606 258.013 8.39683 261.415 6.69604C264.816 4.99525 265.95 4.42832 266.781 4.42832C267.651 4.42832 273.585 2.16061 273.585 2.16061L275.852 1.02675C275.852 1.02675 277.818 0.45982 280.085 1.02675C282.353 1.59368 280.955 2.42517 284.318 2.72754C287.72 2.9921 290.857 3.29447 290.857 3.29447L295.09 4.42832L299.89 6.39368L301.326 67.5086C301.326 67.5086 300.192 69.5118 299.626 70.6456C299.059 71.7795 298.756 73.4803 298.756 73.4803C298.756 73.4803 302.158 73.7449 299.626 74.8787C297.055 76.0126 295.355 75.748 294.788 76.5795C294.221 77.4488 293.389 79.1118 293.389 80.8126C293.389 81.6063 293.692 82.1732 294.221 82.5134H289.61C289.156 82.3244 287.682 81.5685 287.078 80.2079C286.737 79.4142 286.359 78.6204 286.019 77.9023C285.49 76.8441 285.037 75.8614 284.885 75.2567C284.583 74.0472 283.752 72.0819 283.714 72.0063L283.525 71.5905L283.033 71.5149C281.597 71.2504 279.33 70.948 277.818 70.8724C277.667 70.8346 277.44 70.7968 277.175 70.8724C277.137 70.8724 277.137 70.8724 277.137 70.8724C276.835 70.8724 276.57 70.9102 276.419 70.9858C276.268 71.0236 276.192 71.0614 276.079 71.137C275.966 71.1748 275.815 71.1748 275.663 71.2126C272.111 72.0441 268.255 72.0441 268.218 72.0441H267.878L265.383 74.1228L265.761 74.7653C265.799 74.8031 266.668 76.2393 267.537 77.3732C268.293 78.3937 269.427 79.3764 269.805 79.6787L271.884 83.3071V86.7842C271.884 87.1244 271.355 88.3338 270.901 89.1275C270.901 89.1275 270.41 89.8456 269.73 90.2992C269.087 90.7527 266.97 91.622 266.177 91.9244L265.988 92.0378C265.912 92.1134 264.4 93.3228 263.229 95.4016C262.7 96.3086 261.679 96.989 260.848 97.5559C259.903 98.1606 259.147 98.6519 259.147 99.5212C259.147 99.9748 258.429 102.356 257.786 104.321L257.748 107.836L255.33 107.458L248.375 107.42L243.311 108.592L237.944 110.293L227.285 115.773L228.344 116.605C228.381 116.642 232.01 119.402 233.37 120.762C234.089 121.518 235.185 122.387 236.243 123.219C237.263 124.05 238.359 124.92 239.002 125.562C240.287 126.847 242.63 128.321 243.273 128.737L244.709 130.891V134.331C244.709 134.746 244.633 134.898 244.18 135.767C244.029 136.031 243.878 136.372 243.651 136.787C243.235 137.657 242.706 138.337 242.215 139.017C241.799 139.622 241.421 140.151 241.118 140.718C241.081 140.794 240.892 140.831 240.627 140.907C240.211 140.983 239.607 141.058 239.304 141.663C238.964 142.23 239.191 142.91 239.418 143.439C239.871 144.535 240.589 145.027 241.081 145.367C241.61 145.745 241.685 145.783 241.61 146.35C241.496 147.219 241.194 147.899 240.93 148.504C240.589 149.26 240.249 149.978 240.514 150.734C240.816 151.679 243.311 153.682 244.747 154.778C245.276 155.194 246.032 155.987 246.183 156.365C246.41 157.046 246.826 158.746 246.977 159.276C246.901 159.805 246.788 161.392 247.279 163.395C247.846 165.625 248.413 168.422 248.413 168.46L248.489 168.913L248.98 169.102C250.454 169.594 251.928 170.387 252.079 170.765C252.306 171.521 253.326 172.731 255.065 174.583C255.783 175.376 256.804 176.472 256.917 176.737C257.106 177.304 257.144 178.022 257.181 178.362L256.69 180.479C256.085 180.857 255.141 181.31 254.611 181.31C253.402 181.31 252.041 181.31 250.416 182.633C249.018 183.729 247.052 185.128 247.052 185.128L246.523 185.505L246.75 186.148C246.75 186.148 247.241 187.433 247.241 188.945C247.241 189.965 247.166 191.137 247.052 191.855L236.318 192.876L233.635 189.474C233.559 188.794 233.181 187.32 231.518 186.488L228.495 184.976H228.306C228.268 184.976 226.794 184.976 225.622 184.258C224.073 183.313 218.668 184.523 216.892 184.976H214.133C213.301 184.976 200.035 185.997 198.599 186.11H186.278C185.748 185.921 184.01 185.279 183.292 185.014C182.649 184.787 180.268 183.842 179.096 183.351L178.303 183.011L176.111 188.642L174.032 189.89L158.952 178.249L156.155 180.479L151.808 176.888C151.695 176.397 151.317 175.679 150.296 175.15C150.032 175.036 149.767 174.772 149.465 174.469C148.709 173.713 147.537 172.617 145.723 173.109C144.174 173.562 142.964 174.431 142.359 174.923L136.274 172.504C136.199 171.219 136.123 169.405 136.312 168.762C136.501 168.006 137.9 164.718 138.807 162.677L138.844 162.45C138.996 161.468 139.411 158.142 138.769 156.857C138.278 155.836 137.975 154.778 137.975 154.778L137.824 154.06L130.718 154.702L128.715 154.211L130.832 152.283L130.87 152.321L131.55 151.603L131.815 151.339H131.777L133.137 149.94Z" fill="#11BBAA" fill-opacity="0.6"/>
<path id="a187113" class="kemiling" fill-rule="evenodd" clip-rule="evenodd" d="M38.4602 363.257C39.783 363.257 41.7862 363.181 42.3531 362.992C43.2224 362.728 45.4523 360.724 45.4523 360.724C45.4523 360.724 48.5893 359.893 47.1531 358.457C45.7547 357.058 45.4523 356.189 44.6208 355.924C43.7893 355.622 42.0885 355.055 40.6523 355.055C39.2539 355.055 37.5531 355.924 37.8177 354.224C38.12 352.523 39.5185 350.255 39.8208 349.424C40.0854 348.554 41.2193 347.42 40.9547 346.287C40.6523 345.153 41.2193 344.586 40.0854 344.019C38.9515 343.452 36.9862 342.62 36.9862 342.62C36.9862 342.62 33.5846 341.751 32.4508 342.885C31.3169 344.019 27.6508 345.153 27.6508 345.153H24.5137C24.5137 345.153 11.7767 340.92 11.2098 338.085C10.6429 335.25 13.4775 333.55 13.4775 333.55C13.4775 333.55 16.0476 332.151 18.5799 332.151C21.15 332.151 26.7815 333.55 26.7815 331.584C26.7815 329.581 26.7815 327.049 26.7815 327.049L6.14524 316.277L0.173588 281.468C0.173588 281.468 -0.090979 280.069 1.60981 278.104C3.3106 276.101 4.70902 274.4 6.97674 272.435C9.24445 270.432 16.6145 263.099 17.1815 261.965C17.7484 260.832 21.15 254.028 21.15 254.028C21.15 254.028 28.2177 252.328 28.4823 251.496C28.7846 250.627 30.75 248.094 32.4508 246.961C34.1515 245.827 36.9862 242.425 36.9862 242.425C36.9862 242.425 38.3846 242.161 38.687 240.46C38.9515 238.759 38.9515 236.756 38.9515 236.756L39.5185 233.354L41.5216 233.921L42.92 231.691L41.7862 228.857C41.7862 228.857 40.0854 226.589 41.7862 226.022C43.487 225.455 42.92 223.452 44.6208 224.586C46.3216 225.72 44.6208 224.586 46.3216 225.72C48.0224 226.854 49.1563 225.72 49.1563 225.72L52.2555 226.287C52.2555 226.287 52.8224 228.29 54.2586 227.987C55.6571 227.723 56.5263 227.42 57.0555 226.589C57.6224 225.72 57.6224 223.754 57.6224 222.054C57.6224 220.353 57.6224 218.652 57.0555 217.518C56.5263 216.384 55.3925 215.25 55.3925 214.117C55.3925 212.983 56.5263 212.151 56.7909 211.017C57.0555 209.883 56.7909 209.581 58.1893 207.918C59.6256 206.217 60.7594 205.915 60.7594 205.915L61.8933 203.383L66.4287 203.95C66.4287 203.95 69.7925 205.915 70.3594 206.784C70.9263 207.616 73.4964 207.049 73.761 207.918C74.0634 208.75 74.6303 211.584 74.6303 211.584C74.6303 211.584 75.7641 212.416 75.7641 213.55C75.7641 214.683 75.7641 215.817 75.7641 215.817L75.4618 217.82L76.3311 221.222L88.5011 212.416L102.07 218.954C102.07 218.954 104.602 216.12 104.602 215.25C104.602 214.419 104.337 213.852 102.372 211.584C100.369 209.317 98.9704 207.616 98.6681 206.482C98.4035 205.348 98.6681 204.781 98.1011 203.95C97.5342 203.08 95.5689 201.115 95.8334 198.28C96.1358 195.446 96.9673 192.611 96.9673 191.213C96.9673 189.776 96.7027 187.811 97.8366 185.543C98.9704 183.276 100.369 182.142 100.369 179.874C100.369 177.606 100.369 176.775 100.369 175.339C100.369 173.94 101.503 171.408 102.372 170.274C103.204 169.14 104.337 167.439 104.337 165.739C104.337 164.038 104.073 160.939 104.073 159.805C104.073 158.671 105.736 154.4 106.605 153.569C107.437 152.699 111.405 150.998 112.539 150.734C113.673 150.432 118.473 149.033 119.607 149.033C120.514 149.033 127.997 149.411 130.907 149.524L129.509 150.998L129.585 151.074L125.238 155.156L130.605 156.403L136.539 155.874C136.69 156.328 136.955 156.97 137.257 157.613C137.522 158.142 137.446 160.334 137.181 162.11C136.804 162.98 134.914 167.25 134.649 168.346C134.347 169.594 134.611 172.806 134.611 173.146L134.649 173.676L142.737 176.926L143.153 176.51C143.153 176.51 144.438 175.263 146.177 174.772C147.008 174.507 147.5 174.923 148.293 175.679C148.671 176.057 149.049 176.435 149.541 176.661C150.145 176.964 150.183 177.342 150.183 177.342V177.72L153.055 180.139L154.152 183.956V186.035L153.282 191.175L153.887 195.257L154.416 200.85L153.811 209.241L156.986 209.543V212.718L156.948 213.965L158.082 213.512C158.082 213.512 158.385 213.739 158.385 214.986C158.385 217.14 156.759 217.82 156.684 217.858L154.983 218.501L161.106 221.94L161.257 222.016C161.937 222.243 162.769 222.696 162.807 222.923C162.807 222.923 162.769 223.074 162.429 223.339C160.274 224.964 157.78 229.197 156.608 231.2L156.268 231.805C155.361 233.279 153.963 237.474 153.925 237.625L153.811 237.965L153.963 238.268C153.963 238.306 155.059 240.498 155.626 242.123C156.192 243.861 157.591 246.658 157.666 246.847C157.742 246.923 159.103 249.153 159.972 250.287C160.539 251.043 161.106 252.668 161.522 254.784C161.635 255.427 162.013 256.372 162.391 257.354C162.882 258.602 163.487 260.151 163.487 260.832C163.487 261.209 163.525 261.663 163.563 262.192C163.676 263.553 163.827 265.443 163.26 266.728C162.958 267.446 162.693 268.277 162.391 269.109C161.862 270.62 161.333 272.132 160.463 273.72C159.027 276.328 156.835 283.471 156.722 283.773L156.684 283.924C156.495 285.663 155.777 288.724 154.756 289.594C154.189 290.085 152.98 290.917 151.695 291.786C146.857 295.15 145.95 295.943 145.95 296.775C145.95 297.266 145.345 299.761 145.005 301.272C144.816 302.18 144.627 302.935 144.552 303.389C144.325 304.485 138.731 325.31 135.783 336.12L133.251 344.321L131.777 348.479L132.268 351.767C131.512 352.183 130.681 352.523 130.378 352.523C129.358 352.523 127.808 353.506 127.355 353.808L127.166 353.921L126.183 356.038L124.709 352.372C124.747 351.729 124.709 350.331 123.764 349.802C123.348 349.575 122.668 349.424 121.685 350.142C119.342 351.805 119.342 354.98 119.342 356.189C119.342 356.832 119.493 357.474 119.644 357.965L116.659 359.024H113.597C112.577 358.532 110.838 358.079 109.893 359.364C109.213 360.233 108.608 360.611 108.495 360.649C107.852 359.364 105.887 357.928 105.698 357.776L105.32 357.512L99.4996 359.666L98.4035 360.082L93.8303 358.079L91.7893 359.137L91.3358 359.326V359.817C91.298 359.893 91.2602 360.082 90.8445 360.195C90.0507 360.384 85.1374 360.611 82.1515 360.724C81.9626 360.762 78.0697 361.329 75.7263 362.198C74.7815 362.539 73.5342 362.765 72.2114 362.954C70.4728 363.257 68.6964 363.521 67.1846 364.202C66.5043 364.504 65.7862 364.882 65.0681 365.222C63.3295 366.054 61.5153 366.961 60.4571 366.961C59.0586 366.961 55.3169 366.734 54.2964 366.696L51.3862 364.391L44.6208 364.957H40.161L38.4602 363.257Z" fill="#A55733"/>
<path id="a187101" class="kedaton" fill-rule="evenodd" clip-rule="evenodd" d="M332.243 188.907C332.205 189.209 332.167 189.398 332.167 189.474L331.6 199.868L331.147 201.909C330.126 202.362 328.237 203.345 327.934 204.592C327.745 205.424 327.519 207.049 327.443 207.994C325.629 208.183 323.928 208.22 323.588 208.031C323.437 207.956 323.361 207.729 323.248 207.464C322.983 206.898 322.53 205.915 321.131 205.915C319.733 205.915 317.654 206.973 316.974 207.313L309.49 207.011L311.531 213.474C311.569 213.852 311.796 215.817 311.796 217.518C311.796 218.69 311.267 224.51 310.851 228.743C310.548 232.296 310.359 234.148 310.359 234.488C310.322 234.942 309.339 237.134 308.621 238.721C308.054 240.006 307.449 241.329 307.033 242.387C306.656 243.37 306.278 244.088 305.937 244.806C305.333 246.091 304.728 247.301 304.161 249.568C303.519 252.214 302.498 253.764 301.704 255.011C301.515 255.313 301.326 255.578 301.137 255.842C300.835 256.372 300.495 256.787 300.079 257.241C299.437 257.959 298.643 258.828 297.736 260.416C297.245 261.285 297.093 261.512 296.942 261.739C296.64 262.154 296.451 262.457 294.599 266.123C293.843 267.635 291.84 271.679 289.307 276.743C289.043 276.252 288.778 275.647 288.552 275.042L288.098 272.283L287.153 272.737C287.002 272.775 286.322 272.775 284.583 272.208C284.016 271.981 283.525 271.83 283.071 271.716C281.635 271.263 281.219 271.112 280.766 270.507C279.934 269.411 278.838 267.71 278.8 267.71L278.649 267.483L276.948 266.803L274.416 265.972L268.633 265.934L268.369 266.274C268.369 266.274 268.256 266.387 268.067 266.425C267.802 266.463 267.5 266.274 267.311 266.123C266.819 265.707 266.441 265.367 266.177 265.102C265.648 264.611 265.232 264.233 264.514 263.968C264.136 263.855 263.796 263.855 263.493 263.855C262.964 263.817 262.624 263.817 262.057 263.137C261.793 262.759 261.452 262.532 261.112 262.419C261.112 262.381 261.112 262.343 261.112 262.343C261.377 259.622 262.473 258.224 263.002 257.846C263.229 257.694 263.493 257.581 263.758 257.43C264.476 257.052 265.307 256.636 265.61 255.729C265.874 254.898 265.194 253.159 263.531 250.476L263.456 250.324L259.903 247.943L255.367 246.507C254.536 245.487 253.591 244.239 253.44 243.861C253.289 243.408 253.062 240.649 252.911 238.23L253.289 236.378L255.33 236.831L258.391 235.131L261.528 236L261.868 235.773C262.322 235.509 263.796 234.526 264.022 233.43C264.098 233.052 264.022 232.674 263.833 232.334C263.191 231.427 260.923 230.746 259.411 230.368C259.109 229.801 258.882 229.197 258.882 228.932C259.714 228.327 260.772 227.534 260.772 227.534L261.263 227.194L261.112 226.627C260.734 225.342 260.621 223.792 260.885 223.49C261.641 222.734 261.641 222.734 262.624 222.242C263.682 221.713 264.174 220.731 264.552 219.899C264.665 219.635 264.778 219.37 264.93 219.143C265.156 218.803 265.307 218.387 265.496 217.972C265.837 217.064 266.215 216.044 267.046 215.779C267.613 215.59 267.991 215.515 268.293 215.439C268.974 215.288 269.352 215.175 270.334 214.57C271.468 213.89 273.018 212.794 273.018 211.282V207.502L272.564 204.63C274.87 204.214 277.402 203.572 277.969 202.702C278.309 202.211 280.048 200.699 281.106 199.868L283.903 198.167L286.775 194.803C287.796 194.576 290.29 193.858 290.29 192.044C290.29 191.326 290.215 190.343 290.139 189.436C290.063 188.567 289.988 187.622 289.988 186.942C289.988 186.715 289.988 186.488 289.988 186.186C289.95 185.543 289.912 184.031 290.139 183.578C291.386 183.54 294.183 183.276 294.221 183.276H300.23C301.742 184.145 304.123 185.619 304.69 186.148C305.219 186.677 306.126 187.055 307.071 187.471C307.789 187.773 308.621 188.113 308.923 188.416C309.944 189.398 312.363 189.739 312.703 189.776L319.506 191.477H323.096H323.248C323.739 191.401 327.859 190.608 328.766 190.305C329.295 190.116 330.996 189.436 332.243 188.907Z" fill="#3311FF"/>
<path id="a187116" class="langkapura" fill-rule="evenodd" clip-rule="evenodd" d="M163.638 270.734C163.751 270.356 163.865 270.016 164.016 269.676C164.281 268.844 164.545 268.05 164.848 267.37C165.566 265.707 165.377 263.59 165.263 262.041C165.225 261.587 165.188 261.172 165.188 260.831C165.188 259.811 164.583 258.261 163.978 256.75C163.638 255.88 163.298 254.935 163.185 254.444C162.844 252.743 162.277 250.513 161.333 249.266C160.539 248.208 159.14 246.016 159.14 246.016C159.14 245.94 157.742 243.219 157.213 241.594C156.759 240.233 155.966 238.532 155.625 237.852C156.079 236.491 157.099 233.694 157.704 232.674L158.044 232.069C159.103 230.293 161.559 226.135 163.449 224.699C164.47 223.943 164.583 223.15 164.47 222.658C164.243 221.298 162.391 220.617 161.862 220.428L158.611 218.576C159.329 217.896 160.085 216.762 160.085 214.986C160.085 213.512 159.745 212.567 159.065 212.113C158.914 212.038 158.8 211.962 158.687 211.924V207.994L155.625 207.691L156.117 200.813L155.55 195.03L155.021 191.213L155.852 186.261V183.842L155.323 182.028L156.117 182.671L158.951 180.403L173.881 191.931L177.471 189.814L179.248 185.241C180.306 185.694 182.12 186.413 182.762 186.639C183.594 186.904 185.824 187.735 185.824 187.735L185.975 187.811H198.636C204.533 187.357 213.566 186.677 214.133 186.677H216.967L217.194 186.639C220.671 185.77 224.148 185.354 224.753 185.694C226.038 186.488 227.55 186.639 228.079 186.677L230.762 188C231.934 188.605 231.972 189.739 231.972 189.776V190.079L235.562 194.652L245.843 193.669V195.824C244.142 196.92 242.101 197.978 241.61 197.978C240.022 197.978 239.607 200.019 239.266 201.531C239.191 201.833 239.153 202.098 239.115 202.249C238.964 202.627 237.792 203.798 237.036 204.592C236.318 205.31 235.6 206.104 234.996 206.784C233.862 208.145 230.8 208.75 230.007 208.75C228.911 208.75 224.753 210.261 223.657 210.828C222.825 211.244 220.255 211.924 219.311 212.189L218.479 212.378L219.235 215.288C218.555 218.539 217.534 222.28 216.929 222.885C215.644 224.17 215.304 225.795 215.304 225.833L215.266 226.022L215.796 228.441L212.318 235.395L220.936 237.134L217.345 247.641L222.032 250.287L221.918 250.438C221.843 250.589 219.613 253.915 219.046 255.087C218.403 256.334 218.101 257.052 218.101 259.395C218.101 261.134 218.592 261.663 219.235 262.192C219.499 262.381 219.688 262.57 219.915 262.948C220.709 264.233 221.578 265.707 221.805 266.35C221.729 266.803 220.029 268.731 216.967 268.731C216.551 268.731 216.249 268.731 216.022 268.693L216.476 268.39L214.435 265.556L206.725 261.361L203.928 266.463L186.353 256.825L176.073 275.95L168.627 273.644L163.638 270.734Z" fill="#FE215F"/>
<path id="a187104" class="panjang" fill-rule="evenodd" clip-rule="evenodd" d="M437.578 437.146C437.843 436.391 438.183 435.597 438.485 434.992C439.544 432.876 440.451 430.23 440.791 429.209C441.433 427.32 441.698 423.805 441.698 422.709V415.036L436.596 419.005V412.277L436.142 412.05C434.592 411.295 426.958 407.477 426.126 407.175C425.711 407.061 424.539 406.154 423.556 405.323L423.216 401.77H419.361C418.945 401.354 417.962 400.334 417.585 399.238L417.055 397.613L416.262 392.548C416.564 391.717 416.904 390.507 416.337 389.751C416.148 389.524 415.695 389.184 414.901 389.335C413.389 389.638 409.912 392.019 409.496 392.283L409.005 392.661L409.194 393.228C409.27 393.531 409.307 393.871 409.345 394.135C408.816 393.871 408.362 393.72 407.985 393.606C407.153 393.342 407.153 393.342 407.153 393.002V389.033C407.153 388.504 407.833 387.446 408.325 386.841C408.627 386.614 409.345 385.972 409.912 384.876C410.63 383.439 409.988 380.416 409.685 379.206C409.383 377.959 408.476 376.485 408.438 376.409L408.211 375.994H405.906L404.999 380.491L403.6 381.096C401.899 381.096 399.405 380.945 398.762 380.643C398.196 380.34 397.44 380.454 396.608 380.68C399.14 378.148 400.539 376.939 400.992 376.561C401.673 376.409 402.58 375.994 402.882 374.784C403.185 373.575 402.731 370.06 402.618 369.38L402.58 369.153L400.652 366.658L400.35 362.387H400.085C400.199 361.291 400.161 360.082 400.123 359.326L403.071 358.192H403.94L406.095 358.721L407.644 359.175L407.153 357.701C407.115 357.625 407.266 357.285 407.871 356.945C409.043 356.227 410.025 355.358 410.403 354.98L413.389 354.337V354.11C413.54 354.072 413.767 353.997 414.107 353.921C415.166 353.695 416.64 352.447 417.66 351.465L419.663 361.821C419.852 362.463 420.835 365.676 421.44 366.583C421.629 366.885 421.893 368.472 422.044 369.493C422.309 371.345 422.498 372.517 422.876 373.083C423.367 373.839 424.577 375.087 425.068 375.578C425.181 376.258 425.673 377.883 426.92 379.169C428.394 380.643 431.229 382.343 431.342 382.381L431.607 382.495C431.644 382.495 433.988 383.024 434.668 384.8C434.857 385.291 435.008 385.821 435.159 386.35C435.764 388.428 436.52 391.036 439.128 392.095L440.224 392.548C443.89 393.984 445.704 394.702 446.498 394.702C446.8 394.702 447.103 394.589 447.481 394.476C448.539 394.135 449.559 393.833 450.58 395.647C451.525 397.461 452.432 398.671 453.037 399.578C453.452 400.145 453.83 400.636 453.906 400.901C454.133 401.543 455.077 402.148 460.218 404.907C462.107 405.928 464.715 407.288 465.055 407.628C465.736 408.687 469.855 411.861 471.027 412.428C472.161 412.995 475.94 415.754 477.528 417.833C477.717 418.135 477.944 418.4 478.133 418.627C479.455 420.328 480.174 421.272 480.174 424.674C480.174 427.169 479.985 428.983 479.833 430.419C479.72 431.439 479.607 432.346 479.607 433.178C479.607 435.219 485.805 450.791 487.052 453.89L490.605 462.091C490.529 462.394 490.567 462.772 490.756 463.112C491.21 463.943 492.344 464.321 494.347 464.321C497.257 464.321 503.077 463.414 503.607 461.751C503.72 461.487 503.796 461.109 503.909 460.731C504.098 459.975 504.362 459.03 504.665 458.539C504.967 458.123 505.156 457.518 505.383 456.876C505.61 456.158 505.874 455.364 506.252 455.024C506.706 454.57 506.895 454.154 507.046 453.89C507.235 453.55 507.311 453.398 507.726 453.172C508.974 452.567 509.616 451.093 509.805 450.564L512.98 446.595L514.529 445.839L519.254 441.417C519.594 441.38 519.972 441.228 520.388 441.039C521.635 440.548 523.26 439.679 523.751 439.376L530.441 438.621L535.808 445.575L536.64 444.932C532.709 461.109 529.156 476.189 529.156 476.189L526.322 485.26L524.054 490.929L532.52 500.529L528.854 533.638L570.466 567.88C570.466 567.88 596.205 622.797 599.909 631.868C603.575 640.901 611.777 663.276 611.777 664.674C611.777 666.11 601.307 673.745 601.307 673.745L598.473 670.343H593.37L590.007 663.54L584.602 664.409L582.901 661.272V657.606L581.2 654.772L576.967 655.074L573.301 647.137L568.766 646.57C568.766 646.57 566.762 643.471 566.196 642.602C565.666 641.77 563.966 638.935 563.966 638.935C563.966 638.935 562.529 638.066 561.396 637.235C560.262 636.365 559.997 635.232 558.561 633.569C557.162 631.868 554.895 629.865 554.895 629.865L551.796 628.731H550.359H543.556L542.725 627.03L541.893 624.498L536.488 623.666L535.355 626.198L529.988 625.329C529.988 625.329 528.854 626.463 526.019 622.23C523.185 617.997 522.353 616.296 522.353 616.296L518.951 607.528C518.951 607.528 518.385 602.425 518.385 601.556C518.385 600.724 518.385 598.192 518.385 598.192L518.12 595.055V593.921L517.553 591.956L518.385 589.953L520.652 587.156C520.652 587.156 520.085 584.019 520.652 582.885C521.219 581.751 521.786 580.92 521.786 578.35C521.786 575.817 521.786 572.151 521.786 572.151L522.618 567.88L521.484 565.046L515.852 560.246L514.983 556.013L513.018 553.745C513.018 553.745 510.183 553.745 509.314 553.178C508.482 552.611 507.915 552.611 507.915 550.91C507.915 549.209 507.915 546.11 507.915 546.11C507.915 546.11 506.781 544.107 505.95 543.54C505.081 542.973 504.249 542.142 503.682 541.008C503.115 539.874 499.714 536.208 499.714 536.208C499.714 536.208 499.978 535.641 498.58 535.339C497.144 535.074 493.213 534.507 493.213 534.507L492.079 537.342L488.111 536.472L490.643 532.239L489.509 528.006L492.079 524.605L494.914 524.038L496.312 515.269L492.646 512.435L495.745 511.301L499.978 510.998C499.978 510.998 502.548 510.998 502.813 509.298C503.115 507.597 504.816 504.233 504.816 504.233L505.648 501.965L491.777 494.028L484.974 483.559L480.74 480.724C480.74 480.724 479.342 476.756 479.04 475.622C478.775 474.488 478.775 471.956 478.775 471.956C478.775 471.956 477.906 469.424 477.641 467.723C477.339 466.022 477.074 464.586 475.94 463.754C474.807 462.885 468.306 460.05 467.172 458.085C466.038 456.12 464.337 454.117 462.901 452.983C461.503 451.849 456.4 448.75 455.569 447.88C454.699 447.049 454.699 445.915 454.699 445.915C454.699 445.915 453.868 444.517 452.999 444.214C452.167 443.95 448.766 442.816 448.766 442.816L442.265 441.946L439.128 443.383L436.709 440.057L437.654 437.184L437.578 437.146Z" fill="#A933FF"/>
<path id="a187120" class="bumiwaras" fill-rule="evenodd" clip-rule="evenodd" d="M311.909 438.772L309.301 434.35L326.309 425.165L324.608 413.94L326.309 413.373C327.027 413.449 329.635 413.638 330.58 413.638C330.807 413.94 331.147 414.923 331.336 415.792L331.449 416.321L336.627 417.795L337.194 418.589L340.52 416.17L345.396 403.206L345.471 402.942C345.547 401.883 346.114 398.973 347.852 397.991C350.574 396.479 352.879 392.737 352.992 392.586L353.106 392.397L353.711 383.855L351.292 381.739L350.309 378.602L350.46 378.224C352.274 378.866 356.507 380.265 358.208 380.265H362.781L364.822 378.224C365.087 377.883 365.881 377.128 366.41 377.128C367.77 377.128 368.791 375.313 369.282 374.217L374.158 373.159C375.216 373.046 376.615 373.083 376.992 373.31C377.937 373.953 379.374 374.255 379.6 374.293C380.167 374.368 384.892 374.898 386.366 374.595C386.592 374.557 386.592 374.557 386.668 374.671C387.046 375.087 387.424 375.124 387.689 375.049C388.255 374.898 388.331 374.482 388.482 373.613C388.596 372.819 388.671 371.95 388.747 371.231C388.822 370.4 388.86 369.568 389.011 369.191C389.049 369.077 389.087 368.926 389.125 368.737C389.427 367.641 390.032 365.449 391.695 365.26L393.433 365.033C395.172 364.844 396.495 364.693 397.553 364.693C397.78 364.693 397.855 364.731 397.893 364.768L398.271 365.222L398.725 365.184C398.763 365.184 398.8 365.184 398.838 365.184L398.989 367.263L400.992 369.833C401.181 371.42 401.408 373.764 401.257 374.406C401.144 374.822 400.766 374.86 400.652 374.86H400.35L400.123 375.049C400.048 375.124 398.611 376.258 395.248 379.66C394.189 380.718 393.471 381.512 393.925 382.305C394.378 383.061 395.285 382.835 396.419 382.494C396.911 382.343 397.78 382.116 398.007 382.154C399.254 382.759 403.033 382.797 403.752 382.797H403.941L406.473 381.701L407.267 377.808C407.531 378.261 407.871 379.017 408.022 379.622C408.514 381.587 408.665 383.515 408.4 384.12C407.947 385.027 407.267 385.48 407.267 385.48L407.078 385.669C406.813 385.972 405.452 387.672 405.452 389.033V393.002C405.452 394.589 406.586 394.929 407.455 395.231C407.833 395.345 408.287 395.496 408.778 395.723C409.648 396.176 410.215 395.95 410.517 395.685C411.159 395.156 411.122 394.173 410.97 393.379C412.18 392.548 413.918 391.49 414.901 391.112C414.863 391.376 414.712 391.754 414.599 392.094L414.485 392.321L415.392 397.953L415.997 399.767C416.602 401.657 418.416 403.206 418.492 403.282L418.756 403.471H421.667L421.931 406.154L422.158 406.381C422.725 406.872 424.652 408.498 425.559 408.8C426.126 408.989 431.38 411.597 434.895 413.335V422.482L439.997 418.513V422.709C439.997 423.767 439.733 427.055 439.166 428.68C438.863 429.663 437.956 432.233 436.974 434.198C436.596 434.916 436.255 435.824 435.953 436.617L435.878 436.579L435.046 439.112H433.761C432.627 439.112 431.493 438.545 431.493 438.545L426.391 436.844L421.326 434.009L412.822 430.646L399.821 422.709L399.254 419.874L395.852 418.476L387.651 420.441L386.781 423.842L385.95 424.976L381.981 423.276L376.312 421.877C376.312 421.877 373.213 425.241 371.777 426.11C370.378 426.942 368.375 427.509 368.375 427.509L363.311 426.375L350.271 425.241L345.169 425.808L336.4 428.076L325.1 431.477L324.533 435.143L321.963 440.548C321.963 440.548 321.963 441.682 320.829 442.513C319.695 443.383 318.863 443.647 317.994 443.647C317.163 443.647 315.462 442.249 315.462 442.249L314.063 442.022L312.06 438.696L311.909 438.772Z" fill="#33FF57"/>
<path id="a187107" class="telukbetungselatan" fill-rule="evenodd" clip-rule="evenodd" d="M302.989 453.55C302.687 452.718 302.347 451.773 302.082 451.206C301.742 450.526 301.591 447.88 301.591 446.179L301.553 445.915C301.364 445.424 300.419 443.08 298.756 443.08H293.805L293.692 443.798C293.654 443.874 293.654 443.987 293.578 444.101C293.011 443.647 292.331 443.458 291.764 443.307C291.235 443.156 290.857 443.042 290.819 442.891L290.139 440.132L285.981 445.083L286.019 445.424C286.057 445.726 286.019 446.217 285.981 446.293C285.981 446.331 285.792 446.331 285.339 446.028C284.583 445.575 283.865 445.197 283.222 444.894C281.862 444.252 281.144 443.874 280.879 443.118C280.69 442.438 280.35 441.72 280.01 441.002C279.518 439.905 278.951 438.696 278.951 437.978C278.951 436.768 279.405 432.498 279.518 431.704L280.728 428.831L279.67 428.68C279.216 428.605 277.893 428.302 277.062 427.887C276.117 427.433 273.547 425.921 272.791 425.505L271.544 423.238C271.43 422.898 271.128 421.915 270.599 421.121C270.448 420.857 270.259 420.63 270.07 420.403C269.465 419.723 268.822 418.929 268.444 417.417C267.877 415.112 267.311 413.184 265.799 411.257C266.063 410.803 265.761 410.539 263.644 408.762C262.133 407.477 261.301 407.061 260.621 407.099C260.47 406.797 260.205 406.305 259.903 405.663C258.164 401.921 256.388 398.973 255.443 397.424L255.065 396.819C254.196 395.307 250.567 391.452 250.416 391.301L250.265 391.112L245.465 389.638L245.276 390.583C245.276 390.62 245.011 392.094 244.331 393.039C244.066 393.379 243.877 393.72 243.651 394.098C243.159 394.967 242.63 395.874 241.156 396.781C240.929 396.932 240.627 397.083 240.438 396.97C240.022 396.819 239.72 395.95 239.607 395.42C239.607 395.383 239.493 394.135 241.27 392.813C242.177 392.132 242.668 392.132 242.933 392.132C243.159 392.132 243.613 392.132 243.877 391.754C244.18 391.301 244.066 390.923 243.802 390.167L243.122 388.126L242.781 387.975C242.706 387.937 240.627 387.068 237.906 387.068H234.088L233.295 383.402L231.178 382.192C230.951 381.814 230.46 381.058 229.251 379.471C227.739 377.43 227.739 376.75 227.739 375.427C227.739 373.915 227.134 372.139 227.134 372.063L227.021 371.761L222.334 368.85L218.252 364.202C217.95 363.597 217.043 362.161 215.833 362.161C215.418 362.161 213.074 361.972 210.769 361.783C211.903 361.669 213.566 361.594 215.002 361.594H215.418L219.273 356.794C219.915 356.265 221.238 355.017 221.238 353.921V350.179C221.805 349.839 222.674 349.424 223.203 349.424H225.736C226.681 349.424 227.777 348.403 228.381 347.761C229.326 347.836 231.556 347.987 232.274 347.987H235.789L237.566 348.592L243.575 347.723H244.86L243.462 351.124C242.517 351.767 240.74 353.165 240.74 354.488C240.74 354.753 240.665 354.942 240.551 355.282C240.325 355.887 239.985 356.756 240.174 358.57C240.514 361.48 241.799 364.39 243.537 366.129C244.142 366.734 244.633 367.301 245.087 367.83C245.918 368.775 246.637 369.606 247.657 370.211C248.564 370.74 249.509 371.874 250.265 372.743C250.605 373.159 250.907 373.537 251.172 373.764C251.512 374.104 251.89 374.633 252.268 375.162C252.911 376.031 253.515 376.863 254.158 377.279C254.876 377.77 255.103 377.959 256.501 379.66L259.487 383.25L259.714 383.326C259.751 383.326 260.734 383.666 262.246 383.666C263.607 383.666 269.654 381.398 272.035 380.491L278.007 392.132L278.158 392.246C278.271 392.321 280.463 393.984 281.295 394.551C281.711 394.891 282.807 397.235 283.525 399.238L283.751 399.842L284.394 399.767C285.414 399.691 288.174 399.502 288.854 399.502C289.194 399.502 289.988 400.22 289.988 401.203C289.988 402.261 289.383 404.869 289.156 405.814L289.005 406.532L293.276 408.195C293.729 408.422 294.977 409.253 294.825 410.123C294.712 410.69 294.561 411.105 294.41 411.483C294.107 412.202 293.805 412.995 294.334 414.016C294.485 414.318 294.561 414.62 294.637 414.998C294.825 415.792 295.09 416.775 296.262 417.72C297.736 418.891 300.495 420.176 301.591 420.176C302.309 420.176 302.951 419.685 303.67 419.156C303.972 418.891 304.539 418.476 304.728 418.476H308.394C308.772 418.476 310.662 418.438 311.682 417.757C312.4 417.266 314.063 416.17 314.063 414.205C314.063 413.827 314.139 413.487 314.214 413.109C314.403 412.315 314.668 411.332 313.912 410.085L313.61 409.556C312.967 408.498 312.627 407.931 311.833 407.099C311.607 406.91 311.38 406.759 311.191 406.721C311.04 405.247 311.229 403.924 311.38 403.244C312.967 402.715 314.781 402.224 315.197 402.299C315.764 402.488 318.334 403.735 319.884 404.491L320.073 404.605H320.262C320.3 404.605 321.509 404.605 322.454 405.058C322.87 405.285 323.285 406.532 323.399 407.515L323.512 408.611L328.577 406.608C329.635 406.797 330.807 407.25 331.411 407.477L332.205 412.239C332.318 412.617 332.923 414.242 333.83 415.225L332.885 414.961C332.545 413.487 331.903 411.937 330.731 411.937C330.088 411.937 327.292 411.748 326.271 411.672H326.12L322.718 412.806L324.457 424.22L306.92 433.707L310.473 439.679H310.435L311.644 441.682H311.493C311.493 441.682 309.528 442.513 309.225 443.383C308.961 444.214 307.26 444.781 308.092 446.746C308.961 448.75 308.961 448.75 308.961 448.75L312.627 448.447C312.627 448.447 312.362 446.482 313.194 446.746C314.063 447.049 315.462 448.75 317.162 448.75C318.863 448.75 319.43 448.75 320.262 448.447C321.131 448.183 322.832 447.616 322.832 447.616C322.832 447.616 324.23 445.65 323.663 448.75C323.096 451.849 321.131 454.683 321.131 454.683C321.131 454.683 319.997 455.553 319.695 456.951C319.43 458.35 319.43 458.652 319.128 460.353C318.863 462.053 317.729 464.888 317.994 466.022C318.296 467.156 318.561 469.99 318.561 469.99L316.898 471.389H313.496L305.333 458.047L305.408 458.009L303.027 453.55H302.989Z" fill="#FFC300"/>
<path id="a187119" class="telukbetungtimur" fill-rule="evenodd" clip-rule="evenodd" d="M171.462 480.573L171.537 480.649L171.802 480.271L171.991 480.082L171.953 480.044L173.805 477.247L179.059 459.219L186.391 461.978L194.555 462.62C195.008 462.658 205.818 463.452 209.333 462.28C212.356 461.26 217.459 458.916 218.252 457.707L218.555 457.253C224.64 457.518 231.254 458.085 232.123 458.538C233.559 459.408 243.575 462.998 244.822 463.452C245.578 463.603 252.306 464.888 253.478 464.888C254.347 464.888 258.882 463.83 259.374 462.318C259.6 461.713 259.789 460.731 259.903 460.164C261.037 459.786 263.04 459.219 263.947 459.219C265.308 459.219 268.369 459.483 268.407 459.483L268.709 459.521L268.936 459.37C269.087 459.294 270.448 458.387 270.712 457.027C270.863 456.346 270.75 455.666 270.334 455.061C269.541 453.89 266.895 447.767 265.496 444.441L270.448 444.214L277.515 439.414C277.742 440.17 278.12 440.926 278.46 441.72C278.8 442.4 279.103 443.08 279.292 443.647C279.783 445.121 281.106 445.764 282.467 446.444C283.109 446.746 283.752 447.049 284.47 447.502C285.377 448.069 286.208 448.183 286.813 447.767C287.607 447.275 287.758 446.217 287.758 445.65L289.345 443.723C289.761 444.516 290.593 444.743 291.311 444.932C291.764 445.083 292.256 445.197 292.596 445.461C293.276 445.99 293.843 445.915 294.221 445.764C294.674 445.575 294.977 445.159 295.128 444.781H298.756C298.983 444.781 299.55 445.537 299.89 446.368C299.89 447.389 299.966 450.79 300.571 451.962C300.835 452.491 301.175 453.512 301.478 454.381L301.364 454.419L301.667 455.024C301.818 455.477 301.931 455.779 301.931 455.779L302.045 455.742L302.876 457.253L297.056 462.62C297.056 462.62 294.523 463.754 292.256 464.586C289.988 465.455 286.889 466.853 286.889 466.853L281.786 468.857L276.117 469.424L276.986 472.787L276.117 475.622L272.451 473.657L271.015 474.488C271.015 474.488 270.75 475.622 270.183 477.058C269.616 478.457 267.348 481.556 267.348 481.556C267.348 481.556 268.218 481.291 266.215 485.827C264.249 490.362 263.682 493.461 263.682 493.461L264.816 497.127L269.616 498.564L263.115 498.261L260.545 498.564L257.446 497.694C257.446 497.694 256.615 502.23 256.615 503.099C256.615 503.931 257.182 509.033 257.182 509.033L257.446 510.431L261.415 510.998L261.112 517.801L264.816 533.071L261.982 531.937L263.38 543.54L266.517 546.677L267.651 546.11L265.648 551.212C265.648 551.212 264.249 552.044 264.249 554.576C264.249 557.146 263.947 562.816 264.249 563.647C264.514 564.516 265.081 566.746 265.081 566.746L263.115 573.285L261.679 576.12L259.978 576.384C259.978 576.384 260.281 574.419 259.978 571.849C259.714 569.316 259.147 564.214 258.845 563.08C258.58 561.946 257.446 558.545 257.446 558.545H255.745C255.745 558.545 254.914 555.143 254.914 554.312C254.914 553.442 254.347 551.477 254.347 551.477C254.347 551.477 253.78 550.079 252.911 549.512C252.079 548.945 245.578 546.942 245.578 546.942L243.008 544.976L239.04 548.378C239.04 548.378 234.504 548.945 233.673 547.811C232.841 546.677 231.405 546.11 231.405 546.11C231.405 546.11 229.137 546.375 228.57 547.811C228.004 549.209 225.736 550.343 225.736 550.343L224.035 550.646C224.035 550.646 220.104 549.776 219.537 551.779C218.97 553.745 220.369 554.312 218.101 556.277C215.833 558.28 213.301 559.679 213.301 559.679C213.301 559.679 211.6 560.548 211.033 561.682C210.467 562.816 208.766 564.214 208.766 564.214L205.931 563.912H202.265L198.296 564.516L196.029 566.482L194.63 568.749L190.359 567.88C188.659 567.616 180.759 567.616 180.759 567.616L178.189 569.581L169.988 570.715L166.889 572.151L160.085 574.419L163.222 523.735L169.383 482.425L171.462 480.573Z" fill="#33FFD2"/>
<path id="a187108" class="telukbetungbarat" fill-rule="evenodd" clip-rule="evenodd" d="M128.526 356.756L130.454 358.041L133.704 359.515L133.931 359.59C133.969 359.59 135.896 359.855 136.955 360.12C137.748 360.346 139.26 360.8 140.054 361.064L140.356 364.693H141.112C141.15 364.693 142.095 364.693 143.002 365.184C144.06 365.675 146.252 366.167 146.97 366.318L147.953 367.112L148.218 369.228L149.729 371.647L149.918 371.836C149.994 371.912 152.224 373.877 153.093 374.444C155.512 376.069 156.911 376.863 157.553 377.09C157.78 377.203 158.347 377.808 158.763 378.224C159.594 379.093 160.426 380 161.295 380.227C161.635 380.302 162.089 380.491 162.58 380.718C163.752 381.172 164.885 381.625 165.717 381.361C166.7 381.02 166.964 379.924 167.191 378.828C167.304 378.375 167.455 377.846 167.607 377.619C168.136 376.787 169.081 375.389 171.5 375.162C172.407 375.049 173.276 375.087 174.032 375.049C175.808 375.087 177.207 375.087 177.849 373.839C178.189 373.159 178.907 372.176 179.361 371.609L182.838 372.705C182.989 373.31 183.367 374.104 184.199 374.709C185.408 375.616 186.882 376.712 189.037 375.653C189.301 375.502 189.528 375.389 189.755 375.275C191.115 374.671 192.363 374.066 192.363 372.327C192.363 371.572 192.06 370.967 191.871 370.438C191.796 370.287 191.72 370.098 191.644 369.946C192.589 369.493 193.005 369.493 194.328 369.493C194.819 369.493 195.084 369.531 195.311 369.568C195.802 369.644 196.218 369.682 197.314 369.493C199.052 369.19 200.451 367.754 201.358 366.772L201.736 366.431C201.925 366.205 202.038 366.016 202.076 365.827C202.114 365.827 202.152 365.789 202.189 365.789C203.323 365.524 204.041 365.373 204.608 365.26C205.742 364.995 206.158 364.92 207.216 364.277C207.783 363.975 208.123 363.597 208.388 363.294C209.711 363.408 215.002 363.824 215.796 363.824C216.022 363.899 216.514 364.504 216.778 365.071L221.163 370.06L225.585 372.894C225.736 373.386 226.038 374.52 226.038 375.427C226.038 377.09 226.114 378.11 227.89 380.491C229.478 382.57 229.78 383.175 229.818 383.175L229.931 383.401L231.783 384.498L232.69 388.731H237.906C239.644 388.731 241.118 389.184 241.761 389.411L242.139 390.507C241.648 390.62 241.043 390.885 240.249 391.452C237.603 393.455 237.906 395.572 237.944 395.685C237.981 395.912 238.322 397.915 239.72 398.52C240.211 398.746 241.005 398.898 242.063 398.255C243.878 397.083 244.558 395.912 245.125 394.967C245.314 394.627 245.465 394.362 245.692 394.06C246.221 393.342 246.561 392.472 246.75 391.792L249.32 392.624C250.454 393.795 252.986 396.63 253.591 397.688L254.007 398.293C254.989 399.956 256.652 402.715 258.391 406.381C259.487 408.724 259.714 409.216 260.696 408.8C260.696 408.8 261.15 408.838 262.548 410.047C262.964 410.387 263.266 410.652 263.531 410.879C263.569 411.257 263.909 411.635 264.174 411.937C265.723 413.751 266.252 415.527 266.819 417.833C267.273 419.723 268.142 420.743 268.747 421.461C268.898 421.688 269.087 421.877 269.2 422.066C269.654 422.746 269.918 423.767 269.918 423.767L271.544 426.715L271.733 426.828C271.884 426.904 275.172 428.831 276.306 429.398C276.948 429.738 277.704 429.965 278.347 430.116L277.893 431.137L277.818 431.401C277.818 431.59 277.364 435.71 277.289 437.524L269.918 442.513L263.002 442.853L263.455 443.987C263.644 444.403 267.764 454.268 268.898 456.006C269.125 456.309 269.087 456.535 269.087 456.687C268.974 457.102 268.558 457.556 268.255 457.783C267.424 457.707 265.156 457.518 263.947 457.518C262.435 457.518 259.222 458.576 258.882 458.69L258.391 458.841L258.315 459.37C258.24 459.824 257.975 461.146 257.824 461.675C257.446 462.167 254.498 463.187 253.478 463.187C252.722 463.187 247.959 462.318 245.276 461.827C240.892 460.239 233.975 457.669 232.992 457.064C231.481 456.195 221.238 455.666 218.139 455.553L217.685 455.515L216.854 456.762C216.363 457.367 212.281 459.521 208.766 460.693C206.12 461.562 197.692 461.146 194.668 460.92L186.882 460.353L177.925 456.951L172.331 476.416L170.781 478.721L170.744 478.683L169.61 479.704L157.553 431.779C157.553 431.779 158.12 428.378 158.12 426.942C158.12 425.543 157.553 422.142 157.553 422.142C157.553 422.142 157.818 421.008 155.852 419.609C153.849 418.173 151.052 416.208 151.052 416.208L149.918 418.74C149.918 418.74 146.215 417.909 140.848 416.775C135.481 415.641 132.646 415.905 132.646 415.905L131.21 417.909L124.142 419.609C124.142 419.609 122.177 418.74 120.74 420.441C119.342 422.142 116.205 424.674 113.975 425.543C111.707 426.375 108.306 426.942 108.306 426.11C108.306 425.241 107.739 423.275 107.739 423.275C107.739 423.275 102.939 428.075 102.07 428.075C101.238 428.075 96.9673 427.509 96.1358 428.075C95.2665 428.642 91.9027 430.343 90.2019 430.91C88.5011 431.477 78.5988 435.181 77.7295 435.446C76.898 435.71 72.9295 439.981 72.9295 439.981C72.9295 439.981 70.0948 445.915 67.8271 444.781C65.5594 443.647 64.161 443.647 61.8933 441.379C59.6255 439.112 57.0555 436.277 54.5232 435.446C51.9909 434.614 48.8539 433.745 48.8539 433.745C48.8539 433.745 46.8885 432.044 45.1877 432.044C43.487 432.044 40.3877 433.745 39.5184 433.745C38.687 433.745 36.1169 434.312 36.1169 434.312H33.0177L22.246 439.112C22.246 439.112 19.7137 440.548 18.8822 438.545C18.0129 436.579 17.7484 434.312 17.7484 433.178C17.7484 432.044 17.7484 430.91 17.7484 430.91L12.646 428.642C12.646 428.642 10.6429 427.509 10.0759 426.375C9.509 425.241 8.97987 423.275 8.97987 422.142C8.97987 421.008 7.54365 419.307 10.0759 419.307C12.646 419.307 17.446 418.475 17.446 418.475L21.1499 416.775L22.246 414.772L21.6791 412.504L18.5799 410.538L17.446 407.137L16.6145 402.337L15.4807 401.468L11.2098 399.767V397.235L12.0791 395.534C12.0791 395.534 12.646 394.135 14.9137 393.266C17.1814 392.435 35.2854 385.631 35.2854 385.631V382.532L13.7799 382.23C13.7799 382.23 9.24443 379.698 8.41294 379.395C7.54365 379.131 7.54365 377.694 6.40979 376.296C5.27593 374.86 2.17672 374.293 5.01136 372.894C7.84601 371.496 8.97987 371.761 10.6429 371.496C12.3436 371.194 15.7452 370.627 15.7452 370.627C15.7452 370.627 19.4492 371.194 19.4492 372.063C19.4492 372.894 20.2807 373.197 21.1499 373.764C21.9814 374.331 21.9814 374.331 21.9814 374.331C21.9814 374.331 23.9468 375.729 23.9468 374.595C23.9468 373.461 24.5137 368.926 24.5137 368.926L26.5169 366.658C26.5169 366.658 32.7531 366.091 33.5846 365.524C34.4161 364.957 36.4192 364.39 36.4192 364.39L36.7594 363.975L39.4429 366.658H44.6964L50.857 366.129L53.6539 368.359H53.9184C54.1074 368.397 58.7562 368.661 60.457 368.661C61.8933 368.661 63.783 367.716 65.7862 366.734C66.5043 366.394 67.2224 366.053 67.9027 365.751C69.1877 365.184 70.8507 364.92 72.4759 364.655C73.9121 364.428 75.235 364.201 76.331 363.786C78.4854 362.992 82.3405 362.425 82.3027 362.425C83.0964 362.387 90.0507 362.123 91.2602 361.82C92.2429 361.594 92.6964 360.989 92.9232 360.46L93.9058 359.968L98.3657 361.934L105.055 359.401C105.736 359.968 106.681 360.8 106.983 361.405C107.248 361.934 107.701 362.274 108.268 362.312C109.629 362.463 110.876 360.875 111.254 360.384C111.556 360.006 112.615 360.422 112.955 360.611L113.181 360.724H116.772L121.95 358.948L121.496 358.079C121.496 358.079 121.043 357.096 121.043 356.189C121.043 355.131 121.043 352.674 122.668 351.502C122.781 351.427 122.857 351.389 122.933 351.351C123.008 351.578 123.046 352.069 123.008 352.447V352.636L126.07 360.346L127.884 356.416L128.526 356.756Z" fill="#FF5733"/>
<path id="a187114" class="labuhanratu" fill-rule="evenodd" clip-rule="evenodd" d="M243.877 198.923C245.125 198.28 246.448 197.487 247.166 196.995L247.544 196.768V193.48L248.564 193.405L248.677 192.724C248.677 192.649 248.942 190.683 248.942 188.945C248.942 187.811 248.715 186.791 248.526 186.148C249.244 185.657 250.492 184.75 251.474 183.956C252.646 183.011 253.553 183.011 254.611 183.011C255.972 183.011 257.711 181.839 257.9 181.726L258.202 181.537L258.844 178.665V178.476C258.844 178.4 258.844 177.191 258.542 176.208C258.353 175.716 257.786 175.036 256.312 173.449C255.405 172.466 253.893 170.803 253.742 170.35C253.44 169.065 251.285 168.12 249.963 167.628C249.774 166.721 249.358 164.68 248.942 162.979C248.413 160.939 248.677 159.389 248.677 159.351V159.2L248.64 159.011C248.64 158.935 248.073 156.705 247.77 155.836C247.43 154.816 246.07 153.682 245.805 153.455C244.18 152.208 242.328 150.62 242.139 150.167C242.101 150.053 242.328 149.524 242.479 149.184C242.781 148.542 243.122 147.71 243.273 146.614C243.537 144.989 242.668 144.384 242.063 143.968C241.61 143.666 241.232 143.402 240.967 142.759C240.929 142.683 240.892 142.608 240.892 142.57C240.892 142.57 240.892 142.57 240.929 142.57C241.383 142.494 242.214 142.343 242.63 141.474C242.857 141.058 243.197 140.567 243.613 140.038C244.104 139.32 244.671 138.526 245.2 137.543C245.389 137.128 245.54 136.825 245.692 136.561C246.183 135.653 246.41 135.162 246.41 134.331V130.4L244.444 127.452L244.293 127.376C244.255 127.339 241.534 125.713 240.211 124.391C239.493 123.635 238.359 122.765 237.301 121.896C236.281 121.102 235.222 120.233 234.542 119.553C233.597 118.608 231.632 117.02 230.422 116.076L238.511 111.918L243.764 110.255L248.489 109.121H255.103L258.391 109.688L270.637 113.581L279.745 119.931C280.085 120.46 281.484 122.652 282.429 124.995C283.411 127.49 285.226 127.452 286.851 127.376C287.531 127.376 288.249 127.339 288.967 127.49C290.479 127.83 292.52 128.699 294.145 129.379C295.241 129.833 296.073 130.211 296.564 130.324L297.244 130.476C298.983 130.891 303.065 131.874 305.219 132.819C307.185 133.726 307.789 134.935 308.47 136.372L308.772 136.976C309.868 139.206 318.183 141.701 321.547 142.23C324.608 142.721 325.364 145.178 325.402 145.291L325.477 145.594L325.704 145.745C326.158 146.085 334.359 152.17 340.104 156.101L339.537 156.063L339.235 161.052L340.293 163.962L336.249 171.521L334.095 175.187L334.17 175.49C334.397 176.775 334.775 180.479 333.944 182.368C333.339 183.729 332.885 185.468 332.621 186.904C331.336 187.433 328.803 188.491 328.199 188.68C327.632 188.907 324.835 189.436 323.021 189.776H319.808L313.005 188.113C312.098 188 310.548 187.622 310.133 187.206C309.566 186.677 308.696 186.299 307.714 185.883C306.996 185.581 306.164 185.241 305.862 184.939C304.955 184.031 301.289 181.915 300.873 181.688L300.684 181.575H294.145C294.145 181.575 291.084 181.877 289.988 181.877C289.61 181.877 289.232 182.028 288.967 182.293C288.249 183.011 288.249 184.447 288.287 186.224C288.287 186.488 288.287 186.753 288.287 186.942C288.287 187.698 288.363 188.642 288.438 189.587C288.514 190.457 288.589 191.364 288.589 192.044C288.589 192.346 287.455 192.951 286.17 193.216L285.868 193.253L282.92 196.768L280.123 198.469C279.632 198.847 277.175 200.85 276.608 201.72C276.155 202.098 273.622 202.74 271.506 203.08L269.087 203.345L265.345 202.476L265.118 202.551C263.947 202.929 261.074 203.874 260.432 204.894C260.205 205.197 259.26 205.613 258.391 205.877L255.065 204.214L250.983 204.479L249.925 201.304L246.296 199.868L246.334 199.792L243.991 198.923H243.877Z" fill="#331157"/>
<path id="a187103" class="tanjungkarangbarat" fill-rule="evenodd" clip-rule="evenodd" d="M219.537 349.877V353.921C219.462 354.186 218.819 354.98 218.139 355.546L214.586 359.893C213.226 359.893 209.786 359.969 208.69 360.535C207.896 360.913 207.594 361.405 207.329 361.82C207.103 362.198 206.914 362.501 206.347 362.841C205.553 363.332 205.326 363.37 204.268 363.597C203.701 363.71 202.945 363.861 201.774 364.164C199.77 364.655 199.506 364.731 199.581 365.487C199.619 365.6 199.657 365.789 199.808 365.978C199.052 366.734 198.07 367.641 197.011 367.83C196.104 367.981 195.878 367.943 195.537 367.906C195.273 367.868 194.933 367.792 194.328 367.792C192.892 367.792 192.174 367.792 190.851 368.472C189.452 369.153 190.019 370.476 190.284 371.118C190.473 371.534 190.662 371.95 190.662 372.328C190.662 372.932 190.359 373.121 189.037 373.764C188.81 373.877 188.545 373.991 188.281 374.104C187.109 374.709 186.429 374.255 185.219 373.348C184.463 372.781 184.426 372.063 184.426 372.063V371.42L178.756 369.644L178.416 370.098C178.341 370.173 176.904 371.874 176.3 373.083C176.186 373.386 174.977 373.348 174.032 373.386C173.238 373.348 172.331 373.386 171.311 373.461C168.098 373.802 166.737 375.805 166.17 376.674C165.868 377.128 165.717 377.77 165.566 378.45C165.452 378.904 165.263 379.622 165.226 379.735C164.885 379.773 163.789 379.358 163.222 379.131C162.693 378.904 162.164 378.677 161.711 378.602C161.333 378.488 160.501 377.581 159.972 377.052C159.178 376.22 158.649 375.691 158.082 375.502C157.818 375.389 156.911 374.935 154.038 373.046C153.433 372.63 151.808 371.232 151.128 370.627L149.881 368.661L149.578 366.243L147.726 364.731L147.537 364.693C146.781 364.542 144.627 364.088 143.758 363.635C143.078 363.295 142.435 363.143 141.906 363.068L141.641 359.817L141.112 359.628C140.999 359.591 138.504 358.797 137.37 358.495C136.35 358.23 134.763 358.003 134.309 357.928L131.361 356.605L130.567 356.038L130.718 355.735L128.904 354.828C129.509 354.488 130.114 354.224 130.378 354.224C131.361 354.224 133.1 353.279 133.629 352.976L134.12 352.674L133.515 348.63L134.876 344.85L137.408 336.611C137.748 335.326 145.912 305.165 146.215 303.729C146.29 303.276 146.479 302.52 146.668 301.688C147.197 299.42 147.575 297.72 147.613 296.964C148.142 296.321 150.939 294.356 152.64 293.184C154.038 292.239 155.21 291.408 155.815 290.917C157.667 289.405 158.271 285.02 158.385 284.227C158.611 283.433 160.69 276.857 161.975 274.551C162.391 273.795 162.731 273.039 163.033 272.321L167.871 275.156L176.904 277.991L187.033 259.169L204.57 268.769L207.405 263.666L213.301 266.841L214.17 268.088C213.944 268.466 213.83 268.882 213.944 269.298C214.284 270.318 215.682 270.432 216.967 270.432C219.764 270.432 221.994 269.071 222.977 267.71C223.468 267.068 223.619 266.463 223.43 265.934C223.128 264.989 222.296 263.591 221.389 262.079C221.011 261.436 220.596 261.134 220.331 260.869C219.953 260.567 219.802 260.454 219.802 259.395C219.802 257.354 220.029 256.901 220.558 255.843C221.011 254.935 222.561 252.554 223.128 251.685L226.832 251.08L219.424 246.847L223.204 235.849L214.851 234.186L217.572 228.668L217.005 226.022C217.118 225.682 217.421 224.813 218.139 224.057C219.348 222.847 220.596 217.14 220.936 215.439L220.974 215.25L220.558 213.625C221.654 213.323 223.581 212.756 224.413 212.34C225.698 211.698 229.364 210.45 230.007 210.45C231.065 210.45 234.693 209.808 236.318 207.88C236.848 207.238 237.566 206.482 238.246 205.764C239.682 204.328 240.476 203.458 240.703 202.778C240.778 202.589 240.854 202.249 240.929 201.871C241.005 201.455 241.232 200.548 241.421 200.019L245.729 201.569L245.767 201.493L248.564 202.589L249.774 206.255L254.725 205.915L258.202 207.654L258.504 207.578C259.109 207.427 261.15 206.86 261.83 205.839C262.095 205.499 263.72 204.781 265.421 204.252L269.011 205.083L270.863 204.857L271.317 207.616V211.282C271.317 211.471 271.166 212.076 269.465 213.134C268.671 213.587 268.407 213.663 267.915 213.776C267.575 213.852 267.159 213.965 266.517 214.154C264.929 214.683 264.325 216.309 263.909 217.329C263.758 217.707 263.644 218.009 263.531 218.198C263.342 218.463 263.191 218.841 263.002 219.181C262.7 219.861 262.397 220.466 261.868 220.731C260.659 221.335 260.583 221.411 259.676 222.318C258.769 223.225 259.071 225.342 259.336 226.513C258.92 226.816 258.315 227.232 257.824 227.572C256.388 228.517 257.711 230.86 258.126 231.54L258.315 231.843L258.655 231.918C260.243 232.296 261.83 232.863 262.284 233.203C262.133 233.43 261.717 233.808 261.263 234.148L258.202 233.317L255.065 235.017L251.966 234.337L251.21 238.117V238.23C251.285 239.439 251.55 243.521 251.815 244.391C252.155 245.335 253.78 247.225 254.271 247.792L254.422 247.981L259.071 249.417L262.208 251.534C263.153 253.121 263.985 254.822 263.985 255.162C263.909 255.465 263.418 255.691 262.964 255.918C262.662 256.107 262.359 256.258 262.057 256.447C261.037 257.128 259.752 259.017 259.449 262.154C259.298 263.666 259.26 264.044 259.827 264.309C260.016 264.422 260.356 264.498 260.772 264.195C261.792 265.48 262.775 265.518 263.455 265.518C263.644 265.556 263.833 265.556 263.985 265.594C264.325 265.707 264.514 265.858 265.005 266.35C265.307 266.614 265.723 266.992 266.252 267.446C266.933 267.975 267.613 268.202 268.293 268.088C268.596 268.05 268.822 267.975 269.049 267.861L268.633 270.318L268.558 270.696L268.785 270.998L269.843 272.624L270.296 277.688L270.107 286.117L263.644 293.184L250.416 295.868L250.341 295.906L231.367 301.386L230.876 301.537L230.725 301.991L229.137 306.639L222.75 308.265L210.769 311.364L210.051 311.553V312.309V316.542V317.184L210.618 317.411L217.194 320.17V322.929V323.307L217.421 323.572C217.459 323.572 219.764 325.991 219.537 328.447C219.348 330.715 215.682 332.038 215.682 332.038L214.775 332.378L215.115 333.247L215.985 335.628L216.325 336.573L217.27 336.158C217.27 336.158 218.441 335.553 218.668 335.969C219.197 337.065 219.575 341.109 219.575 341.109L219.613 341.524L219.915 341.789L221.503 343.036L219.575 346.324L219.5 346.438L219.462 346.589L218.97 348.781L218.781 349.802L219.537 349.877Z" fill="#FF57FF"/>
<path id="a187106" class="tanjungkarangpusat" fill-rule="evenodd" clip-rule="evenodd" d="M246.032 346.022H243.462L237.717 346.853L236.205 346.324L232.274 346.286C231.594 346.286 229.024 346.098 228.079 346.022L227.663 345.984L227.361 346.324C226.794 347.005 226 347.685 225.736 347.723H223.203C222.599 347.723 221.881 347.949 221.314 348.214L221.049 348.176L221.276 347.156L223.544 343.263L223.997 342.545L223.317 342.053L221.389 340.542C221.276 339.408 220.898 336.271 220.331 335.137C219.688 333.814 218.366 333.852 217.421 334.079L217.194 333.436C218.592 332.756 221.2 331.168 221.427 328.636C221.654 325.915 219.764 323.42 219.084 322.551V319.527V318.923L218.479 318.658L211.94 315.937V313.027L223.241 310.079L230.12 308.34L230.611 308.189L230.762 307.735L232.35 303.049L250.832 297.72L264.325 294.961L264.627 294.885L264.816 294.696L271.77 287.099L271.997 286.872V286.494L272.186 277.688V277.65V277.575L271.695 272.208L271.657 271.981L271.544 271.792L270.561 270.28L271.014 267.635H274L276.381 268.39L277.553 268.882C277.893 269.373 278.725 270.62 279.405 271.527C280.236 272.623 281.106 272.888 282.58 273.342C282.996 273.455 283.487 273.606 284.054 273.795C285.15 274.173 286.057 274.362 286.737 274.438L286.888 275.383L286.926 275.572C287.493 277.008 287.985 277.953 288.4 278.595C281.711 292.088 272.262 311.099 272.262 311.099L271.959 311.704L273.585 313.027C273.66 314.387 273.736 317.146 273.358 318.28C272.753 320.057 272.488 331.924 272.451 333.247V333.89L286.057 338.69L287.418 356.529C286.019 357.209 284.659 357.474 284.507 357.172C284.281 356.831 284.318 356.453 284.318 356.038C284.356 355.584 284.394 354.979 283.903 354.564C283.411 354.11 282.769 354.148 282.24 354.223C280.388 354.488 276.948 355.206 276.306 355.357H273.018L269.54 355.924H263.266L261.566 345.228L253.137 344.586L246.032 346.022Z" fill="#32F1FF"/>
<path id="a187109" class="tanjungkarangutara" fill-rule="evenodd" clip-rule="evenodd" d="M348.873 379.698L349.818 382.721L351.934 384.573L351.443 391.868C350.952 392.586 349.062 395.383 347.021 396.479C344.337 397.991 343.846 401.921 343.77 402.715L339.084 415.112L336.967 416.661C336.929 416.019 336.552 414.885 335.38 414.318C334.813 414.054 334.133 412.655 333.83 411.748L332.923 406.268L332.507 406.079C332.394 406.041 330.391 405.172 328.615 404.907L328.388 404.869L324.873 406.268C324.646 405.285 324.155 404.038 323.21 403.546C322.189 403.017 320.98 402.942 320.489 402.904C319.657 402.488 316.558 400.939 315.726 400.674C314.781 400.372 312.287 401.128 310.359 401.808L309.944 401.959L309.83 402.375C309.83 402.45 309.226 404.567 309.528 406.948C309.679 408.233 309.755 408.649 310.435 408.724C310.511 408.762 310.737 408.762 310.926 408.649C311.38 409.14 311.644 409.594 312.136 410.425L312.476 410.992C312.854 411.597 312.74 411.975 312.589 412.693C312.476 413.146 312.363 413.638 312.363 414.205C312.363 415.112 311.72 415.717 310.737 416.359C310.322 416.624 309.112 416.775 308.394 416.775H304.728C304.01 416.775 303.329 417.266 302.649 417.795C302.309 418.022 301.78 418.438 301.591 418.476C301.062 418.476 298.681 417.493 297.32 416.397C296.602 415.792 296.451 415.301 296.3 414.583C296.186 414.167 296.073 413.751 295.846 413.26C295.695 412.92 295.733 412.806 295.997 412.126C296.148 411.672 296.375 411.143 296.489 410.387C296.791 408.573 295.09 407.175 293.994 406.646L291.008 405.474C291.235 404.378 291.689 402.299 291.689 401.203C291.689 399.276 290.177 397.802 288.854 397.802C288.211 397.802 286.019 397.953 284.885 398.028C284.205 396.252 283.109 393.682 282.24 393.153C281.559 392.661 279.859 391.414 279.329 390.998L272.866 378.337L272.148 378.602C267.915 380.265 263.04 381.965 262.246 381.965C261.415 381.965 260.772 381.852 260.47 381.776L257.824 378.564C256.426 376.901 256.048 376.523 255.103 375.88C254.725 375.616 254.12 374.822 253.666 374.18C253.213 373.537 252.797 372.97 252.381 372.592C252.155 372.328 251.852 372.025 251.55 371.647C250.718 370.665 249.66 369.455 248.526 368.775C247.77 368.283 247.128 367.603 246.372 366.696C245.881 366.167 245.389 365.562 244.747 364.957C243.273 363.483 242.139 360.913 241.874 358.381C241.723 356.983 241.95 356.416 242.139 355.887C242.29 355.509 242.441 355.093 242.441 354.488C242.479 354.148 243.537 353.09 244.633 352.372L244.822 352.22L246.75 347.609L253.251 346.287L260.129 346.816L261.83 357.625H269.616L273.093 357.058H276.419L276.57 357.02C276.608 357.02 280.539 356.189 282.466 355.924C282.542 355.887 282.58 355.887 282.618 355.887C282.618 355.924 282.618 355.924 282.618 355.962C282.618 356.491 282.58 357.247 283.033 358.041C283.449 358.721 284.129 358.948 284.923 358.948C286.397 358.948 288.211 358.041 288.703 357.814L289.194 357.55L288.778 351.994L293.049 349.953L298.076 349.688C299.059 350.028 300.608 350.633 301.137 350.973C301.213 351.049 301.251 351.162 301.326 351.654C301.402 352.22 301.515 352.976 302.007 353.808C302.914 355.357 305.484 355.244 307.978 355.131C308.507 355.093 309.037 355.055 309.528 355.055C311.266 355.055 315.877 355.244 317.729 355.32V356.491L317.918 356.718C319.09 358.306 320.451 360.271 320.602 360.724C320.715 361.102 320.677 362.123 320.64 363.181C320.602 363.975 320.564 364.844 320.564 365.827C320.564 369.228 322.907 369.228 323.663 369.228C324.117 369.228 325.024 369.455 325.666 369.644C326.12 370.438 327.405 372.441 328.161 373.197C329.068 374.104 332.016 376.183 333.528 376.787C334.926 377.354 341.805 379.66 344.111 380.227C344.564 380.34 345.018 380.378 345.471 380.378C346.794 380.378 348.079 380 348.873 379.698Z" fill="#FF33A8"/>
<path id="a187117" class="enggal" fill-rule="evenodd" clip-rule="evenodd" d="M349.1 377.127L348.759 377.921C347.852 378.337 345.963 378.942 344.526 378.601C342.259 377.997 335.531 375.767 334.17 375.238C332.848 374.709 330.126 372.781 329.37 372.025C328.728 371.383 327.405 369.266 326.952 368.51L326.8 368.246L326.498 368.132C326.309 368.057 324.646 367.527 323.663 367.527C322.87 367.527 322.265 367.527 322.265 365.827C322.265 364.882 322.303 364.013 322.34 363.257C322.378 361.858 322.454 360.875 322.227 360.195C321.925 359.326 320.186 356.945 319.43 355.924V353.694L318.599 353.657C318.334 353.657 311.796 353.354 309.528 353.354C309.037 353.354 308.47 353.392 307.903 353.43C306.391 353.505 303.859 353.619 303.443 352.938C303.14 352.409 303.065 351.918 303.027 351.464C302.914 350.822 302.838 350.066 302.082 349.537C301.137 348.932 298.756 348.138 298.454 348.025L298.303 347.987L292.785 348.29L288.627 350.179L287.682 337.48L274.152 332.68C274.265 327.653 274.567 319.943 274.945 318.809C275.55 317.033 275.323 313.027 275.285 312.573L275.248 312.195L274.076 311.25C275.739 307.924 283.752 291.786 289.723 279.767C289.837 279.805 289.912 279.805 289.988 279.805C290.668 279.805 290.97 279.427 291.122 279.2C291.386 278.784 291.348 278.293 291.235 277.953C291.764 277.197 293.049 275.42 293.843 274.4C293.994 274.627 294.145 274.967 294.259 275.231C294.485 275.685 294.674 276.138 294.939 276.554C295.733 277.877 296.791 281.997 296.791 282.526C296.64 283.093 294.712 285.512 293.049 287.439L292.936 287.553L289.194 299.345L296.035 301.121L296.526 304.258L298 307.093L295.128 309.965L297.509 313.405L297.585 313.518C298.945 314.841 302.498 318.469 303.178 319.338C303.896 320.283 304.501 320.51 304.992 320.661C305.257 320.737 305.446 320.813 305.673 320.964C306.126 321.266 307.222 321.833 308.507 322.475C309.717 323.08 310.964 323.685 311.644 324.101C311.833 324.214 312.098 324.365 312.4 324.554C314.139 325.537 317.352 327.389 318.448 328.976C319.506 330.45 321.887 331.546 323.966 332.491C324.911 332.945 325.78 333.361 326.309 333.701C326.687 333.927 326.989 334.154 327.329 334.343C328.501 335.099 329.446 335.704 330.731 336.989C331.789 338.047 333.944 339.521 336.022 340.957C337.345 341.864 338.592 342.734 339.273 343.263C340.747 344.51 341.805 346.249 342.448 347.534L342.674 347.987C345.433 353.43 346.038 355.32 346.038 355.924V363.294C346.038 365.675 346.907 370.324 347.172 371.42C347.399 372.176 347.626 375.275 347.739 377.203L349.1 377.127Z" fill="#A91FFF"/>
<path id="a187105" class="tanjungkarangtimur" fill-rule="evenodd" clip-rule="evenodd" d="M336.589 339.294C334.737 338.047 332.81 336.686 331.903 335.779C330.504 334.381 329.446 333.701 328.237 332.907C327.934 332.718 327.594 332.529 327.254 332.302C326.611 331.849 325.742 331.433 324.684 330.979C322.87 330.148 320.64 329.09 319.846 327.956C318.523 326.104 315.235 324.214 313.232 323.08C312.967 322.891 312.703 322.778 312.514 322.627C311.758 322.211 310.511 321.568 309.263 320.964C308.129 320.397 306.958 319.792 306.58 319.565C306.202 319.301 305.862 319.149 305.559 319.074C305.144 318.923 304.917 318.847 304.539 318.318C303.707 317.222 299.399 312.913 298.87 312.346L297.32 310.154L300.117 307.395L298.152 303.842L297.547 299.761L291.348 298.135L294.448 288.422C298.492 283.773 298.492 282.904 298.492 282.601C298.492 281.543 297.282 277.159 296.375 275.685C296.186 275.307 295.997 274.891 295.808 274.513C295.279 273.417 294.826 272.51 293.956 272.397C293.767 272.397 293.541 272.397 293.314 272.51L293.767 271.603C297.811 272.132 304.312 273.115 305.257 273.493C306.731 274.098 311.153 274.929 311.38 274.967L318.296 276.025C318.485 276.554 318.939 277.575 319.468 279.2C319.997 280.749 320.489 281.619 320.904 282.261C321.169 282.715 321.358 283.017 321.433 283.395C321.66 284.227 322.265 284.907 322.756 285.361C321.963 286.457 320.375 288.724 319.506 290.463C318.674 292.126 318.41 293.675 318.145 295.301C318.032 295.981 317.918 296.661 317.767 297.417C317.163 300.025 316.898 303.502 316.898 304.712C316.898 305.657 317.314 306.488 318.032 306.979C319.09 307.622 320.64 307.509 322.605 306.601C323.852 306.035 324.495 305.694 324.948 305.468C325.855 305.014 326.082 304.901 329.068 303.805C330.429 303.275 331.033 303.2 331.26 303.162C331.26 303.238 331.298 303.351 331.298 303.427C331.336 303.842 331.374 304.409 331.752 304.901C332.243 305.543 332.432 307.471 332.432 308.642V309.852L333.604 309.436C333.604 309.436 336.665 308.34 337.761 308.075C338.252 307.924 339.5 308.189 340.444 308.453L340.785 311.023L341.616 310.91C341.654 310.91 344.829 310.457 347.285 310.154L349.024 314.274L350.536 315.408L353.257 315.672C353.522 316.466 354.089 317.827 355.411 318.923C356.356 319.716 356.696 320.019 357.263 319.565L357.679 318.923C358.133 318.772 358.7 318.507 359.418 318.205C359.947 317.94 360.816 317.524 361.194 317.449C361.307 317.789 361.307 318.696 361.307 319.414C361.307 321.001 361.307 325.272 361.043 326.898C360.929 327.616 360.741 327.691 359.833 327.994C359.418 328.107 358.926 328.296 358.397 328.561C357.944 328.787 357.566 329.014 357.15 329.279C355.941 330.035 354.693 330.828 351.896 331.017C350.536 331.131 349.1 331.357 348.835 332.453C348.797 332.605 348.759 332.756 348.797 332.907C346.718 333.172 342.901 333.663 341.654 333.852C339.537 334.192 338.517 336.195 338.517 336.233L336.589 339.294Z" fill="#33FFD2"/>
<path id="a187115" class="wayhalim" fill-rule="evenodd" clip-rule="evenodd" d="M388.633 221.222L383.682 224.51L379.638 228.025L374.687 228.29C373.364 228.176 371.021 228.214 370.303 229.235C370 229.613 369.963 230.104 370.152 230.557C370.53 231.54 371.512 232.372 372.419 233.165C373.024 233.694 373.667 234.224 373.856 234.602C374.233 235.395 375.027 235.849 375.67 236.189C375.896 236.302 376.199 236.491 376.312 236.605V241.291C376.312 241.972 375.519 244.353 374.952 245.789L374.876 246.053L376.312 252.97L376.539 255.313L373.062 255.956C372.193 255.578 370.454 255.351 369.131 257.203C367.846 258.979 364.936 260.302 364.86 260.378L362.517 261.663H361.043C360.552 261.663 359.531 261.55 358.435 260.718C358.246 260.567 358.057 260.416 357.83 260.227C356.81 259.433 355.752 258.564 354.769 258.791C354.315 258.866 353.975 259.168 353.748 259.584C353.559 260 352.879 260.869 352.274 261.663C350.649 263.704 350.007 264.649 350.007 265.367C350.007 266.236 350.271 269.373 350.574 271.679C350.725 273.039 351.254 273.984 351.707 274.702C352.01 275.269 352.274 275.685 352.274 276.101V276.592C352.274 277.272 352.312 278.973 351.934 279.276C351.896 279.313 351.783 279.313 351.632 279.238C349.667 278.709 348.155 278.179 346.643 276.63C345.056 275.042 344.224 273.72 344.224 273.682L344.035 273.379L343.657 273.304C343.544 273.266 340.785 272.661 338.517 273.946C336.665 275.005 333.415 275.836 333.377 275.836L333.188 275.874L329.295 278.898L323.89 284.076C323.55 283.773 323.172 283.357 323.096 282.979C322.945 282.375 322.643 281.921 322.341 281.392C322 280.787 321.547 280.031 321.093 278.671C320.224 276.101 319.657 274.929 319.619 274.891L319.43 274.476L311.644 273.304C310.435 273.077 306.958 272.359 305.862 271.905C304.577 271.414 297.169 270.356 294.561 270.016L296.148 266.879C297.887 263.326 298.076 263.061 298.341 262.721C298.492 262.457 298.681 262.192 299.21 261.247C300.004 259.811 300.722 259.055 301.326 258.375C301.78 257.883 302.233 257.392 302.611 256.75C302.763 256.485 302.952 256.22 303.103 255.918C303.934 254.633 305.106 252.894 305.824 249.984C306.353 247.868 306.882 246.809 307.487 245.562C307.827 244.844 308.205 244.05 308.621 243.03C309.037 241.972 309.604 240.687 310.17 239.439C311.531 236.416 312.06 235.168 312.06 234.488C312.06 234.186 312.325 231.502 312.552 228.894C312.967 224.397 313.496 218.765 313.496 217.518C313.496 215.515 313.194 213.285 313.194 213.172L311.833 208.787L317.352 209.052L317.578 208.939C318.485 208.409 320.262 207.616 321.131 207.616C321.396 207.616 321.433 207.616 321.698 208.183C321.887 208.598 322.114 209.09 322.643 209.468C323.626 210.11 326.611 209.808 328.312 209.581L328.993 209.505L329.03 208.825C329.03 208.825 329.333 206.066 329.597 205.008C329.673 204.63 330.958 203.798 332.205 203.307L332.621 203.156L333.263 200.17L333.868 189.625C333.868 189.587 334.435 185.468 335.493 183.049C336.552 180.668 336.06 176.661 335.871 175.528L337.723 172.353L342.145 164.113L340.936 160.787L341.163 156.819C342.221 157.499 343.166 158.104 343.922 158.557C348.041 160.976 349.44 161.921 349.704 162.11L356.734 169.707L356.885 169.82C359.758 171.786 364.067 174.885 364.596 175.565C364.898 175.981 366.183 177.228 368.829 179.874C373.1 184.069 381.037 191.931 381.755 193.518C382.246 194.652 382.322 196.844 382.397 198.961C382.473 201.342 382.548 203.572 383.191 204.894C384.4 207.313 388.218 216.384 388.218 218.954C388.218 219.408 388.369 220.202 388.633 221.222Z" fill="#FFC300"/>
<path id="a187118" class="kedamaian" fill-rule="evenodd" clip-rule="evenodd" d="M418.227 348.403L417.585 349.121C416.3 350.52 414.485 352.107 413.805 352.258C413.352 352.334 412.558 352.485 412.067 352.901L409.572 353.43L409.383 353.619C409.383 353.619 408.325 354.677 407.002 355.471C406.246 355.924 405.83 356.416 405.641 356.869L404.243 356.491H402.92L398.347 358.192L398.385 358.797C398.498 360.346 398.498 362.198 398.309 363.106C398.082 363.03 397.856 362.992 397.553 362.992C396.419 362.992 395.021 363.143 393.244 363.37L391.506 363.559C388.709 363.861 387.878 366.961 387.5 368.283C387.462 368.435 387.424 368.586 387.386 368.661C387.197 369.228 387.122 370.098 387.046 371.08C387.008 371.685 386.933 372.29 386.857 372.895C386.593 372.857 386.328 372.857 386.063 372.932C385.119 373.083 381.717 372.819 379.865 372.63C379.525 372.554 378.504 372.29 377.9 371.912C376.879 371.232 374.611 371.42 373.856 371.496L368.035 372.743L367.884 373.159C367.43 374.255 366.712 375.351 366.41 375.427C364.898 375.427 363.613 377.014 363.537 377.128L362.101 378.564H358.208C356.696 378.564 351.972 376.976 350.271 376.334L349.515 376.069L349.364 376.372C349.289 374.973 349.062 371.95 348.835 371.005C348.533 369.871 347.739 365.449 347.739 363.295V355.924C347.739 354.715 346.681 352.107 344.186 347.194L343.959 346.778C343.241 345.38 342.07 343.376 340.331 341.978C339.802 341.524 338.933 340.92 337.988 340.239L339.991 337.065C339.991 337.027 340.671 335.742 341.919 335.515C343.582 335.25 350.309 334.419 350.385 334.419L352.69 334.117L350.8 332.869C351.027 332.832 351.443 332.756 352.048 332.718C355.26 332.491 356.81 331.509 358.057 330.715C358.397 330.488 358.775 330.261 359.153 330.072C359.607 329.846 359.985 329.732 360.363 329.581C361.383 329.241 362.441 328.901 362.706 327.2C363.008 325.424 363.008 321.191 363.008 319.414C363.008 317.6 363.008 315.748 361.307 315.748C360.741 315.748 359.947 316.088 358.7 316.655C358.095 316.92 357.074 317.411 356.772 317.411C356.621 317.411 356.47 317.449 356.356 317.487C355.033 316.353 354.807 314.765 354.807 314.765L354.693 314.085L351.141 313.783L350.422 313.216L349.326 310.646C349.969 310.117 350.196 309.625 350.007 309.096C349.704 308.189 348.495 308.302 347.928 308.378C346.114 308.567 343.544 308.907 342.221 309.096L341.994 307.169L341.503 307.017C341.011 306.828 338.63 306.11 337.345 306.413C336.589 306.602 335.115 307.093 334.095 307.471C334.019 306.337 333.755 304.75 333.112 303.918C333.037 303.767 332.999 303.54 332.999 303.276C332.961 302.822 332.885 302.142 332.243 301.726C331.563 301.31 330.542 301.424 328.463 302.18C325.402 303.351 325.137 303.465 324.193 303.956C323.739 304.183 323.096 304.485 321.887 305.052C319.959 305.959 319.204 305.695 318.939 305.543C318.599 305.317 318.561 304.863 318.561 304.712C318.561 303.578 318.863 300.252 319.393 297.795C319.582 297.002 319.695 296.283 319.808 295.565C320.073 294.016 320.3 292.655 321.018 291.219C322.038 289.178 324.268 286.192 324.608 285.739L330.429 280.183L333.944 277.461C334.7 277.272 337.572 276.479 339.386 275.42C340.671 274.702 342.296 274.816 342.977 274.891C343.355 275.458 344.148 276.554 345.433 277.839C347.248 279.654 349.024 280.258 351.178 280.901C352.048 281.128 352.615 280.863 352.955 280.636C354.013 279.805 353.975 277.953 353.975 276.592L353.937 276.101C353.937 275.194 353.559 274.513 353.182 273.833C352.766 273.191 352.388 272.51 352.237 271.49C351.934 269.071 351.707 266.085 351.67 265.443C351.783 265.027 352.917 263.553 353.597 262.683C354.315 261.814 354.92 261.02 355.222 260.491C355.6 260.643 356.356 261.247 356.772 261.55C356.999 261.739 357.226 261.928 357.415 262.079C358.926 263.213 360.325 263.364 361.043 263.364H362.933L365.616 261.89C365.767 261.814 368.98 260.34 370.492 258.224C371.361 257.014 372.193 257.43 372.457 257.581L372.722 257.77L378.353 256.712L377.975 252.743L376.615 246.167C376.993 245.184 378.013 242.425 378.013 241.291V236.491C378.013 235.546 377.182 235.093 376.501 234.715C376.048 234.45 375.556 234.186 375.367 233.846C375.027 233.165 374.309 232.561 373.553 231.88C372.873 231.313 372.155 230.709 371.815 230.142C372.344 229.991 373.515 229.915 374.649 229.991L380.319 229.688L384.703 225.871L389.125 222.923C390.107 226.022 391.695 230.406 393.509 235.282C394.492 237.928 395.474 240.687 395.55 241.027C395.55 241.896 397.856 264.8 398.12 267.408V267.597L398.196 267.748C398.838 268.92 404.583 279.276 407.191 281.317C408.589 282.375 409.496 285.587 410.177 287.893C410.668 289.632 411.046 290.954 411.575 291.635C412.482 292.769 416.111 305.09 417.093 309.965C417.774 313.329 417.698 317.146 417.66 319.943C417.66 320.548 417.622 321.153 417.622 321.682C417.622 322.929 417.32 325.348 417.018 327.691C416.602 331.055 416.337 333.172 416.526 334.003C416.715 334.948 417.585 342.809 418.227 348.403Z" fill="#76C4A9"/>
<path id="a187111" class="tanjungsenang" fill-rule="evenodd" clip-rule="evenodd" d="M399.632 147.786L399.518 147.861L399.556 147.899L397.704 151.339C397.515 151.49 397.062 151.83 396.533 151.868C395.399 151.263 390.07 145.972 385.421 141.096L384.249 139.849L383.985 141.55C383.947 141.55 383.72 143.061 383.002 144.006C382.359 144.838 380.432 146.425 379.714 146.992L377.219 149.146L377.181 149.487C377.03 150.431 376.577 153.039 376.161 154.211C374.574 155.231 361.912 158.217 350.46 160.598C349.855 160.183 348.306 159.162 344.753 157.083C340.369 154.476 328.652 145.82 326.952 144.535C326.611 143.666 325.326 141.096 321.811 140.567C317.654 139.924 310.851 137.354 310.284 136.22L310.019 135.653C309.263 134.142 308.47 132.403 305.9 131.269C303.632 130.249 299.437 129.266 297.66 128.85L296.98 128.699C296.64 128.586 295.733 128.208 294.826 127.83C293.125 127.112 290.97 126.205 289.345 125.865C288.4 125.638 287.531 125.676 286.775 125.676C285.188 125.713 284.507 125.713 283.978 124.391C282.844 121.518 281.144 118.948 281.068 118.835L271.506 112.107L259.411 108.214V104.737C259.789 103.641 260.734 100.693 260.848 99.6346C260.999 99.4834 261.452 99.1811 261.792 98.9543C262.7 98.3496 263.985 97.5181 264.703 96.233C265.572 94.7212 266.63 93.7385 266.933 93.4362C267.575 93.2094 269.843 92.2645 270.637 91.7354C271.619 91.0551 272.262 90.1102 272.337 90.0346C272.64 89.5055 273.585 87.7669 273.585 86.7842V82.8535L271.204 78.696L271.015 78.4692C270.977 78.4692 269.654 77.3732 268.898 76.3527C268.407 75.7102 267.915 74.9921 267.613 74.5007L268.52 73.7448C269.541 73.7448 272.866 73.6314 276.041 72.8755C276.608 72.7622 277.024 72.6488 277.364 72.5732C278.347 72.5732 280.426 72.8 282.315 73.1023C282.58 73.7448 283.033 74.9165 283.222 75.6724C283.411 76.4283 283.903 77.4488 284.47 78.6204C284.848 79.3385 285.188 80.1322 285.528 80.8881C286.511 83.1559 289.005 84.1385 289.118 84.1763L295.09 84.2141V82.8913C295.581 83.0425 296.148 83.0803 296.791 83.0803C298.756 83.0803 300.759 82.2488 301.893 83.0803C303.027 83.9496 302.725 85.6503 303.292 86.4818C303.859 87.3511 306.126 86.7842 308.092 88.1826C310.095 89.6188 321.698 94.6834 321.698 94.6834C321.698 94.6834 326.8 94.4188 327.632 94.1165C328.501 93.8519 329.597 93.5496 329.597 93.5496V89.0519L332.999 83.9496C332.999 83.9496 335.569 81.1149 336.4 79.1118C337.27 77.1464 337.837 72.9133 338.668 71.4771C339.537 70.0787 339.802 69.7763 341.2 68.6425C342.637 67.5086 342.637 65.8456 342.07 63.8425C341.503 61.8771 340.936 60.1763 340.936 58.4755C340.936 56.7748 338.97 56.4724 341.503 55.6409C344.035 54.8094 344.035 53.6755 346.303 53.6755C348.57 53.6755 353.937 54.2425 355.374 53.6755C356.772 53.1086 361.307 52.2393 362.177 51.9748C363.008 51.6724 362.744 53.3732 363.311 54.507C363.878 55.6409 364.444 57.9086 364.444 57.9086L367.808 59.6094C367.808 59.6094 367.544 57.6063 369.509 58.4755C371.512 59.307 377.144 61.5748 377.144 61.5748L378.844 66.6771C378.844 66.6771 381.415 72.611 381.981 73.7448C382.548 74.8787 383.38 77.1464 383.38 77.1464L397.553 78.0157C397.553 78.0157 399.783 76.8818 400.917 76.5795C402.051 76.3149 402.618 74.0472 405.755 74.0472C408.854 74.0472 412.255 74.0472 412.255 74.0472L402.92 88.1826H406.019V91.5842L407.153 93.285C407.153 93.285 408.589 93.5496 409.723 94.1165C410.857 94.6834 413.956 95.8173 413.956 95.8173C413.956 95.8173 414.523 95.8173 415.09 96.6866C415.657 97.5181 418.756 98.3874 418.756 98.3874C418.756 101.487 418.189 104.321 418.189 104.321C418.189 104.321 416.224 102.62 415.09 102.356C413.956 102.053 392.715 107.723 392.715 107.723L393.585 111.124C393.585 111.124 396.419 111.956 397.251 111.956C398.12 111.956 399.254 111.691 399.254 111.691C399.254 111.691 402.051 109.424 400.652 112.825C399.254 116.189 400.652 115.357 399.254 116.189C397.818 117.058 396.684 117.323 396.684 117.323L397.553 119.326C397.553 119.326 398.952 120.46 399.254 121.291C399.518 122.161 400.388 124.126 400.388 124.126C400.388 124.126 400.652 124.693 402.051 124.693C403.487 124.693 404.885 124.126 405.452 125.26C406.019 126.394 406.019 130.06 406.019 130.06L401.786 131.761V145.707L399.632 147.786Z" fill="#333F57"/>
<path id="a187112" class="sukabumi" fill-rule="evenodd" clip-rule="evenodd" d="M519.821 247.83L525.188 250.627L520.652 280.069L572.167 310.91L577.534 311.477C577.534 311.477 576.703 314.614 576.967 315.446C577.27 316.277 578.366 320.246 578.366 320.246L580.369 322.816C580.369 322.816 580.936 324.214 580.936 325.65C580.936 327.049 580.369 330.148 580.369 330.148L579.802 333.285L563.399 340.92L565.931 363.295L585.169 373.197C585.169 373.197 549.528 396.403 545.824 408.838C544.123 414.658 540.381 429.739 536.866 444.139L531.235 436.806L523.222 437.751L523.071 437.827C523.033 437.827 521.106 438.923 519.783 439.452C519.103 439.717 518.951 439.754 518.914 439.754V440.51L518.385 439.906L513.66 444.365L511.884 445.235L508.369 449.619L508.255 449.883C508.104 450.261 507.651 451.32 506.97 451.66C506.063 452.113 505.761 452.643 505.534 453.096C505.421 453.323 505.307 453.55 505.043 453.814C504.4 454.457 504.06 455.439 503.758 456.346C503.607 456.838 503.418 457.367 503.229 457.632C502.775 458.312 502.51 459.37 502.246 460.315C502.17 460.617 502.133 460.882 502.057 461.109C501.414 461.638 497.786 462.62 494.347 462.62C493.024 462.62 492.495 462.432 492.306 462.318L492.457 462.091L488.602 453.247C485.087 444.403 481.307 434.387 481.307 433.178C481.307 432.422 481.421 431.591 481.496 430.608C481.685 429.096 481.874 427.244 481.874 424.674C481.874 420.668 480.854 419.383 479.455 417.606C479.266 417.342 479.077 417.115 478.888 416.813C477.112 414.469 473.068 411.559 471.783 410.917C470.725 410.387 466.907 407.326 466.454 406.683C466.114 406.154 464.98 405.512 461.011 403.395C459.008 402.337 456.022 400.75 455.455 400.22C455.266 399.767 454.926 399.276 454.435 398.595C453.83 397.726 452.999 396.554 452.054 394.854C450.391 391.792 448.085 392.51 446.951 392.85C446.8 392.926 446.573 393.002 446.498 393.002C445.893 392.964 442.87 391.754 440.866 390.961L439.733 390.507C437.918 389.789 437.351 387.786 436.785 385.858C436.633 385.291 436.444 384.724 436.255 384.195C435.386 381.852 432.778 381.058 432.098 380.869C431.569 380.567 429.301 379.131 428.129 377.959C426.958 376.787 426.693 375.049 426.693 375.049L426.655 374.746L426.429 374.558C425.975 374.104 424.69 372.781 424.274 372.139C424.085 371.836 423.859 370.249 423.707 369.228C423.443 367.376 423.254 366.205 422.876 365.638C422.536 365.109 421.742 362.803 421.288 361.405L419.285 350.822L420.192 350.746C420.117 350.104 418.454 335.099 418.189 333.663C418.076 333.058 418.416 330.224 418.718 327.918C419.021 325.537 419.323 323.043 419.323 321.682C419.323 321.153 419.323 320.586 419.361 319.943C419.399 317.109 419.474 313.178 418.756 309.625C417.925 305.581 414.259 292.239 412.936 290.576C412.596 290.161 412.18 288.724 411.802 287.439C411.008 284.718 410.063 281.354 408.249 279.956C406.322 278.444 401.559 270.28 399.783 267.068C398.762 256.939 397.288 241.745 397.251 241.027C397.251 240.649 396.986 239.893 395.399 235.546C396.608 235.811 398.573 236.189 399.254 236.189C400.161 236.189 402.466 235.471 402.92 235.32L403.185 235.131C403.185 235.131 405.452 233.165 407.153 231.767C408.136 230.935 408.892 231.502 409.043 231.616C409.043 231.654 410.668 233.808 411.159 235.358C411.424 236.151 411.953 236.454 412.293 236.567C413.427 236.945 414.636 236.076 415.506 235.433L415.846 235.206C416.262 234.904 418.189 234.45 419.739 234.224L424.161 233.657H428.281L434.63 234.488C434.63 234.488 437.389 234.526 438.674 234.753C439.77 234.98 440.866 235.055 441.358 235.055L445.326 238.457L487.695 237.89L513.32 245.789L513.358 245.638C515.248 246.243 518.12 247.225 519.821 247.83Z" fill="#FFFF33"/>
<path id="a187102" class="sukarame" fill-rule="evenodd" clip-rule="evenodd" d="M403.033 147.105L406.889 147.332L455.266 109.121L452.167 118.457L462.334 119.893L463.203 167.704L468.003 164.869L470.007 166.57L485.843 175.905L486.674 181.575C486.674 181.575 488.111 194.879 488.111 196.315C488.111 197.713 488.678 214.986 488.678 214.986L515.285 219.786L514.983 244.391C514.567 244.353 514.152 244.315 513.774 244.277L513.811 244.164L487.959 236.189L445.969 236.756L442 233.354H441.698C441.66 233.354 440.337 233.354 439.015 233.09C437.541 232.825 434.744 232.825 434.744 232.825L428.394 231.956H424.048L419.474 232.523C418.87 232.636 415.846 233.165 414.901 233.808C414.788 233.883 414.674 233.959 414.523 234.072C414.183 234.299 413.163 235.017 412.86 234.979C412.86 234.979 412.822 234.942 412.785 234.791C412.18 232.976 410.479 230.709 410.328 230.52C409.648 229.839 407.871 228.932 406.057 230.444C404.583 231.691 402.693 233.316 402.202 233.732C401.181 234.072 399.707 234.488 399.254 234.488C398.763 234.488 396.873 234.11 395.399 233.808L391.544 219.257L390.107 220.239C389.994 219.635 389.881 219.219 389.881 218.954C389.881 215.855 385.761 206.255 384.703 204.139C384.249 203.156 384.174 201.002 384.098 198.923C384.022 196.504 383.947 194.274 383.304 192.838C382.548 191.099 376.577 185.128 370.038 178.665C368.035 176.699 366.183 174.885 365.956 174.545C365.087 173.411 359.266 169.405 357.906 168.498L351.934 161.997C376.955 156.819 377.484 155.496 377.673 155.005C378.164 153.757 378.655 150.961 378.807 150.053L380.81 148.277C381.074 148.088 383.455 146.198 384.363 145.027C384.741 144.498 385.005 143.893 385.232 143.364C394.983 153.568 396.003 153.568 396.419 153.568C397.855 153.568 398.876 152.586 398.989 152.472L400.803 149.184L400.841 149.222L403.033 147.105Z" fill="#33A1FF"/>
</svg>
