<?xml version="1.0" encoding="UTF-8"?>
<!DOCTYPE svg PUBLIC "-//W3C//DTD SVG 1.1//EN" "http://www.w3.org/Graphics/SVG/1.1/DTD/svg11.dtd">
<!-- Creator: CorelDRAW X7 -->
<svg xmlns="http://www.w3.org/2000/svg" xml:space="preserve" width="210mm" height="297mm" version="1.1" style="shape-rendering:geometricPrecision; text-rendering:geometricPrecision; image-rendering:optimizeQuality; fill-rule:evenodd; clip-rule:evenodd"
viewBox="0 0 21000 29700"
 xmlns:xlink="http://www.w3.org/1999/xlink">
 <defs>
  <!-- <style type="text/css">
   <![CDATA[
    .fil0 {fill:#76C4A9}
    .fil1 {fill:#76C4A9}
   ]]>
  </style> -->
  <style type="text/css">
   <![CDATA[    .fil0 {fill:#1bA9}    /* Warna Hijau Mint */    
   .fil1 {fill:#A55733}    /* Warna Oranye Terang */    
   .fil2 {fill:#31F}    /* Warna Biru Terang */    
   .fil3 {fill:#FE215F}    /* Warna Merah Muda Terang */    
   .fil4 {fill:#A933FF}    /* Warna Ungu Terang */    
   .fil5 {fill:#33FF57}    /* Warna Hijau Terang */    
   .fil6 {fill:#FFC300}    /* Warna Kuning Terang */    
   .fil7 {fill:#33FFD2}    /* Warna Cyan Terang */    
   .fil8 {fill:#FF5733}    /* Warna Oranye Terang */    
   .fil9 {fill:#331157}    /* Warna Hijau Terang */    
   .fil10 {fill:#FF57ff}   /* Warna Oranye Terang */    
   .fil11 {fill:#32f1FF}   /* Warna Biru Terang */    
   .fil12 {fill:#FF33A8}   /* Warna Merah Muda Terang */    
   .fil13 {fill:#A91fFF}   /* Warna Ungu Terang */    
   .fil14 {fill:#33FFD2}   /* Warna Cyan Terang */    
   .fil15 {fill:#FFC300}   /* Warna Kuning Terang */    
   .fil16 {fill:#76C4A9}   /* Warna Hijau Mint */    
   .fil17 {fill:#333f57}   /* Warna Hijau Terang */    
   .fil18 {fill:#FFff33}   /* Warna Oranye Terang */    
   .fil19 {fill:#33A1FF}   /* Warna Biru Terang */  ]]>
</style>

 </defs>
 <g id="Layer_x0020_1">
  <metadata id="CorelCorpID_0Corel-Layer"/>
  <path class="fil0 rajabasa" d="M5927 9894l47 13 30 -74 15 -45c0,0 30,15 60,0 29,-15 59,-83 59,-83 0,0 173,-82 225,-112 53,-30 210,-75 210,-75l45 -15 164 -97 128 -217c0,0 15,-53 52,-68 38,-15 247,-105 300,-112 52,-8 105,-30 142,-37 37,-8 67,-15 67,-15 0,0 30,-31 30,-60 0,-30 -30,-53 23,-83 52,-30 112,-60 135,-82 22,-23 22,-38 59,-83 38,-44 30,-44 98,-112 67,-67 112,-112 135,-142 22,-30 7,0 37,-82 30,-83 37,-143 37,-143l-74 53c0,0 -38,7 -68,-8 -30,-15 -37,-135 -37,-135l60 -112c60,0 60,0 60,0l74 -15 23 -75 15 -37c0,0 127,15 150,0 22,-15 30,-45 30,-45 0,0 22,-45 45,-30 22,15 -23,45 22,15 45,-30 105,-105 105,-105 0,0 67,0 15,-37 -53,-38 -38,22 -53,-38 -15,-60 0,-82 23,-82 22,0 82,0 82,0 0,0 8,-45 23,-75 15,-30 15,-30 15,-30l22 -45c0,0 67,-7 90,-22 22,-15 -8,45 22,-15 30,-60 60,-128 75,-158 15,-30 23,-37 45,-67 23,-30 30,-37 75,-45 45,-7 82,-15 82,-15l60 -247c0,0 23,-120 23,-150 0,-30 -45,-75 -45,-112 0,-38 22,-97 22,-97l68 -23c0,0 45,-7 90,-67 45,-60 60,-113 60,-113 0,0 7,-89 97,-134 90,-45 120,-60 142,-60 23,0 180,-60 180,-60l60 -30c0,0 52,-15 112,0 60,15 23,37 112,45 90,7 173,15 173,15l112 30 127 52 38 1617c0,0 -30,53 -45,83 -15,30 -23,75 -23,75 0,0 90,7 23,37 -68,30 -113,23 -128,45 -15,23 -37,67 -37,112 0,21 8,36 22,45l-122 0c-12,-5 -51,-25 -67,-61 -9,-21 -19,-42 -28,-61 -14,-28 -26,-54 -30,-70 -8,-32 -30,-84 -31,-86l-5 -11 -13 -2c-38,-7 -98,-15 -138,-17 -4,-1 -10,-2 -17,0 -1,0 -1,0 -1,0 -8,0 -15,1 -19,3 -4,1 -6,2 -9,4 -3,1 -7,1 -11,2 -94,22 -196,22 -197,22l-9 0 -66 55 10 17c1,1 24,39 47,69 20,27 50,53 60,61l55 96 0 92c0,9 -14,41 -26,62 0,0 -13,19 -31,31 -17,12 -73,35 -94,43l-5 3c-2,2 -42,34 -73,89 -14,24 -41,42 -63,57 -25,16 -45,29 -45,52 0,12 -19,75 -36,127l-1 93 -64 -10 -184 -1 -134 31 -142 45 -282 145 28 22c1,1 97,74 133,110 19,20 48,43 76,65 27,22 56,45 73,62 34,34 96,73 113,84l38 57 0 91c0,11 -2,15 -14,38 -4,7 -8,16 -14,27 -11,23 -25,41 -38,59 -11,16 -21,30 -29,45 -1,2 -6,3 -13,5 -11,2 -27,4 -35,20 -9,15 -3,33 3,47 12,29 31,42 44,51 14,10 16,11 14,26 -3,23 -11,41 -18,57 -9,20 -18,39 -11,59 8,25 74,78 112,107 14,11 34,32 38,42 6,18 17,63 21,77 -2,14 -5,56 8,109 15,59 30,133 30,134l2 12 13 5c39,13 78,34 82,44 6,20 33,52 79,101 19,21 46,50 49,57 5,15 6,34 7,43l-13 56c-16,10 -41,22 -55,22 -32,0 -68,0 -111,35 -37,29 -89,66 -89,66l-14 10 6 17c0,0 13,34 13,74 0,27 -2,58 -5,77l-284 27 -71 -90c-2,-18 -12,-57 -56,-79l-80 -40 -5 0c-1,0 -40,0 -71,-19 -41,-25 -184,7 -231,19l-73 0c-22,0 -373,27 -411,30l-326 0c-14,-5 -60,-22 -79,-29 -17,-6 -80,-31 -111,-44l-21 -9 -58 149 -55 33 -399 -308 -74 59 -115 -95c-3,-13 -13,-32 -40,-46 -7,-3 -14,-10 -22,-18 -20,-20 -51,-49 -99,-36 -41,12 -73,35 -89,48l-161 -64c-2,-34 -4,-82 1,-99 5,-20 42,-107 66,-161l1 -6c4,-26 15,-114 -2,-148 -13,-27 -21,-55 -21,-55l-4 -19 -188 17 -53 -13 56 -51 1 1 18 -19 7 -7 -1 0 36 -37z"/>
  <path class="fil1 kemiling" d="M3422 15538c35,0 88,-2 103,-7 23,-7 82,-60 82,-60 0,0 83,-22 45,-60 -37,-37 -45,-60 -67,-67 -22,-8 -67,-23 -105,-23 -37,0 -82,23 -75,-22 8,-45 45,-105 53,-127 7,-23 37,-53 30,-83 -8,-30 7,-45 -23,-60 -30,-15 -82,-37 -82,-37 0,0 -90,-23 -120,7 -30,30 -127,60 -127,60l-83 0c0,0 -337,-112 -352,-187 -15,-75 60,-120 60,-120 0,0 68,-37 135,-37 68,0 217,37 217,-15 0,-53 0,-120 0,-120l-546 -285 -158 -921c0,0 -7,-37 38,-89 45,-53 82,-98 142,-150 60,-53 255,-247 270,-277 15,-30 105,-210 105,-210 0,0 187,-45 194,-67 8,-23 60,-90 105,-120 45,-30 120,-120 120,-120 0,0 37,-7 45,-52 7,-45 7,-98 7,-98l15 -90 53 15 37 -59 -30 -75c0,0 -45,-60 0,-75 45,-15 30,-68 75,-38 45,30 0,0 45,30 45,30 75,0 75,0l82 15c0,0 15,53 53,45 37,-7 60,-15 74,-37 15,-23 15,-75 15,-120 0,-45 0,-90 -15,-120 -14,-30 -44,-60 -44,-90 0,-30 30,-52 37,-82 7,-30 0,-38 37,-82 38,-45 68,-53 68,-53l30 -67 120 15c0,0 89,52 104,75 15,22 83,7 90,30 8,22 23,97 23,97 0,0 30,22 30,52 0,30 0,60 0,60l-8 53 23 90 322 -233 359 173c0,0 67,-75 67,-98 0,-22 -7,-37 -59,-97 -53,-60 -90,-105 -98,-135 -7,-30 0,-45 -15,-67 -15,-23 -67,-75 -60,-150 8,-75 30,-150 30,-187 0,-38 -7,-90 23,-150 30,-60 67,-90 67,-150 0,-60 0,-82 0,-120 0,-37 30,-104 53,-134 22,-30 52,-75 52,-120 0,-45 -7,-127 -7,-157 0,-30 44,-143 67,-165 22,-23 127,-68 157,-75 30,-8 157,-45 187,-45 24,0 222,10 299,13l-37 39 2 2 -115 108 142 33 157 -14c4,12 11,29 19,46 7,14 5,72 -2,119 -10,23 -60,136 -67,165 -8,33 -1,118 -1,127l1 14 214 86 11 -11c0,0 34,-33 80,-46 22,-7 35,4 56,24 10,10 20,20 33,26 16,8 17,18 17,18l0 10 76 64 29 101 0 55 -23 136 16 108 14 148 -16 222 84 8 0 84 -1 33 30 -12c0,0 8,6 8,39 0,57 -43,75 -45,76l-45 17 162 91 4 2c18,6 40,18 41,24 0,0 -1,4 -10,11 -57,43 -123,155 -154,208l-9 16c-24,39 -61,150 -62,154l-3 9 4 8c0,1 29,59 44,102 15,46 52,120 54,125 2,2 38,61 61,91 15,20 30,63 41,119 3,17 13,42 23,68 13,33 29,74 29,92 0,10 1,22 2,36 3,36 7,86 -8,120 -8,19 -15,41 -23,63 -14,40 -28,80 -51,122 -38,69 -96,258 -99,266l-1 4c-5,46 -24,127 -51,150 -15,13 -47,35 -81,58 -128,89 -152,110 -152,132 0,13 -16,79 -25,119 -5,24 -10,44 -12,56 -6,29 -154,580 -232,866l-67 217 -39 110 13 87c-20,11 -42,20 -50,20 -27,0 -68,26 -80,34l-5 3 -26 56 -39 -97c1,-17 0,-54 -25,-68 -11,-6 -29,-10 -55,9 -62,44 -62,128 -62,160 0,17 4,34 8,47l-79 28 -81 0c-27,-13 -73,-25 -98,9 -18,23 -34,33 -37,34 -17,-34 -69,-72 -74,-76l-10 -7 -154 57 -29 11 -121 -53 -54 28 -12 5 0 13c-1,2 -2,7 -13,10 -21,5 -151,11 -230,14 -5,1 -108,16 -170,39 -25,9 -58,15 -93,20 -46,8 -93,15 -133,33 -18,8 -37,18 -56,27 -46,22 -94,46 -122,46 -37,0 -136,-6 -163,-7l-77 -61 -179 15 -118 0 -45 -45z"/>
  <path class="fil2 kedaton" d="M11195 10925c-1,8 -2,13 -2,15l-15 275 -12 54c-27,12 -77,38 -85,71 -5,22 -11,65 -13,90 -48,5 -93,6 -102,1 -4,-2 -6,-8 -9,-15 -7,-15 -19,-41 -56,-41 -37,0 -92,28 -110,37l-198 -8 54 171c1,10 7,62 7,107 0,31 -14,185 -25,297 -8,94 -13,143 -13,152 -1,12 -27,70 -46,112 -15,34 -31,69 -42,97 -10,26 -20,45 -29,64 -16,34 -32,66 -47,126 -17,70 -44,111 -65,144 -5,8 -10,15 -15,22 -8,14 -17,25 -28,37 -17,19 -38,42 -62,84 -13,23 -17,29 -21,35 -8,11 -13,19 -62,116 -20,40 -73,147 -140,281 -7,-13 -14,-29 -20,-45l-12 -73 -25 12c-4,1 -22,1 -68,-14 -15,-6 -28,-10 -40,-13 -38,-12 -49,-16 -61,-32 -22,-29 -51,-74 -52,-74l-4 -6 -45 -18 -67 -22 -153 -1 -7 9c0,0 -3,3 -8,4 -7,1 -15,-4 -20,-8 -13,-11 -23,-20 -30,-27 -14,-13 -25,-23 -44,-30 -10,-3 -19,-3 -27,-3 -14,-1 -23,-1 -38,-19 -7,-10 -16,-16 -25,-19 0,-1 0,-2 0,-2 7,-72 36,-109 50,-119 6,-4 13,-7 20,-11 19,-10 41,-21 49,-45 7,-22 -11,-68 -55,-139l-2 -4 -94 -63 -120 -38c-22,-27 -47,-60 -51,-70 -4,-12 -10,-85 -14,-149l10 -49 54 12 81 -45 83 23 9 -6c12,-7 51,-33 57,-62 2,-10 0,-20 -5,-29 -17,-24 -77,-42 -117,-52 -8,-15 -14,-31 -14,-38 22,-16 50,-37 50,-37l13 -9 -4 -15c-10,-34 -13,-75 -6,-83 20,-20 20,-20 46,-33 28,-14 41,-40 51,-62 3,-7 6,-14 10,-20 6,-9 10,-20 15,-31 9,-24 19,-51 41,-58 15,-5 25,-7 33,-9 18,-4 28,-7 54,-23 30,-18 71,-47 71,-87l0 -100 -12 -76c61,-11 128,-28 143,-51 9,-13 55,-53 83,-75l74 -45 76 -89c27,-6 93,-25 93,-73 0,-19 -2,-45 -4,-69 -2,-23 -4,-48 -4,-66 0,-6 0,-12 0,-20 -1,-17 -2,-57 4,-69 33,-1 107,-8 108,-8l159 0c40,23 103,62 118,76 14,14 38,24 63,35 19,8 41,17 49,25 27,26 91,35 100,36l180 45 95 0 4 0c13,-2 122,-23 146,-31 14,-5 59,-23 92,-37z"/>
  <path class="fil3 langkapura" d="M6734 13090c3,-10 6,-19 10,-28 7,-22 14,-43 22,-61 19,-44 14,-100 11,-141 -1,-12 -2,-23 -2,-32 0,-27 -16,-68 -32,-108 -9,-23 -18,-48 -21,-61 -9,-45 -24,-104 -49,-137 -21,-28 -58,-86 -58,-86l0 0c0,-2 -37,-74 -51,-117 -12,-36 -33,-81 -42,-99 12,-36 39,-110 55,-137l9 -16c28,-47 93,-157 143,-195 27,-20 30,-41 27,-54 -6,-36 -55,-54 -69,-59l-86 -49c19,-18 39,-48 39,-95 0,-39 -9,-64 -27,-76 -4,-2 -7,-4 -10,-5l0 -104 -81 -8 13 -182 -15 -153 -14 -101 22 -131 0 -64 -14 -48 21 17 75 -60 395 305 95 -56 47 -121c28,12 76,31 93,37 22,7 81,29 81,29l4 2 335 0c156,-12 395,-30 410,-30l75 0 6 -1c92,-23 184,-34 200,-25 34,21 74,25 88,26l71 35c31,16 32,46 32,47l0 8 95 121 272 -26 0 57c-45,29 -99,57 -112,57 -42,0 -53,54 -62,94 -2,8 -3,15 -4,19 -4,10 -35,41 -55,62 -19,19 -38,40 -54,58 -30,36 -111,52 -132,52 -29,0 -139,40 -168,55 -22,11 -90,29 -115,36l-22 5 20 77c-18,86 -45,185 -61,201 -34,34 -43,77 -43,78l-1 5 14 64 -92 184 228 46 -95 278 124 70 -3 4c-2,4 -61,92 -76,123 -17,33 -25,52 -25,114 0,46 13,60 30,74 7,5 12,10 18,20 21,34 44,73 50,90 -2,12 -47,63 -128,63 -11,0 -19,0 -25,-1l12 -8 -54 -75 -204 -111 -74 135 -465 -255 -272 506 -197 -61 -132 -77z"/>
  <path class="fil4 panjang" d="M13982 17493c7,-20 16,-41 24,-57 28,-56 52,-126 61,-153 17,-50 24,-143 24,-172l0 -203 -135 105 0 -178 -12 -6c-41,-20 -243,-121 -265,-129 -11,-3 -42,-27 -68,-49l-9 -94 -102 0c-11,-11 -37,-38 -47,-67l-14 -43 -21 -134c8,-22 17,-54 2,-74 -5,-6 -17,-15 -38,-11 -40,8 -132,71 -143,78l-13 10 5 15c2,8 3,17 4,24 -14,-7 -26,-11 -36,-14 -22,-7 -22,-7 -22,-16l0 -105c0,-14 18,-42 31,-58 8,-6 27,-23 42,-52 19,-38 2,-118 -6,-150 -8,-33 -32,-72 -33,-74l-6 -11 -61 0 -24 119 -37 16c-45,0 -111,-4 -128,-12 -15,-8 -35,-5 -57,1 67,-67 104,-99 116,-109 18,-4 42,-15 50,-47 8,-32 -4,-125 -7,-143l-1 -6 -51 -66 -8 -113 -7 0c3,-29 2,-61 1,-81l78 -30 23 0 57 14 41 12 -13 -39c-1,-2 3,-11 19,-20 31,-19 57,-42 67,-52l79 -17 0 -6c4,-1 10,-3 19,-5 28,-6 67,-39 94,-65l53 274c5,17 31,102 47,126 5,8 12,50 16,77 7,49 12,80 22,95 13,20 45,53 58,66 3,18 16,61 49,95 39,39 114,84 117,85l7 3c1,0 63,14 81,61 5,13 9,27 13,41 16,55 36,124 105,152l29 12c97,38 145,57 166,57 8,0 16,-3 26,-6 28,-9 55,-17 82,31 25,48 49,80 65,104 11,15 21,28 23,35 6,17 31,33 167,106 50,27 119,63 128,72 18,28 127,112 158,127 30,15 130,88 172,143 5,8 11,15 16,21 35,45 54,70 54,160 0,66 -5,114 -9,152 -3,27 -6,51 -6,73 0,54 164,466 197,548l94 217c-2,8 -1,18 4,27 12,22 42,32 95,32 77,0 231,-24 245,-68 3,-7 5,-17 8,-27 5,-20 12,-45 20,-58 8,-11 13,-27 19,-44 6,-19 13,-40 23,-49 12,-12 17,-23 21,-30 5,-9 7,-13 18,-19 33,-16 50,-55 55,-69l84 -105 41 -20 125 -117c9,-1 19,-5 30,-10 33,-13 76,-36 89,-44l177 -20 142 184 22 -17c-104,428 -198,827 -198,827l-75 240 -60 150 224 254 -97 876 1101 906c0,0 681,1453 779,1693 97,239 314,831 314,868 0,38 -277,240 -277,240l-75 -90 -135 0 -89 -180 -143 23 -45 -83 0 -97 -45 -75 -112 8 -97 -210 -120 -15c0,0 -53,-82 -68,-105 -14,-22 -59,-97 -59,-97 0,0 -38,-23 -68,-45 -30,-23 -37,-53 -75,-97 -37,-45 -97,-98 -97,-98l-82 -30 -38 0 -180 0 -22 -45 -22 -67 -143 -22 -30 67 -142 -23c0,0 -30,30 -105,-82 -75,-112 -97,-157 -97,-157l-90 -232c0,0 -15,-135 -15,-158 0,-22 0,-89 0,-89l-7 -83 0 -30 -15 -52 22 -53 60 -74c0,0 -15,-83 0,-113 15,-30 30,-52 30,-120 0,-67 0,-164 0,-164l22 -113 -30 -75 -149 -127 -23 -112 -52 -60c0,0 -75,0 -98,-15 -22,-15 -37,-15 -37,-60 0,-45 0,-127 0,-127 0,0 -30,-53 -52,-68 -23,-15 -45,-37 -60,-67 -15,-30 -105,-127 -105,-127 0,0 7,-15 -30,-23 -38,-7 -142,-22 -142,-22l-30 75 -105 -23 67 -112 -30 -112 68 -90 75 -15 37 -232 -97 -75 82 -30 112 -8c0,0 68,0 75,-45 8,-45 53,-134 53,-134l22 -60 -367 -210 -180 -277 -112 -75c0,0 -37,-105 -45,-135 -7,-30 -7,-97 -7,-97 0,0 -23,-67 -30,-112 -8,-45 -15,-83 -45,-105 -30,-23 -202,-98 -232,-150 -30,-52 -75,-105 -113,-135 -37,-30 -172,-112 -194,-135 -23,-22 -23,-52 -23,-52 0,0 -22,-37 -45,-45 -22,-7 -112,-37 -112,-37l-172 -23 -83 38 -64 -88 25 -76 -2 -1z"/>
  <path class="fil5 bumiwaras" d="M10657 17536l-69 -117 450 -243 -45 -297 45 -15c19,2 88,7 113,7 6,8 15,34 20,57l3 14 137 39 15 21 88 -64 129 -343 2 -7c2,-28 17,-105 63,-131 72,-40 133,-139 136,-143l3 -5 16 -226 -64 -56 -26 -83 4 -10c48,17 160,54 205,54l121 0 54 -54c7,-9 28,-29 42,-29 36,0 63,-48 76,-77l129 -28c28,-3 65,-2 75,4 25,17 63,25 69,26 15,2 140,16 179,8 6,-1 6,-1 8,2 10,11 20,12 27,10 15,-4 17,-15 21,-38 3,-21 5,-44 7,-63 2,-22 3,-44 7,-54 1,-3 2,-7 3,-12 8,-29 24,-87 68,-92l46 -6c46,-5 81,-9 109,-9 6,0 8,1 9,2l10 12 12 -1c1,0 2,0 3,0l4 55 53 68c5,42 11,104 7,121 -3,11 -13,12 -16,12l-8 0 -6 5c-2,2 -40,32 -129,122 -28,28 -47,49 -35,70 12,20 36,14 66,5 13,-4 36,-10 42,-9 33,16 133,17 152,17l5 0 67 -29 21 -103c7,12 16,32 20,48 13,52 17,103 10,119 -12,24 -30,36 -30,36l-5 5c-7,8 -43,53 -43,89l0 105c0,42 30,51 53,59 10,3 22,7 35,13 23,12 38,6 46,-1 17,-14 16,-40 12,-61 32,-22 78,-50 104,-60 -1,7 -5,17 -8,26l-3 6 24 149 16 48c16,50 64,91 66,93l7 5 77 0 7 71 6 6c15,13 66,56 90,64 15,5 154,74 247,120l0 242 135 -105 0 111c0,28 -7,115 -22,158 -8,26 -32,94 -58,146 -10,19 -19,43 -27,64l-2 -1 -22 67 -34 0c-30,0 -60,-15 -60,-15l-135 -45 -134 -75 -225 -89 -344 -210 -15 -75 -90 -37 -217 52 -23 90 -22 30 -105 -45 -150 -37c0,0 -82,89 -120,112 -37,22 -90,37 -90,37l-134 -30 -345 -30 -135 15 -232 60 -299 90 -15 97 -68 143c0,0 0,30 -30,52 -30,23 -52,30 -75,30 -22,0 -67,-37 -67,-37l-37 -6 -53 -88 -4 2z"/>
  <path class="fil6 telukbetungselatan" d="M10421 17927c-8,-22 -17,-47 -24,-62 -9,-18 -13,-88 -13,-133l-1 -7c-5,-13 -30,-75 -74,-75l-131 0 -3 19c-1,2 -1,5 -3,8 -15,-12 -33,-17 -48,-21 -14,-4 -24,-7 -25,-11l-18 -73 -110 131 1 9c1,8 0,21 -1,23 0,1 -5,1 -17,-7 -20,-12 -39,-22 -56,-30 -36,-17 -55,-27 -62,-47 -5,-18 -14,-37 -23,-56 -13,-29 -28,-61 -28,-80 0,-32 12,-145 15,-166l32 -76 -28 -4c-12,-2 -47,-10 -69,-21 -25,-12 -93,-52 -113,-63l-33 -60c-3,-9 -11,-35 -25,-56 -4,-7 -9,-13 -14,-19 -16,-18 -33,-39 -43,-79 -15,-61 -30,-112 -70,-163 7,-12 -1,-19 -57,-66 -40,-34 -62,-45 -80,-44 -4,-8 -11,-21 -19,-38 -46,-99 -93,-177 -118,-218l-10 -16c-23,-40 -119,-142 -123,-146l-4 -5 -127 -39 -5 25c0,1 -7,40 -25,65 -7,9 -12,18 -18,28 -13,23 -27,47 -66,71 -6,4 -14,8 -19,5 -11,-4 -19,-27 -22,-41 0,-1 -3,-34 44,-69 24,-18 37,-18 44,-18 6,0 18,0 25,-10 8,-12 5,-22 -2,-42l-18 -54 -9 -4c-2,-1 -57,-24 -129,-24l-101 0 -21 -97 -56 -32c-6,-10 -19,-30 -51,-72 -40,-54 -40,-72 -40,-107 0,-40 -16,-87 -16,-89l-3 -8 -124 -77 -108 -123c-8,-16 -32,-54 -64,-54 -11,0 -73,-5 -134,-10 30,-3 74,-5 112,-5l11 0 102 -127c17,-14 52,-47 52,-76l0 -99c15,-9 38,-20 52,-20l67 0c25,0 54,-27 70,-44 25,2 84,6 103,6l93 0 47 16 159 -23 34 0 -37 90c-25,17 -72,54 -72,89 0,7 -2,12 -5,21 -6,16 -15,39 -10,87 9,77 43,154 89,200 16,16 29,31 41,45 22,25 41,47 68,63 24,14 49,44 69,67 9,11 17,21 24,27 9,9 19,23 29,37 17,23 33,45 50,56 19,13 25,18 62,63l79 95 6 2c1,0 27,9 67,9 36,0 196,-60 259,-84l158 308 4 3c3,2 61,46 83,61 11,9 40,71 59,124l6 16 17 -2c27,-2 100,-7 118,-7 9,0 30,19 30,45 0,28 -16,97 -22,122l-4 19 113 44c12,6 45,28 41,51 -3,15 -7,26 -11,36 -8,19 -16,40 -2,67 4,8 6,16 8,26 5,21 12,47 43,72 39,31 112,65 141,65 19,0 36,-13 55,-27 8,-7 23,-18 28,-18l97 0c10,0 60,-1 87,-19 19,-13 63,-42 63,-94 0,-10 2,-19 4,-29 5,-21 12,-47 -8,-80l-8 -14c-17,-28 -26,-43 -47,-65 -6,-5 -12,-9 -17,-10 -4,-39 1,-74 5,-92 42,-14 90,-27 101,-25 15,5 83,38 124,58l5 3 5 0c1,0 33,0 58,12 11,6 22,39 25,65l3 29 134 -53c28,5 59,17 75,23l21 126c3,10 19,53 43,79l-25 -7c-9,-39 -26,-80 -57,-80 -17,0 -91,-5 -118,-7l-4 0 -90 30 46 302 -464 251 94 158 -1 0 32 53 -4 0c0,0 -52,22 -60,45 -7,22 -52,37 -30,89 23,53 23,53 23,53l97 -8c0,0 -7,-52 15,-45 23,8 60,53 105,53 45,0 60,0 82,-8 23,-7 68,-22 68,-22 0,0 37,-52 22,30 -15,82 -67,157 -67,157 0,0 -30,23 -38,60 -7,37 -7,45 -15,90 -7,45 -37,120 -30,150 8,30 15,105 15,105l-44 37 -90 0 -216 -353 2 -1 -63 -118 -1 0z"/>
  <path class="fil7 telukbetungtimur" d="M6941 18642l2 2 7 -10 5 -5 -1 -1 49 -74 139 -477 194 73 216 17c12,1 298,22 391,-9 80,-27 215,-89 236,-121l8 -12c161,7 336,22 359,34 38,23 303,118 336,130 20,4 198,38 229,38 23,0 143,-28 156,-68 6,-16 11,-42 14,-57 30,-10 83,-25 107,-25 36,0 117,7 118,7l8 1 6 -4c4,-2 40,-26 47,-62 4,-18 1,-36 -10,-52 -21,-31 -91,-193 -128,-281l131 -6 187 -127c6,20 16,40 25,61 9,18 17,36 22,51 13,39 48,56 84,74 17,8 34,16 53,28 24,15 46,18 62,7 21,-13 25,-41 25,-56l42 -51c11,21 33,27 52,32 12,4 25,7 34,14 18,14 33,12 43,8 12,-5 20,-16 24,-26l96 0c6,0 21,20 30,42 0,27 2,117 18,148 7,14 16,41 24,64l-3 1 8 16c4,12 7,20 7,20l3 -1 22 40 -154 142c0,0 -67,30 -127,52 -60,23 -142,60 -142,60l-135 53 -150 15 23 89 -23 75 -97 -52 -38 22c0,0 -7,30 -22,68 -15,37 -75,119 -75,119 0,0 23,-7 -30,113 -52,120 -67,202 -67,202l30 97 127 38 -172 -8 -68 8 -82 -23c0,0 -22,120 -22,143 0,22 15,157 15,157l7 37 105 15 -8 180 98 404 -75 -30 37 307 83 83 30 -15 -53 135c0,0 -37,22 -37,89 0,68 -8,218 0,240 7,23 22,82 22,82l-52 173 -38 75 -45 7c0,0 8,-52 0,-120 -7,-67 -22,-202 -30,-232 -7,-30 -37,-120 -37,-120l-45 0c0,0 -22,-90 -22,-112 0,-23 -15,-75 -15,-75 0,0 -15,-37 -38,-52 -22,-15 -194,-68 -194,-68l-68 -52 -105 90c0,0 -120,15 -142,-15 -22,-30 -60,-45 -60,-45 0,0 -60,7 -75,45 -15,37 -75,67 -75,67l-45 8c0,0 -104,-23 -119,30 -15,52 22,67 -38,119 -60,53 -127,90 -127,90 0,0 -45,23 -60,53 -15,30 -60,67 -60,67l-75 -8 -97 0 -105 16 -60 52 -37 60 -113 -23c-45,-7 -254,-7 -254,-7l-68 52 -217 30 -82 38 -180 60 83 -1341 163 -1093 55 -49z"/>
  <path class="fil8 telukbetungbarat" d="M5805 15366l51 34 86 39 6 2c1,0 52,7 80,14 21,6 61,18 82,25l8 96 20 0c1,0 26,0 50,13 28,13 86,26 105,30l26 21 7 56 40 64 5 5c2,2 61,54 84,69 64,43 101,64 118,70 6,3 21,19 32,30 22,23 44,47 67,53 9,2 21,7 34,13 31,12 61,24 83,17 26,-9 33,-38 39,-67 3,-12 7,-26 11,-32 14,-22 39,-59 103,-65 24,-3 47,-2 67,-3 47,1 84,1 101,-32 9,-18 28,-44 40,-59l92 29c4,16 14,37 36,53 32,24 71,53 128,25 7,-4 13,-7 19,-10 36,-16 69,-32 69,-78 0,-20 -8,-36 -13,-50 -2,-4 -4,-9 -6,-13 25,-12 36,-12 71,-12 13,0 20,1 26,2 13,2 24,3 53,-2 46,-8 83,-46 107,-72l10 -9c5,-6 8,-11 9,-16 1,0 2,-1 3,-1 30,-7 49,-11 64,-14 30,-7 41,-9 69,-26 15,-8 24,-18 31,-26 35,3 175,14 196,14 0,0 0,0 0,0 6,2 19,18 26,33l116 132 117 75c4,13 12,43 12,67 0,44 2,71 49,134 42,55 50,71 51,71l3 6 49 29 24 112 138 0c46,0 85,12 102,18l10 29c-13,3 -29,10 -50,25 -70,53 -62,109 -61,112 1,6 10,59 47,75 13,6 34,10 62,-7 48,-31 66,-62 81,-87 5,-9 9,-16 15,-24 14,-19 23,-42 28,-60l68 22c30,31 97,106 113,134l11 16c26,44 70,117 116,214 29,62 35,75 61,64 0,0 12,1 49,33 11,9 19,16 26,22 1,10 10,20 17,28 41,48 55,95 70,156 12,50 35,77 51,96 4,6 9,11 12,16 12,18 19,45 19,45l43 78 5 3c4,2 91,53 121,68 17,9 37,15 54,19l-12 27 -2 7c0,5 -12,114 -14,162l-195 132 -183 9 12 30c5,11 114,272 144,318 6,8 5,14 5,18 -3,11 -14,23 -22,29 -22,-2 -82,-7 -114,-7 -40,0 -125,28 -134,31l-13 4 -2 14c-2,12 -9,47 -13,61 -10,13 -88,40 -115,40 -20,0 -146,-23 -217,-36 -116,-42 -299,-110 -325,-126 -40,-23 -311,-37 -393,-40l-12 -1 -22 33c-13,16 -121,73 -214,104 -70,23 -293,12 -373,6l-206 -15 -237 -90 -148 515 -41 61 -1 -1 -30 27 -319 -1268c0,0 15,-90 15,-128 0,-37 -15,-127 -15,-127 0,0 7,-30 -45,-67 -53,-38 -127,-90 -127,-90l-30 67c0,0 -98,-22 -240,-52 -142,-30 -217,-23 -217,-23l-38 53 -187 45c0,0 -52,-23 -90,22 -37,45 -120,112 -179,135 -60,22 -150,37 -150,15 0,-23 -15,-75 -15,-75 0,0 -127,127 -150,127 -22,0 -135,-15 -157,0 -23,15 -112,60 -157,75 -45,15 -307,113 -330,120 -22,7 -127,120 -127,120 0,0 -75,157 -135,127 -60,-30 -97,-30 -157,-90 -60,-60 -128,-135 -195,-157 -67,-22 -150,-45 -150,-45 0,0 -52,-45 -97,-45 -45,0 -127,45 -150,45 -22,0 -90,15 -90,15l-82 0 -285 127c0,0 -67,38 -89,-15 -23,-52 -30,-112 -30,-142 0,-30 0,-60 0,-60l-135 -60c0,0 -53,-30 -68,-60 -15,-30 -29,-82 -29,-112 0,-30 -38,-75 29,-75 68,0 195,-22 195,-22l98 -45 29 -53 -15 -60 -82 -52 -30 -90 -22 -127 -30 -23 -113 -45 0 -67 23 -45c0,0 15,-37 75,-60 60,-22 539,-202 539,-202l0 -82 -569 -8c0,0 -120,-67 -142,-75 -23,-7 -23,-45 -53,-82 -30,-38 -112,-53 -37,-90 75,-37 105,-30 149,-37 45,-8 135,-23 135,-23 0,0 98,15 98,38 0,22 22,30 45,45 22,15 22,15 22,15 0,0 52,37 52,7 0,-30 15,-150 15,-150l53 -60c0,0 165,-15 187,-30 22,-15 75,-30 75,-30l9 -11 71 71 139 0 163 -14 74 59 7 0c5,1 128,8 173,8 38,0 88,-25 141,-51 19,-9 38,-18 56,-26 34,-15 78,-22 121,-29 38,-6 73,-12 102,-23 57,-21 159,-36 158,-36 0,0 0,0 0,0 21,-1 205,-8 237,-16 26,-6 38,-22 44,-36l26 -13 118 52 177 -67c18,15 43,37 51,53 7,14 19,23 34,24 36,4 69,-38 79,-51 8,-10 36,1 45,6l6 3 95 0 137 -47 -12 -23c0,0 -12,-26 -12,-50 0,-28 0,-93 43,-124 3,-2 5,-3 7,-4 2,6 3,19 2,29l0 5 81 204 48 -104 17 9z"/>
  <path class="fil9 labuhanratu" d="M8857 11190c33,-17 68,-38 87,-51l10 -6 0 -87 27 -2 3 -18c0,-2 7,-54 7,-100 0,-30 -6,-57 -11,-74 19,-13 52,-37 78,-58 31,-25 55,-25 83,-25 36,0 82,-31 87,-34l8 -5 17 -76 0 -5c0,-2 0,-34 -8,-60 -5,-13 -20,-31 -59,-73 -24,-26 -64,-70 -68,-82 -8,-34 -65,-59 -100,-72 -5,-24 -16,-78 -27,-123 -14,-54 -7,-95 -7,-96l0 -4 -1 -5c0,-2 -15,-61 -23,-84 -9,-27 -45,-57 -52,-63 -43,-33 -92,-75 -97,-87 -1,-3 5,-17 9,-26 8,-17 17,-39 21,-68 7,-43 -16,-59 -32,-70 -12,-8 -22,-15 -29,-32 -1,-2 -2,-4 -2,-5 0,0 0,0 1,0 12,-2 34,-6 45,-29 6,-11 15,-24 26,-38 13,-19 28,-40 42,-66 5,-11 9,-19 13,-26 13,-24 19,-37 19,-59l0 -104 -52 -78 -4 -2c-1,-1 -73,-44 -108,-79 -19,-20 -49,-43 -77,-66 -27,-21 -55,-44 -73,-62 -25,-25 -77,-67 -109,-92l214 -110 139 -44 125 -30 175 0 87 15 324 103 241 168c9,14 46,72 71,134 26,66 74,65 117,63 18,0 37,-1 56,3 40,9 94,32 137,50 29,12 51,22 64,25l18 4c46,11 154,37 211,62 52,24 68,56 86,94l8 16c29,59 249,125 338,139 81,13 101,78 102,81l2 8 6 4c12,9 229,170 381,274l-15 -1 -8 132 28 77 -107 200 -57 97 2 8c6,34 16,132 -6,182 -16,36 -28,82 -35,120 -34,14 -101,42 -117,47 -15,6 -89,20 -137,29l-85 0 -180 -44c-24,-3 -65,-13 -76,-24 -15,-14 -38,-24 -64,-35 -19,-8 -41,-17 -49,-25 -24,-24 -121,-80 -132,-86l-5 -3 -173 0c0,0 -81,8 -110,8 -10,0 -20,4 -27,11 -19,19 -19,57 -18,104 0,7 0,14 0,19 0,20 2,45 4,70 2,23 4,47 4,65 0,8 -30,24 -64,31l-8 1 -78 93 -74 45c-13,10 -78,63 -93,86 -12,10 -79,27 -135,36l-64 7 -99 -23 -6 2c-31,10 -107,35 -124,62 -6,8 -31,19 -54,26l-88 -44 -108 7 -28 -84 -96 -38 1 -2 -62 -23 -3 0 0 0 0 0z"/>
  <path class="fil10 tanjungkarangbarat" d="M8914 15082l-68 0 -152 22 -40 -14 -104 -1c-18,0 -86,-5 -111,-7l-11 -1 -8 9c-15,18 -36,36 -43,37l-67 0c-36,0 -82,30 -87,33l-10 7 0 124c-2,7 -19,28 -37,43l-94 115c-36,0 -127,2 -156,17 -21,10 -29,23 -36,34 -6,10 -11,18 -26,27 -21,13 -27,14 -55,20 -15,3 -35,7 -66,15 -53,13 -60,15 -58,35 1,3 2,8 6,13 -20,20 -46,44 -74,49 -24,4 -30,3 -39,2 -7,-1 -16,-3 -32,-3 -38,0 -57,0 -92,18 -37,18 -22,53 -15,70 5,11 10,22 10,32 0,16 -8,21 -43,38 -6,3 -13,6 -20,9 -31,16 -49,4 -81,-20 -20,-15 -21,-34 -21,-34l0 -17 -150 -47 -9 12c-2,2 -40,47 -56,79 -3,8 -35,7 -60,8 -21,-1 -45,0 -72,2 -85,9 -121,62 -136,85 -8,12 -12,29 -16,47 -3,12 -8,31 -9,34 -9,1 -38,-10 -53,-16 -14,-6 -28,-12 -40,-14 -10,-3 -32,-27 -46,-41 -21,-22 -35,-36 -50,-41 -7,-3 -31,-15 -107,-65 -16,-11 -59,-48 -77,-64l-33 -52 -8 -64 -49 -40 -5 -1c-20,-4 -77,-16 -100,-28 -18,-9 -35,-13 -49,-15l-7 -86 -14 -5c-3,-1 -69,-22 -99,-30 -27,-7 -69,-13 -81,-15l-78 -35 -21 -15 4 -8 -48 -24c16,-9 32,-16 39,-16 26,0 72,-25 86,-33l13 -8 -16 -107 36 -100 67 -218c9,-34 225,-832 233,-870 2,-12 7,-32 12,-54 14,-60 24,-105 25,-125 14,-17 88,-69 133,-100 37,-25 68,-47 84,-60 49,-40 65,-156 68,-177 6,-21 61,-195 95,-256 11,-20 20,-40 28,-59l128 75 239 75 268 -498 464 254 75 -135 156 84 23 33c-6,10 -9,21 -6,32 9,27 46,30 80,30 74,0 133,-36 159,-72 13,-17 17,-33 12,-47 -8,-25 -30,-62 -54,-102 -10,-17 -21,-25 -28,-32 -10,-8 -14,-11 -14,-39 0,-54 6,-66 20,-94 12,-24 53,-87 68,-110l98 -16 -196 -112 100 -291 -221 -44 72 -146 -15 -70c3,-9 11,-32 30,-52 32,-32 65,-183 74,-228l1 -5 -11 -43c29,-8 80,-23 102,-34 34,-17 131,-50 148,-50 28,0 124,-17 167,-68 14,-17 33,-37 51,-56 38,-38 59,-61 65,-79 2,-5 4,-14 6,-24 2,-11 8,-35 13,-49l114 41 1 -2 74 29 32 97 131 -9 92 46 8 -2c16,-4 70,-19 88,-46 7,-9 50,-28 95,-42l95 22 49 -6 12 73 0 97c0,5 -4,21 -49,49 -21,12 -28,14 -41,17 -9,2 -20,5 -37,10 -42,14 -58,57 -69,84 -4,10 -7,18 -10,23 -5,7 -9,17 -14,26 -8,18 -16,34 -30,41 -32,16 -34,18 -58,42 -24,24 -16,80 -9,111 -11,8 -27,19 -40,28 -38,25 -3,87 8,105l5 8 9 2c42,10 84,25 96,34 -4,6 -15,16 -27,25l-81 -22 -83 45 -82 -18 -20 100 0 3c2,32 9,140 16,163 9,25 52,75 65,90l4 5 123 38 83 56c25,42 47,87 47,96 -2,8 -15,14 -27,20 -8,5 -16,9 -24,14 -27,18 -61,68 -69,151 -4,40 -5,50 10,57 5,3 14,5 25,-3 27,34 53,35 71,35 5,1 10,1 14,2 9,3 14,7 27,20 8,7 19,17 33,29 18,14 36,20 54,17 13,-1 23,-7 29,-12l122 0 63 20 31 13c9,13 31,46 49,70 22,29 45,36 84,48 11,3 24,7 39,12 29,10 53,15 71,17l4 25 1 5c15,38 28,63 39,80 -177,357 -427,860 -427,860l-8 16 43 35c2,36 4,109 -6,139 -16,47 -23,361 -24,396l0 17 360 127 36 472c-37,18 -73,25 -77,17 -6,-9 -5,-19 -5,-30 1,-12 2,-28 -11,-39 -13,-12 -30,-11 -44,-9 -49,7 -140,26 -157,30l-87 0 -92 15 -166 0 -45 -283 -223 -17 -188 38z"/>
  <path class="fil11 telukbetungutara" d="M11635 15973l25 80 56 49 -13 193c-13,19 -63,93 -117,122 -71,40 -84,144 -86,165l-124 328 -56 41c-1,-17 -11,-47 -42,-62 -15,-7 -33,-44 -41,-68l-24 -145 -11 -5c-3,-1 -56,-24 -103,-31l-6 -1 -93 37c-6,-26 -19,-59 -44,-72 -27,-14 -59,-16 -72,-17 -22,-11 -104,-52 -126,-59 -25,-8 -91,12 -142,30l-11 4 -3 11c0,2 -16,58 -8,121 4,34 6,45 24,47 2,1 8,1 13,-2 12,13 19,25 32,47l9 15c10,16 7,26 3,45 -3,12 -6,25 -6,40 0,24 -17,40 -43,57 -11,7 -43,11 -62,11l-97 0c-19,0 -37,13 -55,27 -9,6 -23,17 -28,18 -14,0 -77,-26 -113,-55 -19,-16 -23,-29 -27,-48 -3,-11 -6,-22 -12,-35 -4,-9 -3,-12 4,-30 4,-12 10,-26 13,-46 8,-48 -37,-85 -66,-99l-79 -31c6,-29 18,-84 18,-113 0,-51 -40,-90 -75,-90 -17,0 -75,4 -105,6 -18,-47 -47,-115 -70,-129 -18,-13 -63,-46 -77,-57l-171 -335 -19 7c-112,44 -241,89 -262,89 -22,0 -39,-3 -47,-5l-70 -85c-37,-44 -47,-54 -72,-71 -10,-7 -26,-28 -38,-45 -12,-17 -23,-32 -34,-42 -6,-7 -14,-15 -22,-25 -22,-26 -50,-58 -80,-76 -20,-13 -37,-31 -57,-55 -13,-14 -26,-30 -43,-46 -39,-39 -69,-107 -76,-174 -4,-37 2,-52 7,-66 4,-10 8,-21 8,-37 1,-9 29,-37 58,-56l5 -4 51 -122 172 -35 182 14 45 286 206 0 92 -15 88 0 4 -1c1,0 105,-22 156,-29 2,-1 3,-1 4,-1 0,1 0,1 0,2 0,14 -1,34 11,55 11,18 29,24 50,24 39,0 87,-24 100,-30l13 -7 -11 -147 113 -54 133 -7c26,9 67,25 81,34 2,2 3,5 5,18 2,15 5,35 18,57 24,41 92,38 158,35 14,-1 28,-2 41,-2 46,0 168,5 217,7l0 31 5 6c31,42 67,94 71,106 3,10 2,37 1,65 -1,21 -2,44 -2,70 0,90 62,90 82,90 12,0 36,6 53,11 12,21 46,74 66,94 24,24 102,79 142,95 37,15 219,76 280,91 12,3 24,4 36,4 35,0 69,-10 90,-18z"/>
  <path class="fil12 enggal" d="M11641 15905l-9 21c-24,11 -74,27 -112,18 -60,-16 -238,-75 -274,-89 -35,-14 -107,-65 -127,-85 -17,-17 -52,-73 -64,-93l-4 -7 -8 -3c-5,-2 -49,-16 -75,-16 -21,0 -37,0 -37,-45 0,-25 1,-48 2,-68 1,-37 3,-63 -3,-81 -8,-23 -54,-86 -74,-113l0 -59 -22 -1c-7,0 -180,-8 -240,-8 -13,0 -28,1 -43,2 -40,2 -107,5 -118,-13 -8,-14 -10,-27 -11,-39 -3,-17 -5,-37 -25,-51 -25,-16 -88,-37 -96,-40l-4 -1 -146 8 -110 50 -25 -336 -358 -127c3,-133 11,-337 21,-367 16,-47 10,-153 9,-165l-1 -10 -31 -25c44,-88 256,-515 414,-833 3,1 5,1 7,1 18,0 26,-10 30,-16 7,-11 6,-24 3,-33 14,-20 48,-67 69,-94 4,6 8,15 11,22 6,12 11,24 18,35 21,35 49,144 49,158 -4,15 -55,79 -99,130l-3 3 -99 312 181 47 13 83 39 75 -76 76 63 91 2 3c36,35 130,131 148,154 19,25 35,31 48,35 7,2 12,4 18,8 12,8 41,23 75,40 32,16 65,32 83,43 5,3 12,7 20,12 46,26 131,75 160,117 28,39 91,68 146,93 25,12 48,23 62,32 10,6 18,12 27,17 31,20 56,36 90,70 28,28 85,67 140,105 35,24 68,47 86,61 39,33 67,79 84,113l6 12c73,144 89,194 89,210l0 195c0,63 23,186 30,215 6,20 12,102 15,153l36 -2z"/>
  <path class="fil13 tanjungkarangtimur" d="M11310 14904c-49,-33 -100,-69 -124,-93 -37,-37 -65,-55 -97,-76 -8,-5 -17,-10 -26,-16 -17,-12 -40,-23 -68,-35 -48,-22 -107,-50 -128,-80 -35,-49 -122,-99 -175,-129 -7,-5 -14,-8 -19,-12 -20,-11 -53,-28 -86,-44 -30,-15 -61,-31 -71,-37 -10,-7 -19,-11 -27,-13 -11,-4 -17,-6 -27,-20 -22,-29 -136,-143 -150,-158l-41 -58 74 -73 -52 -94 -16 -108 -164 -43 82 -257c107,-123 107,-146 107,-154 0,-28 -32,-144 -56,-183 -5,-10 -10,-21 -15,-31 -14,-29 -26,-53 -49,-56 -5,0 -11,0 -17,3l12 -24c107,14 279,40 304,50 39,16 156,38 162,39l183 28c5,14 17,41 31,84 14,41 27,64 38,81 7,12 12,20 14,30 6,22 22,40 35,52 -21,29 -63,89 -86,135 -22,44 -29,85 -36,128 -3,18 -6,36 -10,56 -16,69 -23,161 -23,193 0,25 11,47 30,60 28,17 69,14 121,-10 33,-15 50,-24 62,-30 24,-12 30,-15 109,-44 36,-14 52,-16 58,-17 0,2 1,5 1,7 1,11 2,26 12,39 13,17 18,68 18,99l0 32 31 -11c0,0 81,-29 110,-36 13,-4 46,3 71,10l9 68 22 -3c1,0 85,-12 150,-20l46 109 40 30 72 7c7,21 22,57 57,86 25,21 34,29 49,17l11 -17c12,-4 27,-11 46,-19 14,-7 37,-18 47,-20 3,9 3,33 3,52 0,42 0,155 -7,198 -3,19 -8,21 -32,29 -11,3 -24,8 -38,15 -12,6 -22,12 -33,19 -32,20 -65,41 -139,46 -36,3 -74,9 -81,38 -1,4 -2,8 -1,12 -55,7 -156,20 -189,25 -56,9 -83,62 -83,63l-51 81z"/>
  <path class="fil14 wayhalim" d="M12687 11780l-131 87 -107 93 -131 7c-35,-3 -97,-2 -116,25 -8,10 -9,23 -4,35 10,26 36,48 60,69 16,14 33,28 38,38 10,21 31,33 48,42 6,3 14,8 17,11l0 124c0,18 -21,81 -36,119l-2 7 38 183 6 62 -92 17c-23,-10 -69,-16 -104,33 -34,47 -111,82 -113,84l-62 34 -39 0c-13,0 -40,-3 -69,-25 -5,-4 -10,-8 -16,-13 -27,-21 -55,-44 -81,-38 -12,2 -21,10 -27,21 -5,11 -23,34 -39,55 -43,54 -60,79 -60,98 0,23 7,106 15,167 4,36 18,61 30,80 8,15 15,26 15,37l0 13c0,18 1,63 -9,71 -1,1 -4,1 -8,-1 -52,-14 -92,-28 -132,-69 -42,-42 -64,-77 -64,-78l-5 -8 -10 -2c-3,-1 -76,-17 -136,17 -49,28 -135,50 -136,50l-5 1 -103 80 -143 137c-9,-8 -19,-19 -21,-29 -4,-16 -12,-28 -20,-42 -9,-16 -21,-36 -33,-72 -23,-68 -38,-99 -39,-100l-5 -11 -206 -31c-32,-6 -124,-25 -153,-37 -34,-13 -230,-41 -299,-50l42 -83c46,-94 51,-101 58,-110 4,-7 9,-14 23,-39 21,-38 40,-58 56,-76 12,-13 24,-26 34,-43 4,-7 9,-14 13,-22 22,-34 53,-80 72,-157 14,-56 28,-84 44,-117 9,-19 19,-40 30,-67 11,-28 26,-62 41,-95 36,-80 50,-113 50,-131 0,-8 7,-79 13,-148 11,-119 25,-268 25,-301 0,-53 -8,-112 -8,-115l-36 -116 146 7 6 -3c24,-14 71,-35 94,-35 7,0 8,0 15,15 5,11 11,24 25,34 26,17 105,9 150,3l18 -2 1 -18c0,0 8,-73 15,-101 2,-10 36,-32 69,-45l11 -4 17 -79 16 -279c0,-1 15,-110 43,-174 28,-63 15,-169 10,-199l49 -84 117 -218 -32 -88 6 -105c28,18 53,34 73,46 109,64 146,89 153,94l186 201 4 3c76,52 190,134 204,152 8,11 42,44 112,114 113,111 323,319 342,361 13,30 15,88 17,144 2,63 4,122 21,157 32,64 133,304 133,372 0,12 4,33 11,60z"/>
  <path class="fil15 kedamaian" d="M13470 15145l-17 19c-34,37 -82,79 -100,83 -12,2 -33,6 -46,17l-66 14 -5 5c0,0 -28,28 -63,49 -20,12 -31,25 -36,37l-37 -10 -35 0 -121 45 1 16c3,41 3,90 -2,114 -6,-2 -12,-3 -20,-3 -30,0 -67,4 -114,10l-46 5c-74,8 -96,90 -106,125 -1,4 -2,8 -3,10 -5,15 -7,38 -9,64 -1,16 -3,32 -5,48 -7,-1 -14,-1 -21,1 -25,4 -115,-3 -164,-8 -9,-2 -36,-9 -52,-19 -27,-18 -87,-13 -107,-11l-154 33 -4 11c-12,29 -31,58 -39,60 -40,0 -74,42 -76,45l-38 38 -103 0c-40,0 -165,-42 -210,-59l-20 -7 -4 8c-2,-37 -8,-117 -14,-142 -8,-30 -29,-147 -29,-204l0 -195c0,-32 -28,-101 -94,-231l-6 -11c-19,-37 -50,-90 -96,-127 -14,-12 -37,-28 -62,-46l53 -84c0,-1 18,-35 51,-41 44,-7 222,-29 224,-29l61 -8 -50 -33c6,-1 17,-3 33,-4 85,-6 126,-32 159,-53 9,-6 19,-12 29,-17 12,-6 22,-9 32,-13 27,-9 55,-18 62,-63 8,-47 8,-159 8,-206 0,-48 0,-97 -45,-97 -15,0 -36,9 -69,24 -16,7 -43,20 -51,20 -4,0 -8,1 -11,2 -35,-30 -41,-72 -41,-72l-3 -18 -94 -8 -19 -15 -29 -68c17,-14 23,-27 18,-41 -8,-24 -40,-21 -55,-19 -48,5 -116,14 -151,19l-6 -51 -13 -4c-13,-5 -76,-24 -110,-16 -20,5 -59,18 -86,28 -2,-30 -9,-72 -26,-94 -2,-4 -3,-10 -3,-17 -1,-12 -3,-30 -20,-41 -18,-11 -45,-8 -100,12 -81,31 -88,34 -113,47 -12,6 -29,14 -61,29 -51,24 -71,17 -78,13 -9,-6 -10,-18 -10,-22 0,-30 8,-118 22,-183 5,-21 8,-40 11,-59 7,-41 13,-77 32,-115 27,-54 86,-133 95,-145l154 -147 93 -72c20,-5 96,-26 144,-54 34,-19 77,-16 95,-14 10,15 31,44 65,78 48,48 95,64 152,81 23,6 38,-1 47,-7 28,-22 27,-71 27,-107l-1 -13c0,-24 -10,-42 -20,-60 -11,-17 -21,-35 -25,-62 -8,-64 -14,-143 -15,-160 3,-11 33,-50 51,-73 19,-23 35,-44 43,-58 10,4 30,20 41,28 6,5 12,10 17,14 40,30 77,34 96,34l50 0 71 -39c4,-2 89,-41 129,-97 23,-32 45,-21 52,-17l7 5 149 -28 -10 -105 -36 -174c10,-26 37,-99 37,-129l0 -127c0,-25 -22,-37 -40,-47 -12,-7 -25,-14 -30,-23 -9,-18 -28,-34 -48,-52 -18,-15 -37,-31 -46,-46 14,-4 45,-6 75,-4l150 -8 116 -101 117 -78c26,82 68,198 116,327 26,70 52,143 54,152 0,23 61,629 68,698l0 5 2 4c17,31 169,305 238,359 37,28 61,113 79,174 13,46 23,81 37,99 24,30 120,356 146,485 18,89 16,190 15,264 0,16 -1,32 -1,46 0,33 -8,97 -16,159 -11,89 -18,145 -13,167 5,25 28,233 45,381z"/>
  <path class="fil16 tanjungsenang" d="M12978 9837l0 0 0 0 -3 2 1 1 -49 91c-5,4 -17,13 -31,14 -30,-16 -171,-156 -294,-285l-31 -33 -7 45c-1,0 -7,40 -26,65 -17,22 -68,64 -87,79l-66 57 -1 9c-4,25 -16,94 -27,125 -42,27 -377,106 -680,169 -16,-11 -57,-38 -151,-93 -116,-69 -426,-298 -471,-332 -9,-23 -43,-91 -136,-105 -110,-17 -290,-85 -305,-115l-7 -15c-20,-40 -41,-86 -109,-116 -60,-27 -171,-53 -218,-64l-18 -4c-9,-3 -33,-13 -57,-23 -45,-19 -102,-43 -145,-52 -25,-6 -48,-5 -68,-5 -42,1 -60,1 -74,-34 -30,-76 -75,-144 -77,-147l-253 -178 -320 -103 0 -92c10,-29 35,-107 38,-135 4,-4 16,-12 25,-18 24,-16 58,-38 77,-72 23,-40 51,-66 59,-74 17,-6 77,-31 98,-45 26,-18 43,-43 45,-45 8,-14 33,-60 33,-86l0 -104 -63 -110 -5 -6c-1,0 -36,-29 -56,-56 -13,-17 -26,-36 -34,-49l24 -20c27,0 115,-3 199,-23 15,-3 26,-6 35,-8 26,0 81,6 131,14 7,17 19,48 24,68 5,20 18,47 33,78 10,19 19,40 28,60 26,60 92,86 95,87l158 1 0 -35c13,4 28,5 45,5 52,0 105,-22 135,0 30,23 22,68 37,90 15,23 75,8 127,45 53,38 360,172 360,172 0,0 135,-7 157,-15 23,-7 52,-15 52,-15l0 -119 90 -135c0,0 68,-75 90,-128 23,-52 38,-164 60,-202 23,-37 30,-45 67,-75 38,-30 38,-74 23,-127 -15,-52 -30,-97 -30,-142 0,-45 -52,-53 15,-75 67,-22 67,-52 127,-52 60,0 202,15 240,0 37,-15 157,-38 180,-45 22,-8 15,37 30,67 15,30 30,90 30,90l89 45c0,0 -7,-53 45,-30 53,22 202,82 202,82l45 135c0,0 68,157 83,187 15,30 37,90 37,90l375 23c0,0 59,-30 89,-38 30,-7 45,-67 128,-67 82,0 172,0 172,0l-247 374 82 0 0 90 30 45c0,0 38,7 68,22 30,15 112,45 112,45 0,0 15,0 30,23 15,22 97,45 97,45 0,82 -15,157 -15,157 0,0 -52,-45 -82,-52 -30,-8 -592,142 -592,142l23 90c0,0 75,22 97,22 23,0 53,-7 53,-7 0,0 74,-60 37,30 -37,89 0,67 -37,89 -38,23 -68,30 -68,30l23 53c0,0 37,30 45,52 7,23 30,75 30,75 0,0 7,15 44,15 38,0 75,-15 90,15 15,30 15,127 15,127l-112 45 0 369 -57 55z"/>
  <path class="fil17 sukabumi" d="M16158 12484l142 74 -120 779 1363 816 142 15c0,0 -22,83 -15,105 8,22 37,127 37,127l53 68c0,0 15,37 15,75 0,37 -15,119 -15,119l-15 83 -434 202 67 592 509 262c0,0 -943,614 -1041,943 -45,154 -144,553 -237,934l-149 -194 -212 25 -4 2c-1,0 -52,29 -87,43 -18,7 -22,8 -23,8l0 20 -14 -16 -125 118 -47 23 -93 116 -3 7c-4,10 -16,38 -34,47 -24,12 -32,26 -38,38 -3,6 -6,12 -13,19 -17,17 -26,43 -34,67 -4,13 -9,27 -14,34 -12,18 -19,46 -26,71 -2,8 -3,15 -5,21 -17,14 -113,40 -204,40 -35,0 -49,-5 -54,-8l4 -6 -102 -234c-93,-234 -193,-499 -193,-531 0,-20 3,-42 5,-68 5,-40 10,-89 10,-157 0,-106 -27,-140 -64,-187 -5,-7 -10,-13 -15,-21 -47,-62 -154,-139 -188,-156 -28,-14 -129,-95 -141,-112 -9,-14 -39,-31 -144,-87 -53,-28 -132,-70 -147,-84 -5,-12 -14,-25 -27,-43 -16,-23 -38,-54 -63,-99 -44,-81 -105,-62 -135,-53 -4,2 -10,4 -12,4 -16,-1 -96,-33 -149,-54l-30 -12c-48,-19 -63,-72 -78,-123 -4,-15 -9,-30 -14,-44 -23,-62 -92,-83 -110,-88 -14,-8 -74,-46 -105,-77 -31,-31 -38,-77 -38,-77l-1 -8 -6 -5c-12,-12 -46,-47 -57,-64 -5,-8 -11,-50 -15,-77 -7,-49 -12,-80 -22,-95 -9,-14 -30,-75 -42,-112l-53 -280 24 -2c-2,-17 -46,-414 -53,-452 -3,-16 6,-91 14,-152 8,-63 16,-129 16,-165 0,-14 0,-29 1,-46 1,-75 3,-179 -16,-273 -22,-107 -119,-460 -154,-504 -9,-11 -20,-49 -30,-83 -21,-72 -46,-161 -94,-198 -51,-40 -177,-256 -224,-341 -27,-268 -66,-670 -67,-689 0,-10 -7,-30 -49,-145 32,7 84,17 102,17 24,0 85,-19 97,-23l7 -5c0,0 60,-52 105,-89 26,-22 46,-7 50,-4 0,1 43,58 56,99 7,21 21,29 30,32 30,10 62,-13 85,-30l9 -6c11,-8 62,-20 103,-26l117 -15 109 0 168 22c0,0 73,1 107,7 29,6 58,8 71,8l105 90 1121 -15 678 209 1 -4c50,16 126,42 171,58z"/>
  <path class="fil18 tanjungkarangpusat" d="M16030 12393l0 6 0 3c-11,-3 -22,-5 -33,-7l0 0 1 -5c10,1 21,2 32,3z"/>
  <path class="fil19 sukarame" d="M13068 9819l102 6 1280 -1011 -82 247 269 38 23 1265 127 -75 53 45 419 247 22 150c0,0 38,352 38,390 0,37 15,494 15,494l704 127 -8 651c-11,-1 -22,-2 -32,-3l1 -3 -684 -211 -1111 15 -105 -90 -8 0c-1,0 -36,0 -71,-7 -39,-7 -113,-7 -113,-7l-168 -23 -115 0 -121 15c-16,3 -96,17 -121,34 -3,2 -6,4 -10,7 -9,6 -36,25 -44,24 0,0 -1,-1 -2,-5 -16,-48 -61,-108 -65,-113 -18,-18 -65,-42 -113,-2 -39,33 -89,76 -102,87 -27,9 -66,20 -78,20 -13,0 -63,-10 -102,-18l-102 -385 -38 26c-3,-16 -6,-27 -6,-34 0,-82 -109,-336 -137,-392 -12,-26 -14,-83 -16,-138 -2,-64 -4,-123 -21,-161 -20,-46 -178,-204 -351,-375 -53,-52 -102,-100 -108,-109 -23,-30 -177,-136 -213,-160l-158 -172c662,-137 676,-172 681,-185 13,-33 26,-107 30,-131l53 -47c7,-5 70,-55 94,-86 10,-14 17,-30 23,-44 258,270 285,270 296,270 38,0 65,-26 68,-29l48 -87 1 1 58 -56z"/>
 </g>
</svg>
